<svg width="605" height="1245" viewBox="0 0 605 1245" fill="none" xmlns="http://www.w3.org/2000/svg">
<g opacity="0.59">
<path d="M241.888 164.062C243.116 164.673 243.198 166.397 242.036 167.151L240.661 168.043C240.197 168.344 239.896 168.842 239.845 169.39L239.712 170.805C239.571 172.315 237.735 172.992 236.673 171.926L235.973 171.222C235.541 170.788 234.914 170.611 234.313 170.755L233.217 171.016C231.82 171.349 230.641 169.982 231.171 168.644L231.841 166.951C232.031 166.471 232.006 165.934 231.771 165.479L230.944 163.875C230.289 162.608 231.331 161.108 232.751 161.273L233.867 161.402C234.477 161.472 235.085 161.221 235.473 160.738L236.102 159.955C237.055 158.769 238.946 159.223 239.23 160.707L239.496 162.098C239.6 162.637 239.947 163.095 240.436 163.339L241.888 164.062Z" fill="white"/>
<path d="M275.723 270.384C277.075 270.443 277.751 272.078 276.915 273.27L276.418 273.978C276.087 274.45 275.974 275.049 276.112 275.596L276.275 276.242C276.645 277.707 275.237 279.073 273.917 278.531L273.555 278.383C273.025 278.165 272.413 278.253 271.927 278.618L271.507 278.932C270.338 279.807 268.803 278.969 268.852 277.483L268.884 276.531C268.902 275.981 268.689 275.465 268.303 275.124L267.634 274.535C266.591 273.615 267.015 271.762 268.367 271.332L268.853 271.177C269.416 270.998 269.873 270.533 270.068 269.94L270.201 269.535C270.687 268.057 272.528 267.742 273.286 269.006L273.62 269.564C273.903 270.036 274.384 270.326 274.92 270.35L275.723 270.384Z" fill="#FF92D7"/>
<path d="M75.6885 104.419C77.0402 104.478 77.7157 106.113 76.8802 107.304L75.2218 109.669C74.8906 110.141 74.777 110.74 74.9151 111.287L75.5898 113.959C75.9597 115.424 74.5525 116.791 73.2324 116.249L71.1046 115.375C70.5745 115.157 69.9624 115.245 69.4759 115.61L67.4926 117.096C66.3242 117.971 64.7885 117.133 64.8382 115.647L64.9403 112.59C64.9587 112.04 64.7454 111.524 64.3591 111.183L62.2129 109.291C61.1695 108.371 61.5935 106.518 62.9458 106.088L65.2413 105.358C65.8042 105.179 66.2607 104.714 66.4559 104.121L67.239 101.739C67.725 100.262 69.5663 99.9464 70.3239 101.211L71.7057 103.517C71.9885 103.989 72.4694 104.28 73.0054 104.303L75.6885 104.419Z" fill="#FF92D7"/>
<path d="M148.379 101.561C149.64 101.984 149.913 103.658 148.868 104.553L148.821 104.593C148.434 104.925 148.214 105.414 148.224 105.918L148.229 106.157C148.256 107.442 146.791 108.232 145.799 107.466C145.397 107.156 144.85 107.086 144.364 107.277C143.182 107.741 141.997 106.698 142.326 105.461L142.427 105.08C142.561 104.575 142.474 104.044 142.189 103.625L141.974 103.309C141.274 102.283 142.052 100.837 143.305 100.802C143.82 100.788 144.309 100.505 144.587 100.055C145.272 98.946 146.892 99.1029 147.274 100.315L147.345 100.541C147.494 101.016 147.855 101.386 148.322 101.542L148.379 101.561Z" fill="#FDFFB5"/>
<path d="M368.928 25.1964C370.259 24.8547 371.354 26.3186 370.821 27.7255L370.28 29.1513C370.07 29.704 370.107 30.3299 370.378 30.8374L371.061 32.1138C371.763 33.4266 370.809 35.1004 369.434 34.9656L368.168 34.8414C367.626 34.7883 367.09 35.032 366.729 35.4953L365.872 36.5963C364.966 37.7599 363.28 37.3174 362.975 35.836L362.66 34.3111C362.543 33.7397 362.19 33.2684 361.708 33.0385L360.422 32.425C359.173 31.829 359.079 29.8927 360.261 29.0978L361.38 28.3456C361.85 28.0292 362.158 27.4807 362.207 26.8742L362.319 25.4564C362.441 23.9181 364.08 23.1587 365.112 24.1627L366.115 25.139C366.513 25.5271 367.057 25.677 367.58 25.5428L368.928 25.1964Z" fill="white"/>
<path d="M373.961 307.86C375.304 307.607 376.308 309.118 375.703 310.485L375.386 311.201C375.148 311.739 375.151 312.363 375.393 312.882L375.681 313.5C376.313 314.855 375.253 316.476 373.881 316.25L373.359 316.164C372.816 316.075 372.26 316.288 371.869 316.733L371.462 317.199C370.492 318.307 368.833 317.775 368.607 316.284L368.484 315.472C368.397 314.902 368.076 314.418 367.614 314.161L366.954 313.794C365.745 313.121 365.769 311.189 366.996 310.47L367.512 310.167C368.005 309.877 368.348 309.342 368.428 308.735L368.505 308.15C368.708 306.615 370.4 305.945 371.376 307.013L371.822 307.501C372.196 307.911 372.729 308.093 373.258 307.993L373.961 307.86Z" fill="#FF92D7"/>
<path d="M150.018 319.419C151.277 319.945 151.454 321.664 150.336 322.497L148.033 324.212C147.586 324.545 147.313 325.062 147.292 325.614L147.187 328.36C147.13 329.876 145.339 330.679 144.221 329.689L142.551 328.208C142.096 327.805 141.462 327.672 140.872 327.856L138.649 328.549C137.274 328.977 136.025 327.692 136.48 326.318L137.465 323.348C137.629 322.854 137.573 322.318 137.313 321.879L135.749 319.239C135.026 318.018 135.981 316.447 137.406 316.513L139.712 316.619C140.323 316.648 140.914 316.356 141.274 315.848L142.599 313.979C143.485 312.73 145.392 313.054 145.758 314.516L146.419 317.162C146.552 317.694 146.924 318.128 147.426 318.338L150.018 319.419Z" fill="#F7A9A8"/>
<path d="M74.9723 267.644C76.2714 267.768 76.8528 269.365 76.001 270.471L75.972 270.508C75.6521 270.923 75.5259 271.462 75.6306 271.964L75.6681 272.144C75.935 273.425 74.6594 274.545 73.5362 274.016C73.084 273.804 72.5429 273.857 72.106 274.152C71.0312 274.879 69.6766 274.084 69.7751 272.769L69.7978 272.464C69.8376 271.932 69.6522 271.423 69.2919 271.074L69.0854 270.874C68.1936 270.01 68.6659 268.382 69.8884 268.06C70.3853 267.93 70.8053 267.544 70.9959 267.038C71.4693 265.781 73.0808 265.584 73.6893 266.708L73.7749 266.866C74.0136 267.308 74.4401 267.594 74.928 267.64L74.9723 267.644Z" fill="#FDFFB5"/>
<path d="M122.797 200.405C123.978 199.796 125.31 200.972 125.057 202.4C124.958 202.956 125.11 203.541 125.46 203.966C126.357 205.053 125.816 206.791 124.521 206.963L124.454 206.972C123.948 207.04 123.505 207.369 123.259 207.86L123.213 207.952C122.588 209.199 120.936 209.09 120.39 207.765C120.171 207.236 119.737 206.853 119.227 206.739C117.949 206.453 117.468 204.68 118.406 203.708L118.474 203.637C118.844 203.254 119.026 202.696 118.966 202.129L118.959 202.054C118.806 200.603 120.189 199.609 121.343 200.331C121.794 200.614 122.337 200.642 122.797 200.405Z" fill="white"/>
<path d="M3.63095 151.525C4.27629 150.143 6.24954 150.164 6.87061 151.561L7.03203 151.923C7.27011 152.459 7.75567 152.843 8.3309 152.952L8.99015 153.077C10.3596 153.336 10.9173 154.997 9.98081 156.026L9.26913 156.809C8.91718 157.196 8.75375 157.718 8.82227 158.238L8.93821 159.117C9.1317 160.583 7.55724 161.629 6.27879 160.883L6.05142 160.751C5.508 160.434 4.83834 160.426 4.28949 160.731L4.05983 160.859C2.7686 161.577 1.21269 160.497 1.43177 159.034L1.56308 158.158C1.64066 157.64 1.48634 157.114 1.14121 156.72L0.443336 155.922C-0.475015 154.872 0.111624 153.224 1.48534 152.995L2.14665 152.884C2.72367 152.788 3.2159 152.414 3.46329 151.884L3.63095 151.525Z" fill="#FF92D7"/>
<path d="M181.574 20.9028C182.219 19.5205 184.192 19.5421 184.813 20.9383L185.813 23.1861C186.051 23.7214 186.537 24.1059 187.112 24.2148L189.626 24.6907C190.995 24.95 191.553 26.6104 190.617 27.64L188.563 29.8979C188.211 30.2848 188.048 30.8075 188.116 31.3268L188.507 34.2892C188.7 35.7559 187.126 36.8018 185.847 36.0558L183.952 34.95C183.409 34.6329 182.739 34.6256 182.19 34.9307L180.276 35.9948C178.985 36.7126 177.429 35.6324 177.648 34.1703L178.09 31.217C178.168 30.6993 178.014 30.1732 177.668 29.7786L175.654 27.4762C174.736 26.4263 175.323 24.7784 176.697 24.5492L179.218 24.1284C179.795 24.0321 180.287 23.6582 180.535 23.1283L181.574 20.9028Z" fill="#FF92D7"/>
<path d="M249.367 67.7138C250.179 66.7052 251.815 67.1958 252.068 68.524C252.165 69.0346 252.497 69.476 252.957 69.7055L253.004 69.7292C254.18 70.3164 254.329 71.9763 253.267 72.6636L253.055 72.8006C252.643 73.0674 252.377 73.5154 252.329 74.0226L252.295 74.3815C252.176 75.6474 250.689 76.152 249.779 75.2356C249.396 74.8503 248.856 74.6881 248.352 74.8075C247.155 75.0916 246.093 73.8224 246.554 72.6592L246.685 72.3294C246.87 71.8633 246.84 71.3264 246.602 70.8645L246.48 70.6274C245.867 69.4379 246.737 68.0835 248.018 68.2333L248.07 68.2393C248.57 68.2979 249.055 68.1015 249.367 67.7138Z" fill="#FDFFB5"/>
<path d="M90.4882 5.57974C90.7882 4.05986 92.6679 3.51259 93.5911 4.67635L94.3203 5.5955C94.6752 6.04286 95.2295 6.27246 95.804 6.21009L97.1635 6.06246C98.5431 5.91267 99.47 7.3769 98.8024 8.65157L97.9663 10.2481C97.714 10.7297 97.6783 11.2915 97.8687 11.781L98.4584 13.2966C98.9892 14.661 97.7362 16.1345 96.3377 15.7906L95.353 15.5484C94.7646 15.4037 94.1304 15.5883 93.6795 16.0357L92.9249 16.7842C91.8531 17.8473 90.1178 17.2438 89.9878 15.7627L89.8434 14.1175C89.7967 13.5861 89.5211 13.115 89.0913 12.832L87.6665 11.8937C86.5289 11.1446 86.7013 9.36032 87.9714 8.73869L89.223 8.12609C89.7518 7.86724 90.136 7.36441 90.2513 6.78016L90.4882 5.57974Z" fill="white"/>
<path d="M592.585 394.344C593.231 392.961 595.204 392.983 595.825 394.379L595.986 394.742C596.225 395.277 596.71 395.662 597.285 395.771L597.945 395.895C599.314 396.155 599.872 397.815 598.935 398.845L598.224 399.627C597.872 400.014 597.708 400.537 597.777 401.056L597.893 401.935C598.086 403.402 596.512 404.448 595.233 403.702L595.006 403.569C594.462 403.252 593.793 403.245 593.244 403.55L593.014 403.677C591.723 404.395 590.167 403.315 590.386 401.853L590.518 400.977C590.595 400.459 590.441 399.933 590.096 399.538L589.398 398.74C588.479 397.69 589.066 396.042 590.44 395.813L591.101 395.703C591.678 395.607 592.17 395.233 592.418 394.703L592.585 394.344Z" fill="#FF92D7"/>
<path d="M592.741 291.454C593.386 290.072 595.36 290.094 595.981 291.49L596.981 293.738C597.219 294.273 597.704 294.658 598.28 294.766L600.793 295.242C602.163 295.502 602.72 297.162 601.784 298.192L599.73 300.449C599.378 300.836 599.215 301.359 599.283 301.878L599.674 304.841C599.868 306.307 598.293 307.353 597.015 306.607L595.119 305.502C594.576 305.185 593.906 305.177 593.357 305.482L591.443 306.546C590.152 307.264 588.596 306.184 588.815 304.722L589.258 301.769C589.335 301.251 589.181 300.725 588.836 300.33L586.822 298.028C585.903 296.978 586.49 295.33 587.864 295.101L590.385 294.68C590.962 294.584 591.455 294.21 591.702 293.68L592.741 291.454Z" fill="#FF92D7"/>
<path d="M474.141 404.855C474.183 403.483 475.695 402.689 476.664 403.532C477.038 403.857 477.547 403.959 478.028 403.803L478.065 403.791C479.297 403.394 480.373 404.595 479.953 405.898L479.892 406.087C479.729 406.594 479.785 407.141 480.046 407.573L480.181 407.796C480.836 408.88 480.007 410.368 478.773 410.323C478.264 410.305 477.766 410.566 477.453 411.016C476.694 412.106 475.143 411.868 474.818 410.611L474.751 410.352C474.621 409.851 474.282 409.452 473.83 409.268L473.661 409.2C472.498 408.728 472.362 407.033 473.423 406.227L473.454 406.203C473.869 405.888 474.125 405.385 474.141 404.855Z" fill="#FDFFB5"/>
<path d="M279.284 390.145C279.584 388.625 281.464 388.078 282.387 389.242L283.116 390.161C283.471 390.608 284.025 390.838 284.6 390.775L285.959 390.628C287.339 390.478 288.266 391.942 287.598 393.217L286.762 394.813C286.51 395.295 286.474 395.857 286.664 396.346L287.254 397.862C287.785 399.226 286.532 400.7 285.133 400.356L284.149 400.114C283.56 399.969 282.926 400.154 282.475 400.601L281.721 401.35C280.649 402.413 278.913 401.809 278.784 400.328L278.639 398.683C278.592 398.151 278.317 397.68 277.887 397.397L276.462 396.459C275.325 395.71 275.497 393.926 276.767 393.304L278.019 392.691C278.548 392.433 278.932 391.93 279.047 391.346L279.284 390.145Z" fill="white"/>
<path d="M457.864 44.3018C459.046 43.5042 460.609 44.5929 460.492 46.1327L460.289 48.8114C460.244 49.4088 460.466 50.0061 460.887 50.4143L462.804 52.2753C463.845 53.2855 463.482 55.11 462.173 55.4523L459.561 56.1354C459.058 56.2671 458.648 56.6488 458.451 57.1698L457.44 59.8461C456.915 61.2361 455.14 61.3049 454.416 59.9633L453.196 57.7021C452.901 57.1572 452.385 56.7972 451.818 56.7425L449.467 56.5156C448.072 56.381 447.343 54.5674 448.225 53.4259L449.922 51.2279C450.253 50.8 450.378 50.2201 450.261 49.6562L449.654 46.7307C449.35 45.2645 450.652 44.0947 451.921 44.6936L454.259 45.7969C454.772 46.0388 455.349 45.9988 455.807 45.6893L457.864 44.3018Z" fill="#F7A9A8"/>
<path d="M372.299 109.2C373.512 108.794 374.621 110.094 374.203 111.432C374.039 111.955 374.109 112.535 374.389 112.988C375.104 114.147 374.342 115.738 373.082 115.706C372.587 115.694 372.116 115.948 371.815 116.389C371.049 117.513 369.467 117.184 369.105 115.835C368.963 115.306 368.6 114.88 368.134 114.697C366.947 114.23 366.727 112.445 367.766 111.64C368.173 111.324 368.422 110.808 368.434 110.255C368.464 108.844 369.919 108.066 370.919 108.919C371.311 109.253 371.825 109.358 372.299 109.2Z" fill="#FDFFB5"/>
<path d="M389.649 389.471C390.61 388.348 392.461 388.972 392.709 390.502L392.907 391.725C393.002 392.313 393.368 392.832 393.886 393.112L395.115 393.777C396.362 394.452 396.471 396.249 395.307 396.95L393.863 397.82C393.422 398.085 393.13 398.547 393.065 399.079L392.865 400.711C392.685 402.187 390.936 402.722 389.903 401.616L389.163 400.823C388.73 400.36 388.106 400.149 387.517 400.268L386.509 400.472C385.102 400.755 383.907 399.229 384.485 397.886L385.123 396.402C385.331 395.918 385.315 395.353 385.078 394.859L384.303 393.242C383.678 391.937 384.655 390.506 386.028 390.714L387.381 390.919C387.951 391.006 388.511 390.8 388.881 390.368L389.649 389.471Z" fill="white"/>
<path d="M585.43 133.653C586.075 132.27 588.048 132.292 588.669 133.688L588.831 134.051C589.069 134.586 589.555 134.971 590.13 135.08L590.789 135.205C592.158 135.464 592.716 137.124 591.78 138.154L591.068 138.936C590.716 139.323 590.553 139.846 590.621 140.365L590.737 141.244C590.931 142.711 589.356 143.757 588.078 143.011L587.85 142.878C587.307 142.561 586.637 142.554 586.088 142.859L585.859 142.987C584.567 143.704 583.012 142.624 583.231 141.162L583.362 140.286C583.44 139.768 583.285 139.242 582.94 138.847L582.242 138.049C581.324 136.999 581.91 135.352 583.284 135.122L583.945 135.012C584.523 134.916 585.015 134.542 585.262 134.012L585.43 133.653Z" fill="#FF92D7"/>
<path d="M595.493 28.2983C596.139 26.916 598.112 26.9376 598.733 28.3338L599.733 30.5816C599.971 31.1168 600.456 31.5014 601.032 31.6103L603.545 32.0862C604.915 32.3455 605.473 34.0059 604.536 35.0355L602.482 37.2934C602.13 37.6803 601.967 38.203 602.035 38.7223L602.426 41.6847C602.62 43.1513 601.045 44.1972 599.767 43.4513L597.872 42.3455C597.328 42.0284 596.658 42.0211 596.11 42.3262L594.195 43.3903C592.904 44.1081 591.348 43.0279 591.567 41.5658L592.01 38.6125C592.087 38.0948 591.933 37.5687 591.588 37.1741L589.574 34.8717C588.656 33.8218 589.242 32.1739 590.616 31.9446L593.138 31.5239C593.715 31.4276 594.207 31.0537 594.454 30.5238L595.493 28.2983Z" fill="#FF92D7"/>
<path d="M449.786 292.321C450.598 291.312 452.234 291.803 452.487 293.131C452.584 293.642 452.916 294.083 453.376 294.313L453.423 294.336C454.599 294.924 454.747 296.584 453.686 297.271L453.474 297.408C453.062 297.675 452.796 298.123 452.748 298.63L452.714 298.989C452.594 300.255 451.108 300.759 450.198 299.843C449.815 299.458 449.274 299.295 448.771 299.415C447.574 299.699 446.511 298.43 446.973 297.266L447.104 296.937C447.289 296.471 447.259 295.934 447.021 295.472L446.899 295.235C446.286 294.045 447.156 292.691 448.437 292.841L448.488 292.847C448.989 292.905 449.474 292.709 449.786 292.321Z" fill="#FDFFB5"/>
<path d="M451.567 138.082C451.867 136.562 453.747 136.015 454.67 137.179L455.399 138.098C455.754 138.545 456.308 138.775 456.883 138.713L458.242 138.565C459.622 138.415 460.549 139.879 459.881 141.154L459.045 142.751C458.793 143.232 458.757 143.794 458.947 144.283L459.537 145.799C460.068 147.163 458.815 148.637 457.416 148.293L456.432 148.051C455.843 147.906 455.209 148.091 454.758 148.538L454.004 149.287C452.932 150.35 451.196 149.746 451.066 148.265L450.922 146.62C450.875 146.089 450.6 145.618 450.17 145.334L448.745 144.396C447.608 143.647 447.78 141.863 449.05 141.241L450.302 140.629C450.83 140.37 451.215 139.867 451.33 139.283L451.567 138.082Z" fill="white"/>
<path d="M333.103 200.911C333.103 202.272 332.117 203.376 330.901 203.376C329.685 203.376 328.7 202.272 328.7 200.911C328.7 199.549 329.685 198.446 330.901 198.446C332.117 198.446 333.103 199.549 333.103 200.911Z" fill="#D9D9D9"/>
<path d="M197.699 263.156C197.699 264.518 196.713 265.621 195.497 265.621C194.281 265.621 193.295 264.518 193.295 263.156C193.295 261.795 194.281 260.691 195.497 260.691C196.713 260.691 197.699 261.795 197.699 263.156Z" fill="#D9D9D9"/>
<path d="M218.615 75.8037C218.615 76.8248 217.876 77.6526 216.964 77.6526C216.052 77.6526 215.312 76.8248 215.312 75.8037C215.312 74.7826 216.052 73.9549 216.964 73.9549C217.876 73.9549 218.615 74.7826 218.615 75.8037Z" fill="#FF92D7"/>
<path d="M75.5044 48.0706C75.5044 49.0917 74.7651 49.9195 73.8531 49.9195C72.9411 49.9195 72.2018 49.0917 72.2018 48.0706C72.2018 47.0495 72.9411 46.2218 73.8531 46.2218C74.7651 46.2218 75.5044 47.0495 75.5044 48.0706Z" fill="#FF92D7"/>
<path d="M110.181 154.381C110.181 155.232 109.565 155.921 108.805 155.921C108.045 155.921 107.429 155.232 107.429 154.381C107.429 153.53 108.045 152.84 108.805 152.84C109.565 152.84 110.181 153.53 110.181 154.381Z" fill="#FDFFB5"/>
<path d="M251.09 126.031C251.09 126.882 250.474 127.572 249.714 127.572C248.954 127.572 248.338 126.882 248.338 126.031C248.338 125.18 248.954 124.491 249.714 124.491C250.474 124.491 251.09 125.18 251.09 126.031Z" fill="#FDFFB5"/>
<path d="M133.849 3.08143C133.849 4.78327 132.617 6.16289 131.097 6.16289C129.577 6.16289 128.345 4.78327 128.345 3.08143C128.345 1.37959 129.577 -2.07149e-05 131.097 -2.07149e-05C132.617 -2.0715e-05 133.849 1.37959 133.849 3.08143Z" fill="#F7A9A8"/>
<path d="M90.9162 190.434C90.9162 191.455 90.1769 192.283 89.265 192.283C88.353 192.283 87.6137 191.455 87.6137 190.434C87.6137 189.413 88.353 188.585 89.265 188.585C90.177 188.585 90.9162 189.413 90.9162 190.434Z" fill="#F7A9A8"/>
<path d="M241.888 580.707C243.116 581.318 243.198 583.042 242.036 583.796L240.661 584.688C240.197 584.989 239.896 585.487 239.845 586.035L239.712 587.45C239.571 588.96 237.735 589.637 236.673 588.57L235.973 587.867C235.541 587.433 234.914 587.256 234.313 587.399L233.217 587.661C231.82 587.994 230.641 586.627 231.171 585.289L231.841 583.596C232.031 583.115 232.006 582.579 231.771 582.124L230.944 580.52C230.289 579.253 231.331 577.753 232.751 577.917L233.867 578.047C234.477 578.117 235.085 577.866 235.473 577.383L236.102 576.6C237.055 575.413 238.946 575.867 239.23 577.352L239.496 578.743C239.6 579.282 239.947 579.74 240.436 579.984L241.888 580.707Z" fill="white"/>
<path d="M275.723 687.029C277.075 687.088 277.75 688.723 276.915 689.915L276.418 690.623C276.087 691.095 275.974 691.694 276.112 692.241L276.275 692.886C276.645 694.352 275.237 695.718 273.917 695.176L273.555 695.027C273.025 694.81 272.413 694.898 271.927 695.262L271.507 695.577C270.338 696.452 268.802 695.614 268.852 694.128L268.884 693.176C268.902 692.626 268.689 692.11 268.303 691.769L267.634 691.18C266.591 690.26 267.015 688.407 268.367 687.977L268.853 687.822C269.416 687.643 269.873 687.178 270.068 686.585L270.201 686.18C270.687 684.702 272.528 684.387 273.286 685.651L273.62 686.209C273.903 686.681 274.384 686.971 274.92 686.995L275.723 687.029Z" fill="#FF92D7"/>
<path d="M75.6885 521.064C77.0402 521.123 77.7157 522.758 76.8802 523.949L75.2218 526.314C74.8906 526.786 74.777 527.385 74.9151 527.932L75.5897 530.604C75.9596 532.069 74.5525 533.436 73.2324 532.894L71.1046 532.02C70.5744 531.802 69.9623 531.89 69.4759 532.255L67.4926 533.74C66.3242 534.616 64.7885 533.777 64.8382 532.291L64.9403 529.235C64.9587 528.685 64.7454 528.169 64.3591 527.828L62.2129 525.936C61.1695 525.016 61.5935 523.163 62.9458 522.733L65.2412 522.003C65.8042 521.824 66.2607 521.359 66.4558 520.766L67.239 518.384C67.7249 516.907 69.5663 516.591 70.3239 517.856L71.7057 520.162C71.9885 520.634 72.4694 520.925 73.0054 520.948L75.6885 521.064Z" fill="#FF92D7"/>
<path d="M148.379 518.206C149.64 518.629 149.913 520.303 148.868 521.198L148.821 521.238C148.434 521.57 148.214 522.059 148.224 522.563L148.229 522.802C148.256 524.087 146.791 524.877 145.799 524.111C145.397 523.801 144.85 523.731 144.364 523.922C143.182 524.386 141.997 523.343 142.326 522.105L142.427 521.725C142.561 521.22 142.474 520.689 142.189 520.27L141.974 519.954C141.274 518.928 142.052 517.482 143.305 517.447C143.82 517.433 144.309 517.15 144.587 516.7C145.272 515.591 146.892 515.748 147.274 516.96L147.345 517.186C147.494 517.661 147.855 518.031 148.322 518.187L148.379 518.206Z" fill="#FDFFB5"/>
<path d="M368.928 441.841C370.259 441.5 371.354 442.964 370.821 444.37L370.28 445.796C370.07 446.349 370.107 446.975 370.378 447.482L371.061 448.759C371.763 450.071 370.809 451.745 369.434 451.611L368.168 451.486C367.626 451.433 367.09 451.677 366.729 452.14L365.872 453.241C364.966 454.405 363.28 453.962 362.975 452.481L362.66 450.956C362.543 450.385 362.19 449.913 361.708 449.683L360.422 449.07C359.173 448.474 359.079 446.538 360.261 445.743L361.38 444.991C361.85 444.674 362.158 444.126 362.207 443.519L362.319 442.101C362.441 440.563 364.08 439.804 365.112 440.808L366.115 441.784C366.513 442.172 367.057 442.322 367.58 442.188L368.928 441.841Z" fill="white"/>
<path d="M373.961 724.505C375.304 724.251 376.307 725.763 375.703 727.13L375.386 727.846C375.148 728.384 375.151 729.007 375.393 729.527L375.681 730.145C376.313 731.5 375.253 733.12 373.881 732.895L373.359 732.809C372.816 732.72 372.26 732.933 371.869 733.378L371.462 733.844C370.492 734.952 368.833 734.42 368.607 732.929L368.484 732.117C368.397 731.547 368.076 731.063 367.614 730.806L366.954 730.439C365.745 729.766 365.769 727.834 366.996 727.115L367.512 726.812C368.005 726.522 368.348 725.987 368.428 725.38L368.505 724.794C368.708 723.26 370.4 722.59 371.376 723.658L371.822 724.146C372.196 724.555 372.729 724.738 373.258 724.638L373.961 724.505Z" fill="#FF92D7"/>
<path d="M150.018 736.064C151.277 736.59 151.454 738.309 150.335 739.142L148.033 740.857C147.586 741.189 147.313 741.707 147.292 742.259L147.187 745.005C147.129 746.521 145.339 747.324 144.221 746.334L142.551 744.853C142.096 744.45 141.462 744.317 140.872 744.501L138.649 745.194C137.274 745.622 136.025 744.336 136.48 742.963L137.465 739.993C137.629 739.499 137.573 738.963 137.313 738.524L135.749 735.884C135.026 734.663 135.981 733.091 137.406 733.157L139.712 733.264C140.323 733.293 140.914 733.001 141.274 732.493L142.599 730.624C143.485 729.375 145.392 729.698 145.758 731.16L146.419 733.807C146.552 734.339 146.924 734.773 147.426 734.983L150.018 736.064Z" fill="#C2A4CD"/>
<path d="M74.9723 684.289C76.2714 684.413 76.8528 686.01 76.001 687.115L75.972 687.153C75.6521 687.568 75.5258 688.107 75.6305 688.609L75.6681 688.789C75.935 690.069 74.6594 691.19 73.5362 690.661C73.0839 690.448 72.5429 690.502 72.106 690.797C71.0312 691.524 69.6766 690.729 69.775 689.413L69.7978 689.109C69.8376 688.577 69.6522 688.068 69.2919 687.719L69.0854 687.519C68.1936 686.655 68.6659 685.027 69.8884 684.705C70.3853 684.575 70.8053 684.189 70.9959 683.683C71.4692 682.426 73.0808 682.229 73.6893 683.353L73.7749 683.511C74.0136 683.952 74.4401 684.239 74.9279 684.285L74.9723 684.289Z" fill="#FDFFB5"/>
<path d="M122.797 617.05C123.978 616.441 125.31 617.617 125.057 619.045C124.958 619.601 125.11 620.185 125.46 620.611C126.357 621.698 125.816 623.436 124.521 623.608L124.454 623.617C123.948 623.685 123.505 624.014 123.259 624.505L123.213 624.597C122.588 625.844 120.936 625.735 120.39 624.41C120.171 623.881 119.737 623.498 119.227 623.384C117.949 623.098 117.468 621.325 118.406 620.353L118.474 620.282C118.844 619.899 119.026 619.341 118.966 618.774L118.959 618.699C118.806 617.248 120.189 616.254 121.342 616.976C121.794 617.258 122.337 617.287 122.797 617.05Z" fill="white"/>
<path d="M3.63093 568.17C4.27627 566.788 6.24952 566.809 6.87059 568.206L7.03201 568.568C7.27009 569.104 7.75566 569.488 8.33088 569.597L8.99013 569.722C10.3596 569.981 10.9173 571.642 9.98079 572.671L9.26911 573.454C8.91716 573.841 8.75373 574.363 8.82225 574.882L8.93819 575.762C9.13168 577.228 7.55723 578.274 6.27877 577.528L6.0514 577.396C5.50798 577.078 4.83833 577.071 4.28947 577.376L4.05981 577.504C2.76858 578.222 1.21267 577.142 1.43175 575.679L1.56307 574.803C1.64064 574.285 1.48632 573.759 1.14119 573.365L0.443318 572.567C-0.475034 571.517 0.111606 569.869 1.48532 569.64L2.14663 569.529C2.72365 569.433 3.21588 569.059 3.46327 568.529L3.63093 568.17Z" fill="#FF92D7"/>
<path d="M181.574 437.548C182.219 436.165 184.192 436.187 184.813 437.583L185.813 439.831C186.051 440.366 186.537 440.751 187.112 440.86L189.626 441.336C190.995 441.595 191.553 443.255 190.617 444.285L188.563 446.543C188.211 446.93 188.047 447.452 188.116 447.972L188.507 450.934C188.7 452.401 187.126 453.447 185.847 452.701L183.952 451.595C183.409 451.278 182.739 451.271 182.19 451.576L180.276 452.64C178.985 453.358 177.429 452.277 177.648 450.815L178.09 447.862C178.168 447.344 178.014 446.818 177.668 446.424L175.654 444.121C174.736 443.071 175.323 441.423 176.696 441.194L179.218 440.773C179.795 440.677 180.287 440.303 180.535 439.773L181.574 437.548Z" fill="#FF92D7"/>
<path d="M249.367 484.359C250.179 483.35 251.815 483.841 252.068 485.169C252.165 485.679 252.497 486.121 252.957 486.35L253.004 486.374C254.18 486.961 254.329 488.621 253.267 489.309L253.055 489.446C252.643 489.712 252.377 490.16 252.329 490.668L252.295 491.026C252.176 492.292 250.689 492.797 249.779 491.88C249.396 491.495 248.856 491.333 248.352 491.452C247.155 491.737 246.093 490.467 246.554 489.304L246.685 488.974C246.87 488.508 246.84 487.971 246.602 487.509L246.48 487.272C245.867 486.083 246.737 484.728 248.018 484.878L248.07 484.884C248.57 484.943 249.055 484.746 249.367 484.359Z" fill="#FDFFB5"/>
<path d="M90.4882 422.225C90.7882 420.705 92.6679 420.157 93.5911 421.321L94.3203 422.24C94.6752 422.688 95.2295 422.917 95.8039 422.855L97.1635 422.707C98.5431 422.558 99.47 424.022 98.8024 425.296L97.9662 426.893C97.714 427.375 97.6783 427.936 97.8687 428.426L98.4584 429.941C98.9892 431.306 97.7362 432.779 96.3377 432.435L95.353 432.193C94.7646 432.049 94.1304 432.233 93.6795 432.681L92.9249 433.429C91.8531 434.492 90.1178 433.889 89.9878 432.408L89.8434 430.762C89.7967 430.231 89.5211 429.76 89.0913 429.477L87.6665 428.539C86.5289 427.79 86.7013 426.005 87.9714 425.384L89.223 424.771C89.7518 424.512 90.136 424.009 90.2513 423.425L90.4882 422.225Z" fill="white"/>
<path d="M592.585 810.989C593.231 809.606 595.204 809.628 595.825 811.024L595.986 811.387C596.224 811.922 596.71 812.307 597.285 812.416L597.945 812.54C599.314 812.8 599.872 814.46 598.935 815.49L598.224 816.272C597.872 816.659 597.708 817.182 597.777 817.701L597.893 818.58C598.086 820.047 596.512 821.093 595.233 820.347L595.006 820.214C594.462 819.897 593.793 819.89 593.244 820.195L593.014 820.322C591.723 821.04 590.167 819.96 590.386 818.498L590.517 817.622C590.595 817.104 590.441 816.578 590.096 816.183L589.398 815.385C588.479 814.335 589.066 812.687 590.44 812.458L591.101 812.348C591.678 812.252 592.17 811.878 592.418 811.348L592.585 810.989Z" fill="#FF92D7"/>
<path d="M592.741 708.099C593.386 706.717 595.36 706.739 595.981 708.135L596.981 710.383C597.219 710.918 597.704 711.302 598.28 711.411L600.793 711.887C602.163 712.146 602.72 713.807 601.784 714.837L599.73 717.094C599.378 717.481 599.215 718.004 599.283 718.523L599.674 721.486C599.868 722.952 598.293 723.998 597.015 723.252L595.119 722.146C594.576 721.829 593.906 721.822 593.357 722.127L591.443 723.191C590.152 723.909 588.596 722.829 588.815 721.367L589.258 718.414C589.335 717.896 589.181 717.37 588.836 716.975L586.822 714.673C585.903 713.623 586.49 711.975 587.864 711.746L590.385 711.325C590.962 711.229 591.455 710.855 591.702 710.325L592.741 708.099Z" fill="#F7A9A8"/>
<path d="M474.141 821.5C474.183 820.128 475.695 819.334 476.664 820.177C477.038 820.502 477.547 820.603 478.028 820.448L478.065 820.436C479.297 820.039 480.373 821.24 479.953 822.543L479.892 822.732C479.729 823.239 479.785 823.786 480.046 824.218L480.181 824.441C480.836 825.525 480.007 827.013 478.773 826.968C478.264 826.95 477.766 827.211 477.453 827.661C476.694 828.751 475.143 828.513 474.818 827.256L474.751 826.997C474.621 826.496 474.282 826.097 473.83 825.913L473.661 825.845C472.498 825.373 472.362 823.678 473.423 822.872L473.454 822.848C473.869 822.533 474.125 822.03 474.141 821.5Z" fill="#FDFFB5"/>
<path d="M279.284 806.79C279.584 805.27 281.464 804.723 282.387 805.887L283.116 806.806C283.471 807.253 284.025 807.483 284.6 807.42L285.959 807.273C287.339 807.123 288.266 808.587 287.598 809.862L286.762 811.458C286.51 811.94 286.474 812.502 286.664 812.991L287.254 814.507C287.785 815.871 286.532 817.345 285.133 817.001L284.149 816.759C283.56 816.614 282.926 816.799 282.475 817.246L281.721 817.994C280.649 819.058 278.913 818.454 278.783 816.973L278.639 815.328C278.592 814.796 278.317 814.325 277.887 814.042L276.462 813.104C275.325 812.355 275.497 810.571 276.767 809.949L278.019 809.336C278.548 809.077 278.932 808.575 279.047 807.99L279.284 806.79Z" fill="white"/>
<path d="M457.864 460.947C459.046 460.149 460.609 461.238 460.492 462.778L460.289 465.456C460.244 466.054 460.466 466.651 460.887 467.059L462.804 468.92C463.845 469.93 463.482 471.755 462.173 472.097L459.561 472.78C459.058 472.912 458.648 473.294 458.451 473.815L457.44 476.491C456.915 477.881 455.14 477.95 454.416 476.608L453.195 474.347C452.901 473.802 452.385 473.442 451.818 473.387L449.467 473.16C448.072 473.026 447.343 471.212 448.225 470.071L449.922 467.873C450.253 467.445 450.378 466.865 450.261 466.301L449.654 463.376C449.35 461.909 450.652 460.74 451.921 461.338L454.259 462.442C454.772 462.684 455.349 462.644 455.807 462.334L457.864 460.947Z" fill="#FF92D7"/>
<path d="M372.299 525.844C373.512 525.439 374.621 526.739 374.203 528.077C374.039 528.6 374.109 529.179 374.389 529.633C375.104 530.792 374.342 532.383 373.082 532.351C372.587 532.339 372.116 532.593 371.815 533.034C371.049 534.158 369.467 533.829 369.105 532.48C368.963 531.951 368.6 531.525 368.134 531.342C366.947 530.874 366.727 529.09 367.766 528.284C368.173 527.968 368.422 527.453 368.434 526.9C368.464 525.489 369.919 524.711 370.919 525.564C371.311 525.898 371.825 526.003 372.299 525.844Z" fill="#FDFFB5"/>
<path d="M389.649 806.116C390.61 804.993 392.461 805.617 392.709 807.147L392.907 808.37C393.002 808.958 393.368 809.477 393.886 809.757L395.115 810.422C396.362 811.097 396.471 812.894 395.307 813.595L393.863 814.465C393.422 814.73 393.13 815.192 393.065 815.724L392.865 817.356C392.685 818.832 390.936 819.366 389.903 818.261L389.163 817.468C388.73 817.004 388.106 816.794 387.517 816.913L386.509 817.117C385.102 817.4 383.907 815.873 384.485 814.531L385.123 813.047C385.331 812.563 385.315 811.997 385.078 811.504L384.303 809.886C383.678 808.582 384.655 807.151 386.028 807.359L387.381 807.564C387.951 807.651 388.511 807.445 388.881 807.013L389.649 806.116Z" fill="white"/>
<path d="M585.43 550.298C586.075 548.915 588.048 548.937 588.669 550.333L588.831 550.696C589.069 551.231 589.555 551.616 590.13 551.725L590.789 551.849C592.158 552.109 592.716 553.769 591.78 554.799L591.068 555.581C590.716 555.968 590.553 556.491 590.621 557.01L590.737 557.889C590.931 559.356 589.356 560.402 588.078 559.656L587.85 559.523C587.307 559.206 586.637 559.199 586.088 559.504L585.859 559.631C584.567 560.349 583.012 559.269 583.231 557.807L583.362 556.931C583.439 556.413 583.285 555.887 582.94 555.492L582.242 554.694C581.324 553.644 581.91 551.996 583.284 551.767L583.945 551.657C584.522 551.561 585.015 551.187 585.262 550.657L585.43 550.298Z" fill="#FF92D7"/>
<path d="M595.493 444.943C596.139 443.561 598.112 443.582 598.733 444.979L599.733 447.227C599.971 447.762 600.456 448.146 601.032 448.255L603.545 448.731C604.915 448.99 605.473 450.651 604.536 451.68L602.482 453.938C602.13 454.325 601.967 454.848 602.035 455.367L602.426 458.33C602.62 459.796 601.045 460.842 599.767 460.096L597.872 458.99C597.328 458.673 596.658 458.666 596.11 458.971L594.195 460.035C592.904 460.753 591.348 459.673 591.567 458.211L592.01 455.257C592.087 454.74 591.933 454.214 591.588 453.819L589.574 451.517C588.656 450.467 589.242 448.819 590.616 448.59L593.138 448.169C593.715 448.073 594.207 447.699 594.454 447.169L595.493 444.943Z" fill="#C2A4CD"/>
<path d="M449.786 708.966C450.598 707.957 452.234 708.448 452.487 709.776C452.584 710.287 452.916 710.728 453.376 710.958L453.423 710.981C454.599 711.569 454.747 713.228 453.686 713.916L453.474 714.053C453.062 714.32 452.796 714.768 452.748 715.275L452.714 715.634C452.594 716.9 451.108 717.404 450.198 716.488C449.815 716.102 449.274 715.94 448.771 716.06C447.573 716.344 446.511 715.075 446.973 713.911L447.104 713.582C447.289 713.116 447.259 712.579 447.021 712.117L446.899 711.88C446.286 710.69 447.156 709.336 448.437 709.485L448.488 709.492C448.989 709.55 449.474 709.354 449.786 708.966Z" fill="#FDFFB5"/>
<path d="M451.567 554.727C451.867 553.207 453.747 552.66 454.67 553.824L455.399 554.743C455.754 555.19 456.308 555.42 456.883 555.357L458.242 555.21C459.622 555.06 460.549 556.524 459.881 557.799L459.045 559.396C458.793 559.877 458.757 560.439 458.947 560.928L459.537 562.444C460.068 563.808 458.815 565.282 457.416 564.938L456.432 564.696C455.843 564.551 455.209 564.736 454.758 565.183L454.004 565.932C452.932 566.995 451.196 566.391 451.066 564.91L450.922 563.265C450.875 562.734 450.6 562.262 450.17 561.979L448.745 561.041C447.608 560.292 447.78 558.508 449.05 557.886L450.302 557.273C450.83 557.015 451.215 556.512 451.33 555.928L451.567 554.727Z" fill="white"/>
<path d="M333.103 617.556C333.103 618.917 332.117 620.021 330.901 620.021C329.685 620.021 328.7 618.917 328.7 617.556C328.7 616.194 329.685 615.09 330.901 615.09C332.117 615.09 333.103 616.194 333.103 617.556Z" fill="#D9D9D9"/>
<path d="M197.699 679.801C197.699 681.162 196.713 682.266 195.497 682.266C194.281 682.266 193.295 681.162 193.295 679.801C193.295 678.439 194.281 677.336 195.497 677.336C196.713 677.336 197.699 678.439 197.699 679.801Z" fill="#D9D9D9"/>
<path d="M218.615 492.449C218.615 493.47 217.876 494.298 216.964 494.298C216.052 494.298 215.312 493.47 215.312 492.449C215.312 491.428 216.052 490.6 216.964 490.6C217.876 490.6 218.615 491.428 218.615 492.449Z" fill="#FF92D7"/>
<path d="M75.5043 464.716C75.5043 465.737 74.7651 466.564 73.8531 466.564C72.9411 466.564 72.2018 465.737 72.2018 464.716C72.2018 463.694 72.9411 462.867 73.8531 462.867C74.7651 462.867 75.5043 463.694 75.5043 464.716Z" fill="#FF92D7"/>
<path d="M110.181 571.026C110.181 571.877 109.565 572.566 108.805 572.566C108.045 572.566 107.429 571.877 107.429 571.026C107.429 570.175 108.045 569.485 108.805 569.485C109.565 569.485 110.181 570.175 110.181 571.026Z" fill="#FDFFB5"/>
<path d="M251.09 542.676C251.09 543.527 250.474 544.217 249.714 544.217C248.954 544.217 248.338 543.527 248.338 542.676C248.338 541.825 248.954 541.136 249.714 541.136C250.474 541.136 251.09 541.825 251.09 542.676Z" fill="#FDFFB5"/>
<path d="M133.849 419.726C133.849 421.428 132.617 422.808 131.097 422.808C129.577 422.808 128.345 421.428 128.345 419.726C128.345 418.025 129.577 416.645 131.097 416.645C132.617 416.645 133.849 418.025 133.849 419.726Z" fill="#F7A9A8"/>
<path d="M90.9162 607.079C90.9162 608.1 90.1769 608.928 89.265 608.928C88.353 608.928 87.6137 608.1 87.6137 607.079C87.6137 606.058 88.353 605.23 89.265 605.23C90.1769 605.23 90.9162 606.058 90.9162 607.079Z" fill="#F7A9A8"/>
<path d="M241.888 997.352C243.116 997.963 243.198 999.687 242.036 1000.44L240.661 1001.33C240.197 1001.63 239.896 1002.13 239.845 1002.68L239.712 1004.09C239.571 1005.6 237.735 1006.28 236.673 1005.22L235.973 1004.51C235.541 1004.08 234.914 1003.9 234.313 1004.04L233.217 1004.31C231.82 1004.64 230.641 1003.27 231.171 1001.93L231.841 1000.24C232.031 999.76 232.006 999.223 231.771 998.768L230.944 997.165C230.289 995.898 231.331 994.398 232.751 994.562L233.867 994.691C234.477 994.762 235.085 994.511 235.473 994.028L236.102 993.245C237.055 992.058 238.946 992.512 239.23 993.996L239.496 995.387C239.6 995.927 239.947 996.385 240.436 996.629L241.888 997.352Z" fill="white"/>
<path d="M275.723 1103.67C277.075 1103.73 277.75 1105.37 276.915 1106.56L276.418 1107.27C276.087 1107.74 275.974 1108.34 276.112 1108.89L276.275 1109.53C276.644 1111 275.237 1112.36 273.917 1111.82L273.555 1111.67C273.025 1111.45 272.413 1111.54 271.927 1111.91L271.507 1112.22C270.338 1113.1 268.802 1112.26 268.852 1110.77L268.884 1109.82C268.902 1109.27 268.689 1108.75 268.303 1108.41L267.634 1107.82C266.591 1106.9 267.015 1105.05 268.367 1104.62L268.853 1104.47C269.416 1104.29 269.873 1103.82 270.068 1103.23L270.201 1102.82C270.687 1101.35 272.528 1101.03 273.286 1102.3L273.62 1102.85C273.903 1103.33 274.384 1103.62 274.92 1103.64L275.723 1103.67Z" fill="#FF92D7"/>
<path d="M75.6885 937.709C77.0401 937.768 77.7157 939.403 76.8802 940.594L75.2218 942.959C74.8905 943.431 74.777 944.03 74.9151 944.576L75.5897 947.249C75.9596 948.714 74.5525 950.081 73.2323 949.539L71.1045 948.665C70.5744 948.447 69.9623 948.535 69.4759 948.9L67.4926 950.385C66.3241 951.261 64.7885 950.422 64.8381 948.936L64.9403 945.88C64.9587 945.33 64.7454 944.813 64.3591 944.473L62.2129 942.581C61.1695 941.661 61.5935 939.808 62.9458 939.378L65.2412 938.648C65.8042 938.469 66.2607 938.004 66.4558 937.41L67.239 935.029C67.7249 933.552 69.5663 933.236 70.3239 934.501L71.7057 936.807C71.9885 937.279 72.4694 937.57 73.0053 937.593L75.6885 937.709Z" fill="#F7A9A8"/>
<path d="M148.379 934.851C149.64 935.274 149.913 936.947 148.868 937.843L148.821 937.883C148.434 938.215 148.214 938.704 148.224 939.208L148.229 939.447C148.256 940.732 146.791 941.521 145.799 940.756C145.397 940.445 144.85 940.375 144.364 940.567C143.182 941.031 141.997 939.988 142.326 938.75L142.427 938.37C142.561 937.865 142.474 937.334 142.189 936.915L141.974 936.599C141.274 935.573 142.052 934.127 143.305 934.092C143.82 934.078 144.309 933.795 144.587 933.345C145.272 932.236 146.892 932.393 147.274 933.605L147.345 933.831C147.494 934.306 147.855 934.676 148.322 934.832L148.379 934.851Z" fill="#FDFFB5"/>
<path d="M368.928 858.486C370.259 858.144 371.354 859.608 370.821 861.015L370.28 862.441C370.07 862.994 370.107 863.62 370.378 864.127L371.061 865.404C371.763 866.716 370.809 868.39 369.434 868.255L368.168 868.131C367.626 868.078 367.09 868.322 366.729 868.785L365.872 869.886C364.966 871.05 363.28 870.607 362.975 869.126L362.66 867.601C362.543 867.029 362.19 866.558 361.708 866.328L360.422 865.715C359.173 865.119 359.079 863.182 360.261 862.388L361.38 861.635C361.85 861.319 362.158 860.77 362.207 860.164L362.319 858.746C362.441 857.208 364.08 856.449 365.112 857.453L366.114 858.429C366.513 858.817 367.057 858.967 367.58 858.833L368.928 858.486Z" fill="white"/>
<path d="M373.961 1141.15C375.304 1140.9 376.307 1142.41 375.703 1143.77L375.386 1144.49C375.148 1145.03 375.151 1145.65 375.393 1146.17L375.681 1146.79C376.313 1148.14 375.252 1149.77 373.881 1149.54L373.359 1149.45C372.816 1149.36 372.26 1149.58 371.869 1150.02L371.462 1150.49C370.492 1151.6 368.833 1151.06 368.607 1149.57L368.484 1148.76C368.397 1148.19 368.076 1147.71 367.614 1147.45L366.954 1147.08C365.745 1146.41 365.769 1144.48 366.995 1143.76L367.512 1143.46C368.005 1143.17 368.348 1142.63 368.428 1142.02L368.505 1141.44C368.708 1139.9 370.4 1139.23 371.376 1140.3L371.822 1140.79C372.196 1141.2 372.729 1141.38 373.258 1141.28L373.961 1141.15Z" fill="#FF92D7"/>
<path d="M150.018 1152.71C151.277 1153.23 151.454 1154.95 150.335 1155.79L148.033 1157.5C147.586 1157.83 147.313 1158.35 147.292 1158.9L147.187 1161.65C147.129 1163.17 145.339 1163.97 144.221 1162.98L142.551 1161.5C142.096 1161.09 141.462 1160.96 140.872 1161.15L138.649 1161.84C137.274 1162.27 136.025 1160.98 136.48 1159.61L137.465 1156.64C137.629 1156.14 137.573 1155.61 137.313 1155.17L135.749 1152.53C135.026 1151.31 135.981 1149.74 137.406 1149.8L139.712 1149.91C140.323 1149.94 140.914 1149.65 141.274 1149.14L142.599 1147.27C143.485 1146.02 145.392 1146.34 145.758 1147.81L146.419 1150.45C146.552 1150.98 146.924 1151.42 147.426 1151.63L150.018 1152.71Z" fill="#FF92D7"/>
<path d="M74.9723 1100.93C76.2714 1101.06 76.8528 1102.66 76.001 1103.76L75.9719 1103.8C75.6521 1104.21 75.5258 1104.75 75.6305 1105.25L75.6681 1105.43C75.935 1106.71 74.6594 1107.83 73.5361 1107.31C73.0839 1107.09 72.5429 1107.15 72.106 1107.44C71.0312 1108.17 69.6766 1107.37 69.775 1106.06L69.7978 1105.75C69.8376 1105.22 69.6522 1104.71 69.2919 1104.36L69.0854 1104.16C68.1936 1103.3 68.6659 1101.67 69.8884 1101.35C70.3853 1101.22 70.8053 1100.83 70.9959 1100.33C71.4692 1099.07 73.0808 1098.87 73.6893 1100L73.7749 1100.16C74.0136 1100.6 74.4401 1100.88 74.9279 1100.93L74.9723 1100.93Z" fill="#FDFFB5"/>
<path d="M122.797 1033.69C123.978 1033.09 125.31 1034.26 125.057 1035.69C124.958 1036.25 125.11 1036.83 125.46 1037.26C126.357 1038.34 125.816 1040.08 124.521 1040.25L124.454 1040.26C123.948 1040.33 123.505 1040.66 123.259 1041.15L123.213 1041.24C122.588 1042.49 120.936 1042.38 120.39 1041.05C120.171 1040.53 119.737 1040.14 119.227 1040.03C117.949 1039.74 117.468 1037.97 118.406 1037L118.474 1036.93C118.844 1036.54 119.026 1035.99 118.966 1035.42L118.959 1035.34C118.806 1033.89 120.189 1032.9 121.342 1033.62C121.794 1033.9 122.337 1033.93 122.797 1033.69Z" fill="white"/>
<path d="M3.63091 984.815C4.27626 983.433 6.2495 983.454 6.87058 984.85L7.03199 985.213C7.27007 985.749 7.75564 986.133 8.33087 986.242L8.99011 986.367C10.3596 986.626 10.9173 988.286 9.98077 989.316L9.2691 990.098C8.91714 990.485 8.75371 991.008 8.82223 991.527L8.93817 992.407C9.13166 993.873 7.55721 994.919 6.27876 994.173L6.05138 994.04C5.50796 993.723 4.83831 993.716 4.28945 994.021L4.0598 994.149C2.76856 994.867 1.21265 993.786 1.43173 992.324L1.56305 991.448C1.64062 990.93 1.4863 990.404 1.14117 990.009L0.443299 989.212C-0.475052 988.162 0.111588 986.514 1.4853 986.285L2.14661 986.174C2.72363 986.078 3.21587 985.704 3.46325 985.174L3.63091 984.815Z" fill="#FF92D7"/>
<path d="M181.574 854.193C182.219 852.81 184.192 852.832 184.813 854.228L185.813 856.476C186.051 857.011 186.537 857.396 187.112 857.505L189.626 857.981C190.995 858.24 191.553 859.9 190.617 860.93L188.563 863.188C188.211 863.575 188.047 864.097 188.116 864.617L188.507 867.579C188.7 869.046 187.126 870.092 185.847 869.346L183.952 868.24C183.409 867.923 182.739 867.915 182.19 868.22L180.276 869.285C178.985 870.002 177.429 868.922 177.648 867.46L178.09 864.507C178.168 863.989 178.013 863.463 177.668 863.068L175.654 860.766C174.736 859.716 175.323 858.068 176.696 857.839L179.218 857.418C179.795 857.322 180.287 856.948 180.535 856.418L181.574 854.193Z" fill="#FF92D7"/>
<path d="M249.367 901.004C250.179 899.995 251.815 900.486 252.068 901.814C252.165 902.324 252.497 902.766 252.957 902.995L253.004 903.019C254.18 903.606 254.329 905.266 253.267 905.953L253.055 906.09C252.643 906.357 252.377 906.805 252.329 907.312L252.295 907.671C252.175 908.937 250.689 909.442 249.779 908.525C249.396 908.14 248.856 907.978 248.352 908.097C247.155 908.381 246.093 907.112 246.554 905.949L246.685 905.619C246.87 905.153 246.84 904.616 246.602 904.154L246.48 903.917C245.867 902.728 246.737 901.373 248.018 901.523L248.07 901.529C248.57 901.588 249.055 901.391 249.367 901.004Z" fill="#FDFFB5"/>
<path d="M90.4882 838.87C90.7882 837.35 92.6679 836.802 93.5911 837.966L94.3203 838.885C94.6752 839.333 95.2295 839.562 95.8039 839.5L97.1635 839.352C98.5431 839.202 99.4699 840.667 98.8024 841.941L97.9662 843.538C97.714 844.02 97.6782 844.581 97.8687 845.071L98.4583 846.586C98.9892 847.951 97.7362 849.424 96.3377 849.08L95.353 848.838C94.7646 848.694 94.1304 848.878 93.6794 849.325L92.9249 850.074C91.8531 851.137 90.1177 850.534 89.9878 849.053L89.8433 847.407C89.7967 846.876 89.5211 846.405 89.0913 846.122L87.6664 845.183C86.5289 844.434 86.7013 842.65 87.9713 842.028L89.223 841.416C89.7518 841.157 90.136 840.654 90.2513 840.07L90.4882 838.87Z" fill="white"/>
<path d="M592.585 1227.63C593.231 1226.25 595.204 1226.27 595.825 1227.67L595.986 1228.03C596.224 1228.57 596.71 1228.95 597.285 1229.06L597.945 1229.19C599.314 1229.44 599.872 1231.1 598.935 1232.13L598.224 1232.92C597.872 1233.3 597.708 1233.83 597.777 1234.35L597.893 1235.22C598.086 1236.69 596.512 1237.74 595.233 1236.99L595.006 1236.86C594.462 1236.54 593.793 1236.53 593.244 1236.84L593.014 1236.97C591.723 1237.69 590.167 1236.6 590.386 1235.14L590.517 1234.27C590.595 1233.75 590.441 1233.22 590.096 1232.83L589.398 1232.03C588.479 1230.98 589.066 1229.33 590.44 1229.1L591.101 1228.99C591.678 1228.9 592.17 1228.52 592.418 1227.99L592.585 1227.63Z" fill="#FF92D7"/>
<path d="M592.741 1124.74C593.386 1123.36 595.36 1123.38 595.981 1124.78L596.981 1127.03C597.219 1127.56 597.704 1127.95 598.279 1128.06L600.793 1128.53C602.163 1128.79 602.72 1130.45 601.784 1131.48L599.73 1133.74C599.378 1134.13 599.215 1134.65 599.283 1135.17L599.674 1138.13C599.868 1139.6 598.293 1140.64 597.015 1139.9L595.119 1138.79C594.576 1138.47 593.906 1138.47 593.357 1138.77L591.443 1139.84C590.152 1140.55 588.596 1139.47 588.815 1138.01L589.258 1135.06C589.335 1134.54 589.181 1134.01 588.836 1133.62L586.822 1131.32C585.903 1130.27 586.49 1128.62 587.864 1128.39L590.385 1127.97C590.962 1127.87 591.455 1127.5 591.702 1126.97L592.741 1124.74Z" fill="#F7A9A8"/>
<path d="M474.141 1238.14C474.183 1236.77 475.695 1235.98 476.664 1236.82C477.038 1237.15 477.547 1237.25 478.028 1237.09L478.065 1237.08C479.297 1236.68 480.373 1237.89 479.953 1239.19L479.892 1239.38C479.729 1239.88 479.785 1240.43 480.046 1240.86L480.181 1241.09C480.836 1242.17 480.007 1243.66 478.773 1243.61C478.264 1243.59 477.766 1243.86 477.453 1244.31C476.694 1245.4 475.143 1245.16 474.818 1243.9L474.751 1243.64C474.621 1243.14 474.282 1242.74 473.83 1242.56L473.661 1242.49C472.498 1242.02 472.362 1240.32 473.423 1239.52L473.454 1239.49C473.869 1239.18 474.125 1238.68 474.141 1238.14Z" fill="#FDFFB5"/>
<path d="M279.284 1223.43C279.584 1221.92 281.464 1221.37 282.387 1222.53L283.116 1223.45C283.471 1223.9 284.025 1224.13 284.6 1224.07L285.959 1223.92C287.339 1223.77 288.266 1225.23 287.598 1226.51L286.762 1228.1C286.51 1228.58 286.474 1229.15 286.664 1229.64L287.254 1231.15C287.785 1232.52 286.532 1233.99 285.133 1233.65L284.149 1233.4C283.56 1233.26 282.926 1233.44 282.475 1233.89L281.721 1234.64C280.649 1235.7 278.913 1235.1 278.783 1233.62L278.639 1231.97C278.592 1231.44 278.317 1230.97 277.887 1230.69L276.462 1229.75C275.325 1229 275.497 1227.22 276.767 1226.59L278.019 1225.98C278.548 1225.72 278.932 1225.22 279.047 1224.64L279.284 1223.43Z" fill="white"/>
<path d="M457.864 877.592C459.046 876.794 460.609 877.883 460.492 879.422L460.289 882.101C460.244 882.699 460.466 883.296 460.887 883.704L462.804 885.565C463.845 886.575 463.482 888.4 462.173 888.742L459.561 889.425C459.058 889.557 458.648 889.939 458.451 890.46L457.44 893.136C456.915 894.526 455.14 894.595 454.416 893.253L453.195 890.992C452.901 890.447 452.385 890.087 451.818 890.032L449.467 889.805C448.072 889.671 447.343 887.857 448.225 886.716L449.922 884.518C450.253 884.09 450.378 883.51 450.261 882.946L449.654 880.021C449.35 878.554 450.652 877.384 451.921 877.983L454.259 879.087C454.772 879.329 455.349 879.289 455.807 878.979L457.864 877.592Z" fill="#FF92D7"/>
<path d="M372.299 942.489C373.512 942.083 374.621 943.384 374.203 944.722C374.039 945.244 374.109 945.824 374.389 946.278C375.104 947.436 374.342 949.028 373.082 948.996C372.587 948.984 372.116 949.238 371.815 949.679C371.049 950.803 369.467 950.474 369.105 949.125C368.963 948.596 368.6 948.17 368.134 947.986C366.947 947.519 366.727 945.735 367.766 944.929C368.173 944.613 368.422 944.098 368.434 943.545C368.464 942.134 369.919 941.355 370.919 942.209C371.311 942.543 371.825 942.648 372.299 942.489Z" fill="#FDFFB5"/>
<path d="M389.649 1222.76C390.61 1221.64 392.461 1222.26 392.709 1223.79L392.907 1225.01C393.002 1225.6 393.368 1226.12 393.886 1226.4L395.115 1227.07C396.362 1227.74 396.471 1229.54 395.307 1230.24L393.863 1231.11C393.422 1231.38 393.13 1231.84 393.065 1232.37L392.865 1234C392.685 1235.48 390.936 1236.01 389.903 1234.91L389.163 1234.11C388.73 1233.65 388.106 1233.44 387.517 1233.56L386.508 1233.76C385.102 1234.05 383.907 1232.52 384.485 1231.18L385.123 1229.69C385.331 1229.21 385.315 1228.64 385.078 1228.15L384.303 1226.53C383.678 1225.23 384.655 1223.8 386.028 1224L387.381 1224.21C387.951 1224.3 388.511 1224.09 388.881 1223.66L389.649 1222.76Z" fill="white"/>
<path d="M585.43 966.943C586.075 965.56 588.048 965.582 588.669 966.978L588.831 967.341C589.069 967.876 589.555 968.261 590.13 968.37L590.789 968.494C592.158 968.754 592.716 970.414 591.78 971.444L591.068 972.226C590.716 972.613 590.553 973.136 590.621 973.655L590.737 974.534C590.931 976.001 589.356 977.047 588.078 976.301L587.85 976.168C587.307 975.851 586.637 975.844 586.088 976.149L585.859 976.276C584.567 976.994 583.012 975.914 583.231 974.452L583.362 973.575C583.439 973.058 583.285 972.532 582.94 972.137L582.242 971.339C581.324 970.289 581.91 968.641 583.284 968.412L583.945 968.302C584.522 968.206 585.015 967.832 585.262 967.302L585.43 966.943Z" fill="#FF92D7"/>
<path d="M595.493 861.588C596.138 860.206 598.112 860.227 598.733 861.624L599.733 863.871C599.971 864.407 600.456 864.791 601.032 864.9L603.545 865.376C604.915 865.635 605.473 867.296 604.536 868.325L602.482 870.583C602.13 870.97 601.967 871.493 602.035 872.012L602.426 874.975C602.62 876.441 601.045 877.487 599.767 876.741L597.871 875.635C597.328 875.318 596.658 875.311 596.11 875.616L594.195 876.68C592.904 877.398 591.348 876.318 591.567 874.856L592.01 871.902C592.087 871.385 591.933 870.858 591.588 870.464L589.574 868.161C588.656 867.112 589.242 865.464 590.616 865.234L593.138 864.814C593.715 864.717 594.207 864.344 594.454 863.814L595.493 861.588Z" fill="#FF92D7"/>
<path d="M449.786 1125.61C450.598 1124.6 452.234 1125.09 452.486 1126.42C452.584 1126.93 452.916 1127.37 453.375 1127.6L453.423 1127.63C454.599 1128.21 454.747 1129.87 453.686 1130.56L453.474 1130.7C453.062 1130.96 452.796 1131.41 452.748 1131.92L452.714 1132.28C452.594 1133.54 451.108 1134.05 450.198 1133.13C449.815 1132.75 449.274 1132.59 448.771 1132.7C447.573 1132.99 446.511 1131.72 446.973 1130.56L447.104 1130.23C447.289 1129.76 447.259 1129.22 447.021 1128.76L446.899 1128.52C446.286 1127.33 447.156 1125.98 448.437 1126.13L448.488 1126.14C448.989 1126.19 449.474 1126 449.786 1125.61Z" fill="#FDFFB5"/>
<path d="M451.567 971.372C451.867 969.852 453.747 969.305 454.67 970.469L455.399 971.388C455.754 971.835 456.308 972.065 456.883 972.002L458.242 971.855C459.622 971.705 460.549 973.169 459.881 974.444L459.045 976.04C458.793 976.522 458.757 977.084 458.947 977.573L459.537 979.089C460.068 980.453 458.815 981.927 457.416 981.583L456.432 981.341C455.843 981.196 455.209 981.381 454.758 981.828L454.004 982.576C452.932 983.64 451.196 983.036 451.066 981.555L450.922 979.91C450.875 979.378 450.6 978.907 450.17 978.624L448.745 977.686C447.608 976.937 447.78 975.153 449.05 974.531L450.302 973.918C450.83 973.66 451.215 973.157 451.33 972.572L451.567 971.372Z" fill="white"/>
<path d="M333.103 1034.2C333.103 1035.56 332.117 1036.67 330.901 1036.67C329.685 1036.67 328.7 1035.56 328.7 1034.2C328.7 1032.84 329.685 1031.74 330.901 1031.74C332.117 1031.74 333.103 1032.84 333.103 1034.2Z" fill="#D9D9D9"/>
<path d="M197.699 1096.45C197.699 1097.81 196.713 1098.91 195.497 1098.91C194.281 1098.91 193.295 1097.81 193.295 1096.45C193.295 1095.08 194.281 1093.98 195.497 1093.98C196.713 1093.98 197.699 1095.08 197.699 1096.45Z" fill="#D9D9D9"/>
<path d="M218.615 909.093C218.615 910.115 217.876 910.942 216.964 910.942C216.052 910.942 215.312 910.115 215.312 909.093C215.312 908.072 216.052 907.245 216.964 907.245C217.876 907.245 218.615 908.072 218.615 909.093Z" fill="#FF92D7"/>
<path d="M75.5043 881.36C75.5043 882.382 74.765 883.209 73.8531 883.209C72.9411 883.209 72.2018 882.382 72.2018 881.36C72.2018 880.339 72.9411 879.512 73.8531 879.512C74.765 879.512 75.5043 880.339 75.5043 881.36Z" fill="#FF92D7"/>
<path d="M110.181 987.671C110.181 988.521 109.565 989.211 108.805 989.211C108.045 989.211 107.429 988.521 107.429 987.671C107.429 986.82 108.045 986.13 108.805 986.13C109.565 986.13 110.181 986.82 110.181 987.671Z" fill="#FDFFB5"/>
<path d="M251.09 959.321C251.09 960.172 250.474 960.862 249.714 960.862C248.954 960.862 248.338 960.172 248.338 959.321C248.338 958.47 248.954 957.78 249.714 957.78C250.474 957.78 251.09 958.47 251.09 959.321Z" fill="#FDFFB5"/>
<path d="M133.849 836.371C133.849 838.073 132.617 839.453 131.097 839.453C129.577 839.453 128.345 838.073 128.345 836.371C128.345 834.669 129.577 833.29 131.097 833.29C132.617 833.29 133.849 834.669 133.849 836.371Z" fill="#F7A9A8"/>
<path d="M90.9162 1023.72C90.9162 1024.74 90.1769 1025.57 89.2649 1025.57C88.353 1025.57 87.6137 1024.74 87.6137 1023.72C87.6137 1022.7 88.353 1021.87 89.2649 1021.87C90.1769 1021.87 90.9162 1022.7 90.9162 1023.72Z" fill="#F7A9A8"/>
</g>
</svg>
