<svg width="157" height="46" viewBox="0 0 157 46" fill="none" xmlns="http://www.w3.org/2000/svg">
<path d="M54.2443 35.288C51.8336 35.288 49.7963 34.8293 48.1323 33.912C46.4896 32.9947 45.2416 31.672 44.3883 29.944C43.5349 28.216 43.1083 26.1467 43.1083 23.736C43.1083 21.944 43.3429 20.3333 43.8123 18.904C44.3029 17.4747 45.0069 16.2693 45.9243 15.288C46.8629 14.2853 47.9936 13.5173 49.3163 12.984C50.6603 12.4293 52.1749 12.152 53.8603 12.152C55.2043 12.152 56.5056 12.344 57.7643 12.728C59.0229 13.0907 60.1429 13.6773 61.1243 14.488C61.3803 14.68 61.5403 14.8933 61.6043 15.128C61.6683 15.3627 61.6576 15.5973 61.5723 15.832C61.5083 16.0667 61.3909 16.2693 61.2203 16.44C61.0709 16.5893 60.8683 16.6747 60.6123 16.696C60.3776 16.7173 60.1323 16.6427 59.8763 16.472C59.0016 15.7893 58.0736 15.2987 57.0923 15C56.1109 14.68 55.0229 14.52 53.8283 14.52C52.1216 14.52 50.6709 14.8827 49.4763 15.608C48.3029 16.3333 47.4069 17.3787 46.7883 18.744C46.1909 20.1093 45.8923 21.7733 45.8923 23.736C45.8923 26.7227 46.5856 29.0053 47.9723 30.584C49.3803 32.1627 51.4923 32.952 54.3083 32.952C55.3323 32.952 56.3349 32.856 57.3162 32.664C58.2976 32.4507 59.2256 32.1627 60.1003 31.8L59.5243 33.304V25.336H54.9483C54.5643 25.336 54.2763 25.24 54.0843 25.048C53.8923 24.856 53.7963 24.6 53.7963 24.28C53.7963 23.9387 53.8923 23.6827 54.0843 23.512C54.2763 23.3413 54.5643 23.256 54.9483 23.256H60.6763C61.0389 23.256 61.3163 23.352 61.5083 23.544C61.7003 23.736 61.7963 24.0133 61.7963 24.376V32.728C61.7963 33.048 61.7429 33.3147 61.6363 33.528C61.5296 33.7413 61.3483 33.9013 61.0923 34.008C60.1963 34.3707 59.1189 34.68 57.8603 34.936C56.6229 35.1707 55.4176 35.288 54.2443 35.288ZM73.271 35.288C71.7563 35.288 70.4443 34.9573 69.335 34.296C68.2257 33.6347 67.3617 32.7067 66.743 31.512C66.1457 30.296 65.847 28.8667 65.847 27.224C65.847 25.9867 66.0177 24.8773 66.359 23.896C66.7003 22.8933 67.2017 22.04 67.863 21.336C68.5243 20.632 69.303 20.0987 70.199 19.736C71.1163 19.352 72.1403 19.16 73.271 19.16C74.7857 19.16 76.0977 19.4907 77.207 20.152C78.3163 20.8133 79.1697 21.752 79.767 22.968C80.3857 24.1627 80.695 25.5813 80.695 27.224C80.695 28.4613 80.5243 29.5707 80.183 30.552C79.8417 31.5333 79.3403 32.3867 78.679 33.112C78.0177 33.816 77.2283 34.36 76.311 34.744C75.415 35.1067 74.4017 35.288 73.271 35.288ZM73.271 33.208C74.231 33.208 75.0737 32.9733 75.799 32.504C76.5243 32.0347 77.079 31.352 77.463 30.456C77.8683 29.56 78.071 28.4827 78.071 27.224C78.071 25.2827 77.6337 23.8 76.759 22.776C75.9057 21.752 74.743 21.24 73.271 21.24C72.2897 21.24 71.4363 21.4747 70.711 21.944C70.007 22.392 69.4523 23.064 69.047 23.96C68.663 24.8347 68.471 25.9227 68.471 27.224C68.471 29.144 68.9083 30.6267 69.783 31.672C70.6577 32.696 71.8203 33.208 73.271 33.208ZM100.71 35.288C99.3023 35.288 98.0863 34.9253 97.0623 34.2C96.0596 33.4747 95.3876 32.504 95.0463 31.288L95.3983 30.936V33.88C95.3983 34.3067 95.2809 34.6373 95.0463 34.872C94.8329 35.1067 94.5236 35.224 94.1183 35.224C93.6916 35.224 93.3716 35.1067 93.1583 34.872C92.9449 34.6373 92.8383 34.3067 92.8383 33.88V13.528C92.8383 13.1013 92.9449 12.7813 93.1583 12.568C93.3716 12.3333 93.6916 12.216 94.1183 12.216C94.5236 12.216 94.8436 12.3333 95.0783 12.568C95.3129 12.7813 95.4303 13.1013 95.4303 13.528V23.064H95.0463C95.4089 21.8693 96.0916 20.92 97.0943 20.216C98.0969 19.512 99.3023 19.16 100.71 19.16C102.118 19.16 103.334 19.4907 104.358 20.152C105.382 20.792 106.172 21.72 106.726 22.936C107.302 24.1307 107.59 25.56 107.59 27.224C107.59 28.8667 107.302 30.296 106.726 31.512C106.172 32.7067 105.372 33.6347 104.326 34.296C103.302 34.9573 102.097 35.288 100.71 35.288ZM100.166 33.208C101.148 33.208 101.99 32.9733 102.694 32.504C103.42 32.0347 103.974 31.352 104.358 30.456C104.764 29.56 104.966 28.4827 104.966 27.224C104.966 25.2827 104.529 23.8 103.654 22.776C102.801 21.752 101.638 21.24 100.166 21.24C99.2063 21.24 98.3636 21.4747 97.6383 21.944C96.9129 22.392 96.3476 23.064 95.9423 23.96C95.5583 24.8347 95.3663 25.9227 95.3663 27.224C95.3663 29.144 95.8036 30.6267 96.6783 31.672C97.5529 32.696 98.7156 33.208 100.166 33.208ZM116.391 35.288C115.324 35.288 114.364 35.0853 113.511 34.68C112.679 34.2533 112.017 33.6773 111.527 32.952C111.036 32.2267 110.791 31.416 110.791 30.52C110.791 29.368 111.079 28.4613 111.655 27.8C112.252 27.1387 113.223 26.6693 114.567 26.392C115.932 26.1147 117.788 25.976 120.135 25.976H121.575V27.672H120.167C118.439 27.672 117.073 27.7573 116.071 27.928C115.089 28.0773 114.396 28.344 113.991 28.728C113.607 29.112 113.415 29.656 113.415 30.36C113.415 31.2347 113.713 31.9493 114.311 32.504C114.929 33.0587 115.761 33.336 116.807 33.336C117.66 33.336 118.407 33.1333 119.047 32.728C119.708 32.3227 120.22 31.768 120.583 31.064C120.967 30.36 121.159 29.5493 121.159 28.632V24.984C121.159 23.6613 120.892 22.712 120.359 22.136C119.825 21.5387 118.951 21.24 117.735 21.24C116.988 21.24 116.241 21.336 115.495 21.528C114.748 21.72 113.959 22.0293 113.127 22.456C112.828 22.6053 112.572 22.6587 112.359 22.616C112.145 22.552 111.975 22.4347 111.847 22.264C111.719 22.0933 111.644 21.9013 111.623 21.688C111.601 21.4533 111.644 21.2293 111.751 21.016C111.879 20.8027 112.071 20.632 112.327 20.504C113.265 20.0347 114.193 19.6933 115.111 19.48C116.028 19.2667 116.903 19.16 117.735 19.16C119.079 19.16 120.188 19.384 121.063 19.832C121.937 20.2587 122.588 20.92 123.015 21.816C123.441 22.6907 123.655 23.8213 123.655 25.208V33.88C123.655 34.3067 123.548 34.6373 123.335 34.872C123.143 35.1067 122.855 35.224 122.471 35.224C122.065 35.224 121.756 35.1067 121.543 34.872C121.329 34.6373 121.223 34.3067 121.223 33.88V31.384H121.511C121.34 32.1947 121.009 32.888 120.519 33.464C120.049 34.04 119.463 34.488 118.759 34.808C118.055 35.128 117.265 35.288 116.391 35.288ZM135.055 35.288C133.498 35.288 132.154 34.9467 131.023 34.264C129.893 33.5813 129.018 32.632 128.399 31.416C127.802 30.1787 127.503 28.7493 127.503 27.128C127.503 25.8907 127.674 24.7813 128.015 23.8C128.357 22.8187 128.858 21.9867 129.519 21.304C130.181 20.6 130.97 20.0667 131.887 19.704C132.826 19.3413 133.882 19.16 135.055 19.16C135.823 19.16 136.623 19.2773 137.455 19.512C138.287 19.7467 139.045 20.152 139.727 20.728C139.941 20.8773 140.079 21.0587 140.143 21.272C140.207 21.4853 140.207 21.6987 140.143 21.912C140.079 22.104 139.973 22.2747 139.823 22.424C139.674 22.552 139.482 22.6267 139.247 22.648C139.034 22.6693 138.81 22.5947 138.575 22.424C138.021 21.9973 137.455 21.6987 136.879 21.528C136.303 21.3573 135.749 21.272 135.215 21.272C134.383 21.272 133.658 21.4107 133.039 21.688C132.421 21.944 131.898 22.3173 131.471 22.808C131.045 23.2987 130.714 23.9067 130.479 24.632C130.266 25.3573 130.159 26.2 130.159 27.16C130.159 29.016 130.597 30.488 131.471 31.576C132.346 32.6427 133.594 33.176 135.215 33.176C135.749 33.176 136.293 33.0907 136.847 32.92C137.423 32.7493 137.999 32.4507 138.575 32.024C138.81 31.8533 139.034 31.7787 139.247 31.8C139.461 31.8213 139.642 31.9067 139.791 32.056C139.941 32.184 140.037 32.3547 140.079 32.568C140.143 32.7813 140.143 32.9947 140.079 33.208C140.015 33.4 139.877 33.5707 139.663 33.72C138.981 34.2747 138.234 34.68 137.423 34.936C136.613 35.1707 135.823 35.288 135.055 35.288ZM144.556 35.224C144.129 35.224 143.809 35.1067 143.596 34.872C143.382 34.6373 143.276 34.3067 143.276 33.88V13.528C143.276 13.1013 143.382 12.7813 143.596 12.568C143.809 12.3333 144.129 12.216 144.556 12.216C144.961 12.216 145.281 12.3333 145.516 12.568C145.75 12.7813 145.868 13.1013 145.868 13.528V26.36H145.932L152.492 20.088C152.79 19.8107 153.046 19.5973 153.26 19.448C153.494 19.2987 153.804 19.224 154.188 19.224C154.529 19.224 154.796 19.32 154.988 19.512C155.18 19.6827 155.265 19.9067 155.244 20.184C155.244 20.44 155.116 20.7173 154.86 21.016L147.884 27.64V26.232L155.468 33.368C155.766 33.6667 155.916 33.9547 155.916 34.232C155.916 34.5093 155.809 34.744 155.596 34.936C155.404 35.128 155.148 35.224 154.828 35.224C154.444 35.224 154.134 35.1493 153.9 35C153.665 34.8293 153.377 34.584 153.036 34.264L145.932 27.704H145.868V33.88C145.868 34.776 145.43 35.224 144.556 35.224Z" fill="#4B3B30"/>
<path d="M4.49444 13.8952L21.6786 0.681099C22.3754 0.148982 23.2545 -0.0857643 24.1239 0.0281349C24.9933 0.142034 25.7823 0.595266 26.3184 1.2889C26.5829 1.63395 26.7766 2.02796 26.8886 2.44804C27.0006 2.86812 27.0285 3.30598 26.9708 3.73687C26.913 4.16776 26.7709 4.58308 26.5523 4.95892C26.3338 5.33475 26.043 5.66375 25.697 5.92707L8.51279 19.1412C7.891 19.6083 7.39952 20.2272 7.08524 20.9385C6.76802 21.6866 6.60614 22.491 6.60939 23.3035C6.63572 24.0016 6.82077 24.6846 7.15059 25.3005C7.48041 25.9164 7.94625 26.4493 8.51279 26.8584L25.697 40.0725C26.0426 40.3346 26.333 40.6624 26.5514 41.0371C26.7698 41.4118 26.912 41.8258 26.9698 42.2556C27.0275 42.6854 26.9996 43.1225 26.8878 43.5415C26.776 43.9606 26.5826 44.3535 26.3184 44.6975C26.055 45.0434 25.7259 45.3339 25.3499 45.5524C24.9739 45.7709 24.5585 45.9131 24.1274 45.9708C23.6964 46.0285 23.2582 46.0005 22.838 45.8885C22.4178 45.7766 22.0238 45.5829 21.6786 45.3185L4.49444 32.1044C3.12152 31.0791 2.00238 29.7524 1.22319 28.2266C0.443995 26.7008 0.0255108 25.0165 8.2016e-05 23.3035C-0.00615501 21.5653 0.354239 19.8456 1.05763 18.256C1.81874 16.5369 3.00068 15.0372 4.49444 13.8952Z" fill="#4B3B30"/>
</svg>
