<svg width="1368" height="679" viewBox="0 0 1368 679" fill="none" xmlns="http://www.w3.org/2000/svg">
<g opacity="0.59">
<path d="M184.977 406.441C185.663 405.062 187.599 404.97 188.446 406.275L189.449 407.82C189.787 408.341 190.345 408.679 190.961 408.737L192.551 408.886C194.246 409.044 195.007 411.107 193.809 412.3L193.019 413.086C192.532 413.571 192.333 414.277 192.494 414.951L192.788 416.183C193.162 417.752 191.626 419.076 190.123 418.481L188.221 417.728C187.682 417.514 187.079 417.543 186.568 417.807L184.767 418.737C183.343 419.471 181.658 418.301 181.843 416.706L181.988 415.453C182.067 414.767 181.786 414.085 181.243 413.649L180.364 412.942C179.03 411.87 179.54 409.746 181.207 409.427L182.77 409.128C183.376 409.012 183.891 408.622 184.165 408.072L184.977 406.441Z" fill="white"/>
<path d="M304.404 368.431C304.47 366.912 306.307 366.153 307.645 367.092L308.44 367.65C308.971 368.022 309.643 368.149 310.257 367.994L310.983 367.811C312.629 367.396 314.164 368.976 313.555 370.46L313.388 370.866C313.143 371.462 313.243 372.149 313.652 372.696L314.005 373.168C314.988 374.48 314.047 376.205 312.378 376.15L311.309 376.114C310.691 376.093 310.111 376.333 309.728 376.767L309.066 377.518C308.033 378.69 305.951 378.214 305.468 376.694L305.295 376.148C305.093 375.516 304.571 375.003 303.905 374.784L303.45 374.634C301.79 374.088 301.436 372.02 302.856 371.169L303.482 370.793C304.012 370.476 304.339 369.936 304.365 369.333L304.404 368.431Z" fill="#FF92D7"/>
<path d="M117.982 593.151C118.048 591.633 119.885 590.874 121.223 591.813L123.879 593.676C124.409 594.048 125.082 594.175 125.696 594.02L128.698 593.262C130.344 592.847 131.879 594.428 131.27 595.911L130.288 598.301C130.044 598.897 130.143 599.584 130.552 600.131L132.221 602.359C133.204 603.671 132.262 605.397 130.593 605.341L127.16 605.226C126.542 605.205 125.962 605.445 125.58 605.879L123.454 608.29C122.421 609.462 120.34 608.986 119.857 607.467L119.037 604.888C118.835 604.255 118.313 603.743 117.647 603.523L114.972 602.644C113.312 602.098 112.958 600.029 114.378 599.178L116.969 597.626C117.499 597.308 117.825 596.768 117.852 596.166L117.982 593.151Z" fill="#FF92D7"/>
<path d="M114.772 511.49C115.246 510.074 117.127 509.766 118.132 510.941L118.177 510.993C118.55 511.428 119.099 511.676 119.665 511.664L119.934 511.658C121.377 511.628 122.265 513.274 121.405 514.388C121.056 514.841 120.977 515.454 121.192 516.001C121.714 517.329 120.542 518.66 119.152 518.291L118.724 518.177C118.157 518.026 117.561 518.124 117.09 518.444L116.735 518.686C115.582 519.472 113.958 518.598 113.919 517.191C113.903 516.612 113.586 516.063 113.08 515.75C111.834 514.981 112.011 513.161 113.372 512.732L113.626 512.652C114.16 512.484 114.575 512.079 114.751 511.554L114.772 511.49Z" fill="#FDFFB5"/>
<path d="M28.9944 263.723C28.6105 262.228 30.2549 260.998 31.8352 261.597L33.4368 262.205C34.0576 262.44 34.7607 262.399 35.3306 262.094L36.7644 261.327C38.239 260.538 40.1191 261.611 39.9677 263.155L39.8282 264.577C39.7685 265.186 40.0423 265.788 40.5627 266.194L41.7994 267.157C43.1064 268.174 42.6094 270.069 40.9454 270.412L39.2325 270.765C38.5907 270.897 38.0613 271.293 37.8031 271.834L37.114 273.279C36.4445 274.682 34.2695 274.788 33.3766 273.46L32.5318 272.204C32.1763 271.675 31.5602 271.329 30.879 271.275L29.2864 271.148C27.5585 271.011 26.7055 269.169 27.8333 268.011L28.9299 266.884C29.3659 266.436 29.5342 265.825 29.3834 265.238L28.9944 263.723Z" fill="white"/>
<path d="M346.499 258.069C346.214 256.56 347.912 255.433 349.447 256.113L350.251 256.468C350.856 256.736 351.556 256.733 352.14 256.461L352.834 256.137C354.356 255.427 356.176 256.619 355.923 258.159L355.827 258.746C355.726 259.356 355.965 259.981 356.466 260.419L356.989 260.877C358.233 261.966 357.636 263.83 355.962 264.084L355.049 264.223C354.409 264.32 353.865 264.681 353.576 265.2L353.164 265.941C352.408 267.3 350.239 267.273 349.43 265.895L349.09 265.315C348.765 264.76 348.164 264.375 347.481 264.285L346.824 264.198C345.1 263.97 344.348 262.07 345.548 260.973L346.096 260.472C346.556 260.052 346.761 259.454 346.648 258.86L346.499 258.069Z" fill="#FF92D7"/>
<path d="M359.483 509.649C360.073 508.235 362.004 508.035 362.94 509.292L364.866 511.879C365.24 512.381 365.821 512.688 366.441 512.712L369.525 512.829C371.229 512.894 372.13 514.906 371.018 516.161L369.355 518.038C368.902 518.548 368.753 519.261 368.959 519.923L369.738 522.421C370.219 523.965 368.775 525.369 367.232 524.858L363.896 523.751C363.341 523.567 362.739 523.629 362.246 523.922L359.28 525.679C357.909 526.491 356.144 525.419 356.218 523.818L356.338 521.227C356.37 520.54 356.042 519.876 355.471 519.472L353.372 517.983C351.969 516.988 352.332 514.845 353.975 514.435L356.947 513.692C357.545 513.543 358.032 513.125 358.268 512.561L359.483 509.649Z" fill="#F7A9A8"/>
<path d="M301.326 593.956C301.465 592.497 303.259 591.843 304.501 592.8L304.543 592.833C305.009 593.192 305.614 593.334 306.178 593.217L306.381 593.174C307.819 592.874 309.077 594.307 308.484 595.569C308.245 596.077 308.304 596.685 308.636 597.176C309.453 598.383 308.56 599.905 307.082 599.795L306.74 599.769C306.143 599.724 305.571 599.933 305.179 600.337L304.954 600.569C303.984 601.571 302.154 601.041 301.793 599.667C301.647 599.109 301.214 598.637 300.645 598.423C299.233 597.891 299.012 596.081 300.275 595.397L300.452 595.301C300.948 595.033 301.269 594.554 301.321 594.006L301.326 593.956Z" fill="#FDFFB5"/>
<path d="M225.799 540.23C225.115 538.903 226.436 537.407 228.04 537.691C228.665 537.801 229.321 537.631 229.799 537.237C231.02 536.23 232.972 536.837 233.166 538.293L233.176 538.368C233.252 538.937 233.621 539.434 234.173 539.71L234.276 539.762C235.677 540.464 235.554 542.32 234.066 542.934C233.472 543.179 233.042 543.667 232.914 544.24C232.593 545.676 230.601 546.216 229.51 545.163L229.43 545.086C228.999 544.67 228.372 544.466 227.735 544.533L227.651 544.541C226.021 544.713 224.905 543.159 225.716 541.863C226.033 541.356 226.065 540.746 225.799 540.23Z" fill="white"/>
<path d="M170.894 674.102C169.342 673.377 169.366 671.16 170.934 670.462L171.342 670.281C171.943 670.013 172.375 669.468 172.497 668.822L172.637 668.081C172.929 666.543 174.794 665.916 175.95 666.968L176.829 667.768C177.264 668.163 177.851 668.347 178.434 668.27L179.422 668.139C181.069 667.922 182.244 669.691 181.406 671.127L181.257 671.382C180.901 671.993 180.892 672.745 181.235 673.362L181.379 673.62C182.185 675.07 180.972 676.818 179.329 676.572L178.345 676.425C177.763 676.337 177.172 676.511 176.729 676.899L175.833 677.683C174.654 678.714 172.803 678.055 172.545 676.512L172.421 675.769C172.313 675.121 171.893 674.568 171.298 674.29L170.894 674.102Z" fill="#FF92D7"/>
<path d="M24.1715 474.199C22.6189 473.474 22.6431 471.257 24.2114 470.56L26.7363 469.436C27.3375 469.169 27.7695 468.623 27.8918 467.977L28.4264 465.153C28.7176 463.615 30.5827 462.988 31.7392 464.04L34.2754 466.347C34.71 466.743 35.2971 466.926 35.8804 466.849L39.208 466.41C40.8554 466.193 42.0302 467.962 41.1923 469.398L39.9502 471.527C39.5941 472.138 39.5858 472.89 39.9285 473.507L41.1238 475.657C41.93 477.108 40.7167 478.856 39.0744 478.61L35.7571 478.112C35.1756 478.025 34.5846 478.199 34.1414 478.586L31.5552 480.849C30.3759 481.88 28.5248 481.221 28.2674 479.678L27.7947 476.845C27.6866 476.197 27.2666 475.644 26.6714 475.366L24.1715 474.199Z" fill="#FF92D7"/>
<path d="M76.7524 398.039C75.6194 397.127 76.1706 395.29 77.6624 395.006C78.236 394.896 78.7318 394.523 78.9896 394.007L79.0162 393.954C79.6757 392.633 81.5403 392.466 82.3123 393.658L82.4662 393.896C82.7659 394.359 83.269 394.658 83.8388 394.712L84.2419 394.75C85.6639 394.884 86.2307 396.554 85.2013 397.577C84.7685 398.007 84.5863 398.614 84.7205 399.18C85.0396 400.525 83.614 401.718 82.3074 401.199L81.9369 401.052C81.4134 400.844 80.8102 400.879 80.2914 401.146L80.0252 401.283C78.689 401.971 77.1677 400.994 77.3359 399.555L77.3427 399.497C77.4085 398.935 77.1879 398.39 76.7524 398.039Z" fill="#FDFFB5"/>
<path d="M6.95979 576.525C5.25258 576.188 4.63784 574.077 5.94505 573.039L6.9775 572.22C7.47999 571.822 7.7379 571.199 7.66783 570.554L7.50202 569.026C7.33375 567.476 8.97847 566.435 10.4102 567.185L12.2036 568.124C12.7446 568.408 13.3756 568.448 13.9254 568.234L15.6278 567.572C17.1603 566.975 18.8155 568.383 18.4292 569.954L18.1572 571.06C17.9947 571.721 18.202 572.434 18.7045 572.94L19.5453 573.788C20.7395 574.992 20.0616 576.941 18.3979 577.087L16.5499 577.25C15.953 577.302 15.4239 577.612 15.1059 578.095L14.052 579.695C13.2106 580.973 11.2064 580.78 10.5081 579.353L9.82 577.947C9.52925 577.353 8.96444 576.921 8.30818 576.791L6.95979 576.525Z" fill="white"/>
<path d="M443.642 12.4649C442.09 11.7399 442.114 9.52315 443.682 8.82543L444.09 8.64412C444.691 8.37666 445.123 7.83113 445.245 7.18491L445.385 6.44432C445.676 4.90588 447.542 4.27929 448.698 5.33138L449.577 6.13089C450.012 6.52628 450.599 6.70991 451.182 6.63294L452.169 6.50265C453.817 6.28527 454.992 8.05406 454.154 9.49029L454.005 9.74571C453.649 10.3562 453.64 11.1085 453.983 11.7251L454.127 11.9831C454.933 13.4337 453.719 15.1816 452.077 14.9355L451.093 14.788C450.511 14.7008 449.92 14.8742 449.477 15.2619L448.581 16.0459C447.401 17.0776 445.55 16.4185 445.293 14.8753L445.169 14.1324C445.061 13.4842 444.641 12.9312 444.046 12.6533L443.642 12.4649Z" fill="#FF92D7"/>
<path d="M328.071 12.29C326.518 11.5651 326.543 9.34831 328.111 8.65059L330.636 7.52726C331.237 7.25979 331.669 6.71426 331.791 6.06805L332.326 3.24405C332.617 1.7056 334.482 1.07902 335.639 2.13111L338.175 4.43831C338.609 4.8337 339.196 5.01733 339.78 4.94036L343.107 4.50129C344.755 4.28392 345.93 6.0527 345.092 7.48893L343.85 9.61818C343.493 10.2287 343.485 10.981 343.828 11.5976L345.023 13.7481C345.829 15.1987 344.616 16.9466 342.974 16.7005L339.656 16.2034C339.075 16.1163 338.484 16.2896 338.041 16.6773L335.455 18.9398C334.275 19.9715 332.424 19.3124 332.167 17.7692L331.694 14.9364C331.586 14.2882 331.166 13.7352 330.571 13.4573L328.071 12.29Z" fill="#FF92D7"/>
<path d="M455.449 145.526C453.908 145.48 453.016 143.78 453.963 142.692C454.328 142.272 454.442 141.7 454.268 141.159L454.254 141.118C453.808 139.734 455.158 138.525 456.621 138.997L456.833 139.065C457.403 139.249 458.017 139.185 458.502 138.892L458.753 138.741C459.971 138.005 461.642 138.936 461.592 140.322C461.571 140.895 461.864 141.454 462.37 141.806C463.594 142.658 463.326 144.401 461.914 144.766L461.623 144.841C461.061 144.987 460.613 145.368 460.407 145.876L460.33 146.066C459.799 147.372 457.895 147.525 456.991 146.333L456.964 146.298C456.61 145.832 456.045 145.544 455.449 145.526Z" fill="#FDFFB5"/>
<path d="M438.926 364.431C437.219 364.094 436.604 361.982 437.911 360.945L438.944 360.125C439.446 359.727 439.704 359.104 439.634 358.459L439.468 356.931C439.3 355.382 440.945 354.34 442.377 355.09L444.17 356.03C444.711 356.313 445.342 356.353 445.892 356.139L447.594 355.477C449.127 354.88 450.782 356.288 450.396 357.859L450.124 358.965C449.961 359.626 450.168 360.339 450.671 360.845L451.512 361.693C452.706 362.897 452.028 364.847 450.364 364.993L448.516 365.155C447.919 365.207 447.39 365.517 447.072 366L446.018 367.6C445.177 368.878 443.173 368.685 442.474 367.258L441.786 365.852C441.496 365.258 440.931 364.826 440.275 364.697L438.926 364.431Z" fill="white"/>
<path d="M50.4546 163.812C49.5587 162.484 50.7817 160.729 52.5112 160.86L55.5201 161.088C56.1911 161.139 56.8621 160.888 57.3206 160.416L59.4109 158.263C60.5457 157.094 62.595 157.5 62.9796 158.971L63.7469 161.905C63.8948 162.471 64.3235 162.931 64.9088 163.152L67.9149 164.288C69.4762 164.878 69.5535 166.872 68.0466 167.686L65.5067 169.057C64.8946 169.387 64.4902 169.968 64.4288 170.604L64.1739 173.245C64.0227 174.812 61.9856 175.632 60.7034 174.641L58.2345 172.734C57.7539 172.363 57.1024 172.222 56.469 172.354L53.183 173.035C51.5361 173.377 50.222 171.915 50.8947 170.489L52.134 167.862C52.4058 167.286 52.3608 166.638 52.0132 166.123L50.4546 163.812Z" fill="#F7A9A8"/>
<path d="M123.352 259.936C122.896 258.574 124.356 257.328 125.859 257.798C126.446 257.981 127.098 257.903 127.607 257.588C128.909 256.786 130.696 257.641 130.661 259.057C130.647 259.613 130.932 260.142 131.428 260.48C132.69 261.341 132.321 263.118 130.805 263.525C130.211 263.684 129.732 264.092 129.526 264.615C129.002 265.949 126.997 266.196 126.092 265.029C125.737 264.571 125.159 264.292 124.537 264.279C122.952 264.245 122.078 262.61 123.036 261.486C123.411 261.046 123.53 260.469 123.352 259.936Z" fill="#FDFFB5"/>
<path d="M438.169 240.446C436.908 239.366 437.608 237.287 439.328 237.008L440.7 236.786C441.362 236.679 441.944 236.268 442.259 235.686L443.006 234.305C443.764 232.904 445.782 232.782 446.57 234.09L447.547 235.711C447.845 236.206 448.364 236.535 448.961 236.608L450.794 236.832C452.452 237.035 453.053 239 451.811 240.16L450.92 240.992C450.4 241.478 450.164 242.178 450.297 242.841L450.526 243.973C450.844 245.553 449.129 246.896 447.621 246.247L445.954 245.53C445.411 245.296 444.776 245.315 444.221 245.58L442.404 246.451C440.939 247.153 439.331 246.056 439.565 244.514L439.796 242.994C439.893 242.353 439.661 241.724 439.176 241.308L438.169 240.446Z" fill="white"/>
<path d="M150.819 20.5035C149.266 19.7785 149.29 17.5618 150.859 16.8641L151.266 16.6828C151.867 16.4153 152.299 15.8698 152.422 15.2236L152.562 14.483C152.853 12.9445 154.718 12.3179 155.875 13.37L156.754 14.1695C157.188 14.5649 157.775 14.7486 158.359 14.6716L159.346 14.5413C160.994 14.3239 162.168 16.0927 161.33 17.5289L161.181 17.7844C160.825 18.3948 160.817 19.1472 161.16 19.7638L161.303 20.0217C162.109 21.4723 160.896 23.2202 159.254 22.9741L158.269 22.8266C157.688 22.7395 157.097 22.9128 156.654 23.3005L155.757 24.0845C154.578 25.1162 152.727 24.4572 152.47 22.9139L152.346 22.171C152.238 21.5228 151.818 20.9698 151.222 20.6919L150.819 20.5035Z" fill="#FF92D7"/>
<path d="M32.4786 9.19825C30.9259 8.47327 30.9501 6.25653 32.5184 5.55881L35.0434 4.43547C35.6445 4.16801 36.0765 3.62248 36.1988 2.97626L36.7334 0.152267C37.0246 -1.38618 38.8897 -2.01276 40.0462 -0.960676L42.5824 1.34652C43.017 1.74191 43.6041 1.92555 44.1874 1.84858L47.515 1.40951C49.1624 1.19213 50.3372 2.96092 49.4994 4.39714L48.2572 6.5264C47.9011 7.13688 47.8928 7.8892 48.2355 8.50579L49.4308 10.6563C50.2371 12.1069 49.0238 13.8549 47.3814 13.6087L44.0641 13.1116C43.4826 13.0245 42.8916 13.1978 42.4484 13.5855L39.8622 15.848C38.6829 16.8797 36.8319 16.2206 36.5744 14.6774L36.1017 11.8446C35.9936 11.1964 35.5736 10.6434 34.9784 10.3655L32.4786 9.19825Z" fill="#FF92D7"/>
<path d="M329.044 172.887C327.911 171.975 328.463 170.137 329.954 169.853C330.528 169.744 331.024 169.371 331.282 168.854L331.308 168.801C331.968 167.48 333.832 167.313 334.604 168.506L334.758 168.744C335.058 169.207 335.561 169.506 336.131 169.56L336.534 169.598C337.956 169.732 338.523 171.402 337.493 172.424C337.061 172.854 336.878 173.462 337.013 174.027C337.332 175.373 335.906 176.566 334.599 176.047L334.229 175.9C333.705 175.692 333.102 175.726 332.583 175.993L332.317 176.131C330.981 176.819 329.46 175.841 329.628 174.403L329.635 174.345C329.701 173.782 329.48 173.238 329.044 172.887Z" fill="#FDFFB5"/>
<path d="M155.794 170.886C154.087 170.549 153.472 168.438 154.78 167.4L155.812 166.581C156.315 166.183 156.572 165.56 156.502 164.915L156.337 163.387C156.168 161.837 157.813 160.796 159.245 161.546L161.038 162.485C161.579 162.769 162.21 162.809 162.76 162.595L164.462 161.933C165.995 161.336 167.65 162.744 167.264 164.315L166.992 165.421C166.829 166.082 167.037 166.795 167.539 167.301L168.38 168.149C169.574 169.353 168.896 171.302 167.232 171.449L165.384 171.611C164.788 171.663 164.258 171.973 163.94 172.456L162.887 174.056C162.045 175.334 160.041 175.141 159.343 173.714L158.655 172.308C158.364 171.714 157.799 171.282 157.143 171.152L155.794 170.886Z" fill="white"/>
<path d="M226.367 303.97C227.896 303.97 229.136 305.077 229.136 306.443C229.136 307.809 227.896 308.916 226.367 308.916C224.838 308.916 223.598 307.809 223.598 306.443C223.598 305.077 224.838 303.97 226.367 303.97Z" fill="#D9D9D9"/>
<path d="M296.285 456.084C297.814 456.084 299.054 457.192 299.054 458.558C299.054 459.924 297.814 461.031 296.285 461.031C294.755 461.031 293.516 459.924 293.516 458.558C293.516 457.192 294.755 456.084 296.285 456.084Z" fill="#D9D9D9"/>
<path d="M85.8395 432.587C86.9864 432.587 87.9163 433.417 87.9163 434.442C87.9163 435.466 86.9864 436.297 85.8395 436.297C84.6925 436.297 83.7627 435.466 83.7627 434.442C83.7627 433.417 84.6925 432.587 85.8395 432.587Z" fill="#FF92D7"/>
<path d="M54.6881 593.358C55.835 593.358 56.7648 594.189 56.7648 595.213C56.7648 596.238 55.835 597.068 54.6881 597.068C53.5411 597.068 52.6113 596.238 52.6113 595.213C52.6113 594.189 53.5411 593.358 54.6881 593.358Z" fill="#FF92D7"/>
<path d="M174.102 554.402C175.058 554.402 175.832 555.094 175.832 555.948C175.832 556.802 175.058 557.494 174.102 557.494C173.146 557.494 172.371 556.802 172.371 555.948C172.371 555.094 173.146 554.402 174.102 554.402Z" fill="#FDFFB5"/>
<path d="M142.258 396.104C143.214 396.104 143.989 396.796 143.989 397.65C143.989 398.504 143.214 399.196 142.258 399.196C141.302 399.196 140.528 398.504 140.528 397.65C140.528 396.796 141.302 396.104 142.258 396.104Z" fill="#FDFFB5"/>
<path d="M4.15354 527.813C6.06515 527.813 7.61481 529.197 7.61481 530.905C7.61481 532.612 6.06515 533.996 4.15354 533.996C2.24194 533.996 0.692276 532.612 0.692276 530.905C0.692276 529.197 2.24194 527.813 4.15354 527.813Z" fill="#F7A9A8"/>
<path d="M214.599 576.044C215.746 576.044 216.675 576.875 216.675 577.9C216.675 578.924 215.746 579.755 214.599 579.755C213.452 579.755 212.522 578.924 212.522 577.9C212.522 576.875 213.452 576.044 214.599 576.044Z" fill="#F7A9A8"/>
<path d="M652.977 406.441C653.663 405.062 655.599 404.97 656.446 406.275L657.449 407.82C657.787 408.341 658.345 408.679 658.961 408.737L660.551 408.886C662.246 409.044 663.007 411.107 661.809 412.3L661.019 413.086C660.532 413.571 660.333 414.277 660.494 414.951L660.788 416.183C661.162 417.752 659.626 419.076 658.123 418.481L656.221 417.728C655.682 417.514 655.079 417.543 654.568 417.807L652.767 418.737C651.343 419.471 649.658 418.301 649.843 416.706L649.988 415.453C650.067 414.767 649.786 414.085 649.243 413.649L648.364 412.942C647.03 411.87 647.54 409.746 649.207 409.427L650.77 409.128C651.376 409.012 651.891 408.622 652.165 408.072L652.977 406.441Z" fill="white"/>
<path d="M772.404 368.431C772.47 366.912 774.307 366.153 775.645 367.092L776.44 367.65C776.971 368.022 777.643 368.149 778.257 367.994L778.983 367.811C780.629 367.396 782.164 368.976 781.555 370.46L781.388 370.866C781.143 371.462 781.243 372.149 781.652 372.696L782.005 373.168C782.988 374.48 782.047 376.205 780.378 376.15L779.308 376.114C778.69 376.093 778.111 376.333 777.728 376.767L777.066 377.518C776.033 378.69 773.951 378.214 773.468 376.694L773.295 376.148C773.093 375.516 772.571 375.003 771.905 374.784L771.45 374.634C769.79 374.088 769.436 372.02 770.856 371.169L771.482 370.793C772.012 370.476 772.339 369.936 772.365 369.333L772.404 368.431Z" fill="#FF92D7"/>
<path d="M585.982 593.151C586.048 591.633 587.885 590.874 589.223 591.813L591.879 593.676C592.409 594.048 593.082 594.175 593.696 594.02L596.698 593.262C598.344 592.847 599.879 594.428 599.27 595.911L598.288 598.301C598.044 598.897 598.143 599.584 598.552 600.131L600.221 602.359C601.204 603.671 600.262 605.397 598.593 605.341L595.16 605.226C594.542 605.205 593.962 605.445 593.58 605.879L591.454 608.29C590.421 609.462 588.34 608.986 587.857 607.467L587.037 604.888C586.835 604.255 586.313 603.743 585.647 603.523L582.972 602.644C581.312 602.098 580.958 600.029 582.378 599.178L584.969 597.626C585.499 597.308 585.825 596.768 585.852 596.166L585.982 593.151Z" fill="#FF92D7"/>
<path d="M582.772 511.49C583.246 510.074 585.127 509.766 586.132 510.941L586.178 510.993C586.55 511.428 587.099 511.676 587.665 511.664L587.934 511.658C589.377 511.628 590.265 513.274 589.405 514.388C589.056 514.841 588.977 515.454 589.192 516.001C589.714 517.329 588.542 518.66 587.152 518.291L586.724 518.177C586.157 518.026 585.561 518.124 585.09 518.444L584.735 518.686C583.582 519.472 581.958 518.598 581.919 517.191C581.903 516.612 581.586 516.063 581.08 515.75C579.834 514.981 580.011 513.161 581.372 512.732L581.626 512.652C582.16 512.484 582.575 512.079 582.751 511.554L582.772 511.49Z" fill="#FDFFB5"/>
<path d="M496.994 263.723C496.611 262.228 498.255 260.998 499.835 261.597L501.437 262.205C502.058 262.44 502.761 262.399 503.331 262.094L504.764 261.327C506.239 260.538 508.119 261.611 507.968 263.155L507.828 264.577C507.768 265.186 508.042 265.788 508.563 266.194L509.799 267.157C511.106 268.174 510.609 270.069 508.945 270.412L507.233 270.765C506.591 270.897 506.061 271.293 505.803 271.834L505.114 273.279C504.444 274.682 502.269 274.788 501.377 273.46L500.532 272.204C500.176 271.675 499.56 271.329 498.879 271.275L497.286 271.148C495.558 271.011 494.706 269.169 495.833 268.011L496.93 266.884C497.366 266.436 497.534 265.825 497.383 265.238L496.994 263.723Z" fill="white"/>
<path d="M814.499 258.069C814.214 256.56 815.912 255.433 817.447 256.113L818.251 256.468C818.856 256.736 819.556 256.733 820.14 256.461L820.834 256.137C822.356 255.427 824.176 256.619 823.923 258.159L823.827 258.746C823.726 259.356 823.965 259.981 824.466 260.419L824.989 260.877C826.233 261.966 825.636 263.83 823.962 264.084L823.049 264.223C822.409 264.32 821.865 264.681 821.576 265.2L821.164 265.941C820.408 267.3 818.239 267.273 817.43 265.895L817.09 265.315C816.765 264.76 816.164 264.375 815.481 264.285L814.824 264.198C813.1 263.97 812.348 262.07 813.548 260.973L814.096 260.472C814.556 260.052 814.761 259.454 814.648 258.86L814.499 258.069Z" fill="#FF92D7"/>
<path d="M827.483 509.649C828.073 508.235 830.004 508.035 830.94 509.292L832.866 511.879C833.24 512.381 833.821 512.688 834.441 512.712L837.525 512.829C839.229 512.894 840.13 514.906 839.018 516.161L837.355 518.038C836.902 518.548 836.753 519.261 836.959 519.923L837.738 522.421C838.219 523.965 836.775 525.369 835.232 524.858L831.896 523.751C831.341 523.567 830.739 523.629 830.246 523.922L827.28 525.679C825.909 526.491 824.144 525.419 824.218 523.818L824.338 521.227C824.37 520.54 824.042 519.876 823.471 519.472L821.372 517.983C819.969 516.988 820.332 514.845 821.975 514.435L824.947 513.692C825.545 513.543 826.032 513.125 826.268 512.561L827.483 509.649Z" fill="#C2A4CD"/>
<path d="M769.326 593.956C769.465 592.497 771.259 591.843 772.501 592.8L772.543 592.833C773.009 593.192 773.614 593.334 774.178 593.217L774.381 593.174C775.819 592.874 777.077 594.307 776.483 595.569C776.245 596.077 776.304 596.685 776.636 597.176C777.453 598.383 776.56 599.905 775.082 599.795L774.74 599.769C774.143 599.724 773.571 599.933 773.179 600.337L772.954 600.569C771.984 601.571 770.154 601.041 769.793 599.667C769.647 599.109 769.214 598.637 768.645 598.423C767.233 597.891 767.012 596.081 768.275 595.397L768.452 595.301C768.948 595.033 769.269 594.554 769.321 594.006L769.326 593.956Z" fill="#FDFFB5"/>
<path d="M693.799 540.23C693.115 538.903 694.436 537.407 696.04 537.691C696.665 537.801 697.321 537.631 697.799 537.237C699.02 536.23 700.972 536.837 701.166 538.293L701.176 538.368C701.252 538.937 701.621 539.434 702.173 539.71L702.276 539.762C703.677 540.464 703.554 542.32 702.066 542.934C701.472 543.179 701.042 543.667 700.914 544.24C700.593 545.676 698.601 546.216 697.51 545.163L697.43 545.086C697 544.67 696.372 544.466 695.735 544.533L695.651 544.541C694.021 544.713 692.905 543.159 693.716 541.863C694.033 541.356 694.065 540.746 693.799 540.23Z" fill="white"/>
<path d="M638.894 674.102C637.342 673.377 637.366 671.16 638.934 670.462L639.342 670.281C639.943 670.013 640.375 669.468 640.497 668.822L640.637 668.081C640.929 666.543 642.794 665.916 643.95 666.968L644.829 667.768C645.264 668.163 645.851 668.347 646.434 668.27L647.422 668.139C649.069 667.922 650.244 669.691 649.406 671.127L649.257 671.382C648.901 671.993 648.892 672.745 649.235 673.362L649.379 673.62C650.185 675.07 648.972 676.818 647.329 676.572L646.345 676.425C645.763 676.337 645.172 676.511 644.729 676.899L643.833 677.683C642.654 678.714 640.803 678.055 640.545 676.512L640.421 675.769C640.313 675.121 639.893 674.568 639.298 674.29L638.894 674.102Z" fill="#FF92D7"/>
<path d="M492.172 474.199C490.619 473.474 490.643 471.257 492.211 470.56L494.736 469.436C495.338 469.169 495.77 468.623 495.892 467.977L496.426 465.153C496.718 463.615 498.583 462.988 499.739 464.04L502.275 466.347C502.71 466.743 503.297 466.926 503.88 466.849L507.208 466.41C508.855 466.193 510.03 467.962 509.192 469.398L507.95 471.527C507.594 472.138 507.586 472.89 507.929 473.507L509.124 475.657C509.93 477.108 508.717 478.856 507.074 478.61L503.757 478.112C503.176 478.025 502.585 478.199 502.141 478.586L499.555 480.849C498.376 481.88 496.525 481.221 496.267 479.678L495.795 476.845C495.687 476.197 495.267 475.644 494.671 475.366L492.172 474.199Z" fill="#FF92D7"/>
<path d="M544.752 398.039C543.619 397.127 544.171 395.29 545.662 395.006C546.236 394.896 546.732 394.523 546.99 394.007L547.016 393.954C547.676 392.633 549.54 392.466 550.312 393.658L550.466 393.896C550.766 394.359 551.269 394.658 551.839 394.712L552.242 394.75C553.664 394.884 554.231 396.554 553.201 397.577C552.768 398.007 552.586 398.614 552.721 399.18C553.04 400.525 551.614 401.718 550.307 401.199L549.937 401.052C549.413 400.844 548.81 400.879 548.291 401.146L548.025 401.283C546.689 401.971 545.168 400.994 545.336 399.555L545.343 399.497C545.408 398.935 545.188 398.39 544.752 398.039Z" fill="#FDFFB5"/>
<path d="M474.96 576.525C473.253 576.188 472.638 574.077 473.945 573.039L474.977 572.22C475.48 571.822 475.738 571.199 475.668 570.554L475.502 569.026C475.334 567.476 476.978 566.435 478.41 567.185L480.204 568.124C480.745 568.408 481.376 568.448 481.925 568.234L483.628 567.572C485.16 566.975 486.816 568.383 486.429 569.954L486.157 571.06C485.995 571.721 486.202 572.434 486.704 572.94L487.545 573.788C488.739 574.992 488.062 576.941 486.398 577.087L484.55 577.25C483.953 577.302 483.424 577.612 483.106 578.095L482.052 579.695C481.211 580.973 479.206 580.78 478.508 579.353L477.82 577.947C477.529 577.353 476.964 576.921 476.308 576.791L474.96 576.525Z" fill="white"/>
<path d="M911.642 12.4649C910.09 11.7399 910.114 9.52315 911.682 8.82543L912.09 8.64412C912.691 8.37666 913.123 7.83113 913.245 7.18491L913.385 6.44432C913.676 4.90588 915.542 4.27929 916.698 5.33138L917.577 6.13089C918.012 6.52628 918.599 6.70991 919.182 6.63294L920.169 6.50265C921.817 6.28527 922.992 8.05406 922.154 9.49029L922.005 9.74571C921.649 10.3562 921.64 11.1085 921.983 11.7251L922.126 11.9831C922.933 13.4337 921.719 15.1816 920.077 14.9355L919.093 14.788C918.511 14.7008 917.92 14.8742 917.477 15.2619L916.581 16.0459C915.401 17.0776 913.55 16.4185 913.293 14.8753L913.169 14.1324C913.061 13.4842 912.641 12.9312 912.046 12.6533L911.642 12.4649Z" fill="#FF92D7"/>
<path d="M796.071 12.29C794.518 11.5651 794.543 9.34831 796.111 8.65059L798.636 7.52726C799.237 7.25979 799.669 6.71426 799.791 6.06805L800.326 3.24405C800.617 1.7056 802.482 1.07902 803.639 2.13111L806.175 4.43831C806.609 4.8337 807.196 5.01733 807.78 4.94036L811.107 4.50129C812.755 4.28392 813.93 6.0527 813.092 7.48893L811.85 9.61818C811.493 10.2287 811.485 10.981 811.828 11.5976L813.023 13.7481C813.829 15.1987 812.616 16.9466 810.974 16.7005L807.657 16.2034C807.075 16.1163 806.484 16.2896 806.041 16.6773L803.455 18.9398C802.275 19.9715 800.424 19.3124 800.167 17.7692L799.694 14.9364C799.586 14.2882 799.166 13.7352 798.571 13.4573L796.071 12.29Z" fill="#F7A9A8"/>
<path d="M923.449 145.526C921.908 145.48 921.016 143.78 921.963 142.692C922.329 142.272 922.442 141.7 922.268 141.159L922.254 141.118C921.808 139.734 923.158 138.525 924.621 138.997L924.833 139.065C925.403 139.249 926.017 139.185 926.502 138.892L926.753 138.741C927.971 138.005 929.642 138.936 929.592 140.322C929.571 140.895 929.864 141.454 930.37 141.806C931.594 142.658 931.326 144.401 929.914 144.766L929.623 144.841C929.061 144.987 928.613 145.368 928.407 145.876L928.33 146.066C927.799 147.372 925.895 147.525 924.991 146.333L924.964 146.298C924.61 145.832 924.045 145.544 923.449 145.526Z" fill="#FDFFB5"/>
<path d="M906.926 364.431C905.219 364.094 904.604 361.982 905.911 360.945L906.944 360.125C907.446 359.727 907.704 359.104 907.634 358.459L907.468 356.931C907.3 355.382 908.945 354.34 910.377 355.09L912.17 356.03C912.711 356.313 913.342 356.353 913.892 356.139L915.594 355.477C917.127 354.88 918.782 356.288 918.396 357.859L918.124 358.965C917.961 359.626 918.168 360.339 918.671 360.845L919.512 361.693C920.706 362.897 920.028 364.847 918.364 364.993L916.516 365.155C915.919 365.207 915.39 365.517 915.072 366L914.018 367.6C913.177 368.878 911.173 368.685 910.474 367.258L909.786 365.852C909.496 365.258 908.931 364.826 908.275 364.697L906.926 364.431Z" fill="white"/>
<path d="M518.455 163.812C517.559 162.484 518.782 160.729 520.511 160.86L523.52 161.088C524.191 161.139 524.862 160.888 525.321 160.416L527.411 158.263C528.546 157.094 530.595 157.5 530.98 158.971L531.747 161.905C531.895 162.471 532.324 162.931 532.909 163.152L535.915 164.288C537.476 164.878 537.554 166.872 536.047 167.686L533.507 169.057C532.895 169.387 532.49 169.968 532.429 170.604L532.174 173.245C532.023 174.812 529.986 175.632 528.703 174.641L526.235 172.734C525.754 172.363 525.102 172.222 524.469 172.354L521.183 173.035C519.536 173.377 518.222 171.915 518.895 170.489L520.134 167.862C520.406 167.286 520.361 166.638 520.013 166.123L518.455 163.812Z" fill="#FF92D7"/>
<path d="M591.352 259.936C590.896 258.574 592.356 257.328 593.859 257.798C594.446 257.981 595.098 257.903 595.607 257.588C596.909 256.786 598.696 257.641 598.661 259.057C598.647 259.613 598.932 260.142 599.428 260.48C600.69 261.341 600.321 263.118 598.805 263.525C598.211 263.684 597.732 264.092 597.526 264.615C597.002 265.949 594.997 266.196 594.092 265.029C593.737 264.571 593.159 264.292 592.537 264.279C590.952 264.245 590.078 262.61 591.036 261.486C591.411 261.046 591.53 260.469 591.352 259.936Z" fill="#FDFFB5"/>
<path d="M906.169 240.446C904.908 239.366 905.608 237.287 907.328 237.008L908.7 236.786C909.362 236.679 909.944 236.268 910.259 235.686L911.006 234.305C911.764 232.904 913.782 232.782 914.57 234.09L915.547 235.711C915.845 236.206 916.364 236.535 916.961 236.608L918.794 236.832C920.452 237.035 921.053 239 919.811 240.16L918.92 240.992C918.4 241.478 918.164 242.178 918.297 242.841L918.526 243.973C918.844 245.553 917.129 246.896 915.621 246.247L913.954 245.53C913.411 245.296 912.776 245.315 912.221 245.58L910.404 246.451C908.939 247.153 907.331 246.056 907.565 244.514L907.796 242.994C907.893 242.353 907.661 241.724 907.176 241.308L906.169 240.446Z" fill="white"/>
<path d="M618.819 20.5035C617.266 19.7785 617.29 17.5618 618.859 16.8641L619.266 16.6828C619.867 16.4153 620.299 15.8698 620.422 15.2236L620.562 14.483C620.853 12.9445 622.718 12.3179 623.875 13.37L624.754 14.1695C625.188 14.5649 625.775 14.7486 626.359 14.6716L627.346 14.5413C628.994 14.3239 630.168 16.0927 629.33 17.5289L629.181 17.7844C628.825 18.3948 628.817 19.1472 629.16 19.7638L629.303 20.0217C630.109 21.4723 628.896 23.2202 627.254 22.9741L626.269 22.8266C625.688 22.7395 625.097 22.9128 624.654 23.3005L623.757 24.0845C622.578 25.1162 620.727 24.4572 620.47 22.9139L620.346 22.171C620.238 21.5228 619.818 20.9698 619.222 20.6919L618.819 20.5035Z" fill="#FF92D7"/>
<path d="M500.479 9.19825C498.926 8.47327 498.95 6.25653 500.518 5.55881L503.043 4.43547C503.645 4.16801 504.077 3.62248 504.199 2.97626L504.733 0.152267C505.025 -1.38618 506.89 -2.01276 508.046 -0.960676L510.582 1.34652C511.017 1.74191 511.604 1.92555 512.187 1.84858L515.515 1.40951C517.162 1.19213 518.337 2.96092 517.499 4.39714L516.257 6.5264C515.901 7.13688 515.893 7.8892 516.236 8.50579L517.431 10.6563C518.237 12.1069 517.024 13.8549 515.381 13.6087L512.064 13.1116C511.483 13.0245 510.892 13.1978 510.448 13.5855L507.862 15.848C506.683 16.8797 504.832 16.2206 504.574 14.6774L504.102 11.8446C503.994 11.1964 503.574 10.6434 502.978 10.3655L500.479 9.19825Z" fill="#C2A4CD"/>
<path d="M797.044 172.887C795.912 171.975 796.463 170.137 797.954 169.853C798.528 169.744 799.024 169.371 799.282 168.854L799.308 168.801C799.968 167.48 801.832 167.313 802.604 168.506L802.758 168.744C803.058 169.207 803.561 169.506 804.131 169.56L804.534 169.598C805.956 169.732 806.523 171.402 805.493 172.424C805.061 172.854 804.878 173.462 805.013 174.027C805.332 175.373 803.906 176.566 802.599 176.047L802.229 175.9C801.705 175.692 801.102 175.726 800.584 175.993L800.317 176.131C798.981 176.819 797.46 175.841 797.628 174.403L797.635 174.345C797.701 173.782 797.48 173.238 797.044 172.887Z" fill="#FDFFB5"/>
<path d="M623.794 170.886C622.087 170.549 621.472 168.438 622.78 167.4L623.812 166.581C624.315 166.183 624.572 165.56 624.502 164.915L624.337 163.387C624.168 161.837 625.813 160.796 627.245 161.546L629.038 162.485C629.579 162.769 630.21 162.809 630.76 162.595L632.462 161.933C633.995 161.336 635.65 162.744 635.264 164.315L634.992 165.421C634.829 166.082 635.037 166.795 635.539 167.301L636.38 168.149C637.574 169.353 636.896 171.302 635.232 171.449L633.384 171.611C632.788 171.663 632.258 171.973 631.941 172.456L630.887 174.056C630.045 175.334 628.041 175.141 627.343 173.714L626.655 172.308C626.364 171.714 625.799 171.282 625.143 171.152L623.794 170.886Z" fill="white"/>
<path d="M694.367 303.97C695.896 303.97 697.136 305.077 697.136 306.443C697.136 307.809 695.896 308.916 694.367 308.916C692.838 308.916 691.598 307.809 691.598 306.443C691.598 305.077 692.838 303.97 694.367 303.97Z" fill="#D9D9D9"/>
<path d="M764.285 456.084C765.814 456.084 767.054 457.192 767.054 458.558C767.054 459.924 765.814 461.031 764.285 461.031C762.755 461.031 761.516 459.924 761.516 458.558C761.516 457.192 762.755 456.084 764.285 456.084Z" fill="#D9D9D9"/>
<path d="M553.839 432.587C554.986 432.587 555.916 433.417 555.916 434.442C555.916 435.466 554.986 436.297 553.839 436.297C552.693 436.297 551.763 435.466 551.763 434.442C551.763 433.417 552.693 432.587 553.839 432.587Z" fill="#FF92D7"/>
<path d="M522.688 593.358C523.835 593.358 524.765 594.189 524.765 595.213C524.765 596.238 523.835 597.068 522.688 597.068C521.541 597.068 520.611 596.238 520.611 595.213C520.611 594.189 521.541 593.358 522.688 593.358Z" fill="#FF92D7"/>
<path d="M642.102 554.402C643.058 554.402 643.832 555.094 643.832 555.948C643.832 556.802 643.058 557.494 642.102 557.494C641.146 557.494 640.371 556.802 640.371 555.948C640.371 555.094 641.146 554.402 642.102 554.402Z" fill="#FDFFB5"/>
<path d="M610.258 396.104C611.214 396.104 611.989 396.796 611.989 397.65C611.989 398.504 611.214 399.196 610.258 399.196C609.302 399.196 608.528 398.504 608.528 397.65C608.528 396.796 609.302 396.104 610.258 396.104Z" fill="#FDFFB5"/>
<path d="M472.154 527.813C474.065 527.813 475.615 529.197 475.615 530.905C475.615 532.612 474.065 533.996 472.154 533.996C470.242 533.996 468.692 532.612 468.692 530.905C468.692 529.197 470.242 527.813 472.154 527.813Z" fill="#F7A9A8"/>
<path d="M682.599 576.044C683.746 576.044 684.675 576.875 684.675 577.9C684.675 578.924 683.746 579.755 682.599 579.755C681.452 579.755 680.522 578.924 680.522 577.9C680.522 576.875 681.452 576.044 682.599 576.044Z" fill="#F7A9A8"/>
<path d="M1120.98 406.441C1121.66 405.062 1123.6 404.97 1124.45 406.275L1125.45 407.82C1125.79 408.341 1126.35 408.679 1126.96 408.737L1128.55 408.886C1130.25 409.044 1131.01 411.107 1129.81 412.3L1129.02 413.086C1128.53 413.571 1128.33 414.277 1128.49 414.951L1128.79 416.183C1129.16 417.752 1127.63 419.076 1126.12 418.481L1124.22 417.728C1123.68 417.514 1123.08 417.543 1122.57 417.807L1120.77 418.737C1119.34 419.471 1117.66 418.301 1117.84 416.706L1117.99 415.453C1118.07 414.767 1117.79 414.085 1117.24 413.649L1116.36 412.942C1115.03 411.87 1115.54 409.746 1117.21 409.427L1118.77 409.128C1119.38 409.012 1119.89 408.622 1120.16 408.072L1120.98 406.441Z" fill="white"/>
<path d="M1240.4 368.431C1240.47 366.912 1242.31 366.153 1243.64 367.092L1244.44 367.65C1244.97 368.022 1245.64 368.149 1246.26 367.994L1246.98 367.811C1248.63 367.396 1250.16 368.976 1249.55 370.46L1249.39 370.866C1249.14 371.462 1249.24 372.149 1249.65 372.696L1250.01 373.168C1250.99 374.48 1250.05 376.205 1248.38 376.15L1247.31 376.114C1246.69 376.093 1246.11 376.333 1245.73 376.767L1245.07 377.518C1244.03 378.69 1241.95 378.214 1241.47 376.694L1241.29 376.148C1241.09 375.516 1240.57 375.003 1239.9 374.784L1239.45 374.634C1237.79 374.088 1237.44 372.02 1238.86 371.169L1239.48 370.793C1240.01 370.476 1240.34 369.936 1240.36 369.333L1240.4 368.431Z" fill="#FF92D7"/>
<path d="M1053.98 593.151C1054.05 591.633 1055.88 590.874 1057.22 591.813L1059.88 593.676C1060.41 594.048 1061.08 594.175 1061.7 594.02L1064.7 593.262C1066.34 592.847 1067.88 594.428 1067.27 595.911L1066.29 598.301C1066.04 598.897 1066.14 599.584 1066.55 600.131L1068.22 602.359C1069.2 603.671 1068.26 605.397 1066.59 605.341L1063.16 605.226C1062.54 605.205 1061.96 605.445 1061.58 605.879L1059.45 608.29C1058.42 609.462 1056.34 608.986 1055.86 607.467L1055.04 604.888C1054.84 604.255 1054.31 603.743 1053.65 603.523L1050.97 602.644C1049.31 602.098 1048.96 600.029 1050.38 599.178L1052.97 597.626C1053.5 597.308 1053.83 596.768 1053.85 596.166L1053.98 593.151Z" fill="#F7A9A8"/>
<path d="M1050.77 511.49C1051.25 510.074 1053.13 509.766 1054.13 510.941L1054.18 510.993C1054.55 511.428 1055.1 511.676 1055.67 511.664L1055.93 511.658C1057.38 511.628 1058.26 513.274 1057.4 514.388C1057.06 514.841 1056.98 515.454 1057.19 516.001C1057.71 517.329 1056.54 518.66 1055.15 518.291L1054.72 518.177C1054.16 518.026 1053.56 518.124 1053.09 518.444L1052.74 518.686C1051.58 519.472 1049.96 518.598 1049.92 517.191C1049.9 516.612 1049.59 516.063 1049.08 515.75C1047.83 514.981 1048.01 513.161 1049.37 512.732L1049.63 512.652C1050.16 512.484 1050.57 512.079 1050.75 511.554L1050.77 511.49Z" fill="#FDFFB5"/>
<path d="M964.994 263.723C964.61 262.228 966.255 260.998 967.835 261.597L969.437 262.205C970.058 262.44 970.761 262.399 971.331 262.094L972.764 261.327C974.239 260.538 976.119 261.611 975.968 263.155L975.828 264.577C975.768 265.186 976.042 265.788 976.563 266.194L977.799 267.157C979.106 268.174 978.609 270.069 976.945 270.412L975.232 270.765C974.591 270.897 974.061 271.293 973.803 271.834L973.114 273.279C972.444 274.682 970.269 274.788 969.377 273.46L968.532 272.204C968.176 271.675 967.56 271.329 966.879 271.275L965.286 271.148C963.558 271.011 962.705 269.169 963.833 268.011L964.93 266.884C965.366 266.436 965.534 265.825 965.383 265.238L964.994 263.723Z" fill="white"/>
<path d="M1282.5 258.069C1282.21 256.56 1283.91 255.433 1285.45 256.113L1286.25 256.468C1286.86 256.736 1287.56 256.733 1288.14 256.461L1288.83 256.137C1290.36 255.427 1292.18 256.619 1291.92 258.159L1291.83 258.746C1291.73 259.356 1291.97 259.981 1292.47 260.419L1292.99 260.877C1294.23 261.966 1293.64 263.83 1291.96 264.084L1291.05 264.223C1290.41 264.32 1289.86 264.681 1289.58 265.2L1289.16 265.941C1288.41 267.3 1286.24 267.273 1285.43 265.895L1285.09 265.315C1284.76 264.76 1284.16 264.375 1283.48 264.285L1282.82 264.198C1281.1 263.97 1280.35 262.07 1281.55 260.973L1282.1 260.472C1282.56 260.052 1282.76 259.454 1282.65 258.86L1282.5 258.069Z" fill="#FF92D7"/>
<path d="M1295.48 509.649C1296.07 508.235 1298 508.035 1298.94 509.292L1300.87 511.879C1301.24 512.381 1301.82 512.688 1302.44 512.712L1305.53 512.829C1307.23 512.894 1308.13 514.906 1307.02 516.161L1305.35 518.038C1304.9 518.548 1304.75 519.261 1304.96 519.923L1305.74 522.421C1306.22 523.965 1304.77 525.369 1303.23 524.858L1299.9 523.751C1299.34 523.567 1298.74 523.629 1298.25 523.922L1295.28 525.679C1293.91 526.491 1292.14 525.419 1292.22 523.818L1292.34 521.227C1292.37 520.54 1292.04 519.876 1291.47 519.472L1289.37 517.983C1287.97 516.988 1288.33 514.845 1289.97 514.435L1292.95 513.692C1293.54 513.543 1294.03 513.125 1294.27 512.561L1295.48 509.649Z" fill="#FF92D7"/>
<path d="M1237.33 593.956C1237.47 592.497 1239.26 591.843 1240.5 592.8L1240.54 592.833C1241.01 593.192 1241.61 593.334 1242.18 593.217L1242.38 593.174C1243.82 592.874 1245.08 594.307 1244.48 595.569C1244.24 596.077 1244.3 596.685 1244.64 597.176C1245.45 598.383 1244.56 599.905 1243.08 599.795L1242.74 599.769C1242.14 599.724 1241.57 599.933 1241.18 600.337L1240.95 600.569C1239.98 601.571 1238.15 601.041 1237.79 599.667C1237.65 599.109 1237.21 598.637 1236.65 598.423C1235.23 597.891 1235.01 596.081 1236.27 595.397L1236.45 595.301C1236.95 595.033 1237.27 594.554 1237.32 594.006L1237.33 593.956Z" fill="#FDFFB5"/>
<path d="M1161.8 540.23C1161.12 538.903 1162.44 537.407 1164.04 537.691C1164.66 537.801 1165.32 537.631 1165.8 537.237C1167.02 536.23 1168.97 536.837 1169.17 538.293L1169.18 538.368C1169.25 538.937 1169.62 539.434 1170.17 539.71L1170.28 539.762C1171.68 540.464 1171.55 542.32 1170.07 542.934C1169.47 543.179 1169.04 543.667 1168.91 544.24C1168.59 545.676 1166.6 546.216 1165.51 545.163L1165.43 545.086C1165 544.67 1164.37 544.466 1163.74 544.533L1163.65 544.541C1162.02 544.713 1160.9 543.159 1161.72 541.863C1162.03 541.356 1162.07 540.746 1161.8 540.23Z" fill="white"/>
<path d="M1106.89 674.102C1105.34 673.377 1105.37 671.16 1106.93 670.462L1107.34 670.281C1107.94 670.013 1108.37 669.468 1108.5 668.822L1108.64 668.081C1108.93 666.543 1110.79 665.916 1111.95 666.968L1112.83 667.768C1113.26 668.163 1113.85 668.347 1114.43 668.27L1115.42 668.139C1117.07 667.922 1118.24 669.691 1117.41 671.127L1117.26 671.382C1116.9 671.993 1116.89 672.745 1117.24 673.362L1117.38 673.62C1118.18 675.07 1116.97 676.818 1115.33 676.572L1114.34 676.425C1113.76 676.337 1113.17 676.511 1112.73 676.899L1111.83 677.683C1110.65 678.714 1108.8 678.055 1108.55 676.512L1108.42 675.769C1108.31 675.121 1107.89 674.568 1107.3 674.29L1106.89 674.102Z" fill="#FF92D7"/>
<path d="M960.172 474.199C958.619 473.474 958.643 471.257 960.211 470.56L962.736 469.436C963.337 469.169 963.769 468.623 963.892 467.977L964.426 465.153C964.718 463.615 966.583 462.988 967.739 464.04L970.275 466.347C970.71 466.743 971.297 466.926 971.88 466.849L975.208 466.41C976.855 466.193 978.03 467.962 977.192 469.398L975.95 471.527C975.594 472.138 975.586 472.89 975.928 473.507L977.124 475.657C977.93 477.108 976.717 478.856 975.074 478.61L971.757 478.112C971.176 478.025 970.585 478.199 970.141 478.586L967.555 480.849C966.376 481.88 964.525 481.221 964.267 479.678L963.795 476.845C963.687 476.197 963.267 475.644 962.671 475.366L960.172 474.199Z" fill="#FF92D7"/>
<path d="M1012.75 398.039C1011.62 397.127 1012.17 395.29 1013.66 395.006C1014.24 394.896 1014.73 394.523 1014.99 394.007L1015.02 393.954C1015.68 392.633 1017.54 392.466 1018.31 393.658L1018.47 393.896C1018.77 394.359 1019.27 394.658 1019.84 394.712L1020.24 394.75C1021.66 394.884 1022.23 396.554 1021.2 397.577C1020.77 398.007 1020.59 398.614 1020.72 399.18C1021.04 400.525 1019.61 401.718 1018.31 401.199L1017.94 401.052C1017.41 400.844 1016.81 400.879 1016.29 401.146L1016.03 401.283C1014.69 401.971 1013.17 400.994 1013.34 399.555L1013.34 399.497C1013.41 398.935 1013.19 398.39 1012.75 398.039Z" fill="#FDFFB5"/>
<path d="M942.96 576.525C941.253 576.188 940.638 574.077 941.945 573.039L942.977 572.22C943.48 571.822 943.738 571.199 943.668 570.554L943.502 569.026C943.334 567.476 944.978 566.435 946.41 567.185L948.204 568.124C948.745 568.408 949.376 568.448 949.925 568.234L951.628 567.572C953.16 566.975 954.816 568.383 954.429 569.954L954.157 571.06C953.995 571.721 954.202 572.434 954.704 572.94L955.545 573.788C956.739 574.992 956.062 576.941 954.398 577.087L952.55 577.25C951.953 577.302 951.424 577.612 951.106 578.095L950.052 579.695C949.211 580.973 947.206 580.78 946.508 579.353L945.82 577.947C945.529 577.353 944.964 576.921 944.308 576.791L942.96 576.525Z" fill="white"/>
<path d="M1379.64 12.4649C1378.09 11.7399 1378.11 9.52315 1379.68 8.82543L1380.09 8.64412C1380.69 8.37666 1381.12 7.83113 1381.25 7.18491L1381.39 6.44432C1381.68 4.90588 1383.54 4.27929 1384.7 5.33138L1385.58 6.13089C1386.01 6.52628 1386.6 6.70991 1387.18 6.63294L1388.17 6.50265C1389.82 6.28527 1390.99 8.05406 1390.15 9.49029L1390 9.74571C1389.65 10.3562 1389.64 11.1085 1389.98 11.7251L1390.13 11.9831C1390.93 13.4337 1389.72 15.1816 1388.08 14.9355L1387.09 14.788C1386.51 14.7008 1385.92 14.8742 1385.48 15.2619L1384.58 16.0459C1383.4 17.0776 1381.55 16.4185 1381.29 14.8753L1381.17 14.1324C1381.06 13.4842 1380.64 12.9312 1380.05 12.6533L1379.64 12.4649Z" fill="#FF92D7"/>
<path d="M1264.07 12.29C1262.52 11.5651 1262.54 9.34831 1264.11 8.65059L1266.64 7.52726C1267.24 7.25979 1267.67 6.71426 1267.79 6.06805L1268.33 3.24405C1268.62 1.7056 1270.48 1.07902 1271.64 2.13111L1274.17 4.43831C1274.61 4.8337 1275.2 5.01733 1275.78 4.94036L1279.11 4.50129C1280.75 4.28392 1281.93 6.0527 1281.09 7.48893L1279.85 9.61818C1279.49 10.2287 1279.49 10.981 1279.83 11.5976L1281.02 13.7481C1281.83 15.1987 1280.62 16.9466 1278.97 16.7005L1275.66 16.2034C1275.07 16.1163 1274.48 16.2896 1274.04 16.6773L1271.45 18.9398C1270.28 19.9715 1268.42 19.3124 1268.17 17.7692L1267.69 14.9364C1267.59 14.2882 1267.17 13.7352 1266.57 13.4573L1264.07 12.29Z" fill="#F7A9A8"/>
<path d="M1391.45 145.526C1389.91 145.48 1389.02 143.78 1389.96 142.692C1390.33 142.272 1390.44 141.7 1390.27 141.159L1390.25 141.118C1389.81 139.734 1391.16 138.525 1392.62 138.997L1392.83 139.065C1393.4 139.249 1394.02 139.185 1394.5 138.892L1394.75 138.741C1395.97 138.005 1397.64 138.936 1397.59 140.322C1397.57 140.895 1397.86 141.454 1398.37 141.806C1399.59 142.658 1399.33 144.401 1397.91 144.766L1397.62 144.841C1397.06 144.987 1396.61 145.368 1396.41 145.876L1396.33 146.066C1395.8 147.372 1393.9 147.525 1392.99 146.333L1392.96 146.298C1392.61 145.832 1392.04 145.544 1391.45 145.526Z" fill="#FDFFB5"/>
<path d="M1374.93 364.431C1373.22 364.094 1372.6 361.982 1373.91 360.945L1374.94 360.125C1375.45 359.727 1375.7 359.104 1375.63 358.459L1375.47 356.931C1375.3 355.382 1376.94 354.34 1378.38 355.09L1380.17 356.03C1380.71 356.313 1381.34 356.353 1381.89 356.139L1383.59 355.477C1385.13 354.88 1386.78 356.288 1386.4 357.859L1386.12 358.965C1385.96 359.626 1386.17 360.339 1386.67 360.845L1387.51 361.693C1388.71 362.897 1388.03 364.847 1386.36 364.993L1384.52 365.155C1383.92 365.207 1383.39 365.517 1383.07 366L1382.02 367.6C1381.18 368.878 1379.17 368.685 1378.47 367.258L1377.79 365.852C1377.5 365.258 1376.93 364.826 1376.27 364.697L1374.93 364.431Z" fill="white"/>
<path d="M986.455 163.812C985.559 162.484 986.782 160.729 988.511 160.86L991.52 161.088C992.191 161.139 992.862 160.888 993.321 160.416L995.411 158.263C996.546 157.094 998.595 157.5 998.98 158.971L999.747 161.905C999.895 162.471 1000.32 162.931 1000.91 163.152L1003.91 164.288C1005.48 164.878 1005.55 166.872 1004.05 167.686L1001.51 169.057C1000.89 169.387 1000.49 169.968 1000.43 170.604L1000.17 173.245C1000.02 174.812 997.986 175.632 996.703 174.641L994.235 172.734C993.754 172.363 993.102 172.222 992.469 172.354L989.183 173.035C987.536 173.377 986.222 171.915 986.895 170.489L988.134 167.862C988.406 167.286 988.361 166.638 988.013 166.123L986.455 163.812Z" fill="#FF92D7"/>
<path d="M1059.35 259.936C1058.9 258.574 1060.36 257.328 1061.86 257.798C1062.45 257.981 1063.1 257.903 1063.61 257.588C1064.91 256.786 1066.7 257.641 1066.66 259.057C1066.65 259.613 1066.93 260.142 1067.43 260.48C1068.69 261.341 1068.32 263.118 1066.81 263.525C1066.21 263.684 1065.73 264.092 1065.53 264.615C1065 265.949 1063 266.196 1062.09 265.029C1061.74 264.571 1061.16 264.292 1060.54 264.279C1058.95 264.245 1058.08 262.61 1059.04 261.486C1059.41 261.046 1059.53 260.469 1059.35 259.936Z" fill="#FDFFB5"/>
<path d="M1374.17 240.446C1372.91 239.366 1373.61 237.287 1375.33 237.008L1376.7 236.786C1377.36 236.679 1377.94 236.268 1378.26 235.686L1379.01 234.305C1379.76 232.904 1381.78 232.782 1382.57 234.09L1383.55 235.711C1383.85 236.206 1384.36 236.535 1384.96 236.608L1386.79 236.832C1388.45 237.035 1389.05 239 1387.81 240.16L1386.92 240.992C1386.4 241.478 1386.16 242.178 1386.3 242.841L1386.53 243.973C1386.84 245.553 1385.13 246.896 1383.62 246.247L1381.95 245.53C1381.41 245.296 1380.78 245.315 1380.22 245.58L1378.4 246.451C1376.94 247.153 1375.33 246.056 1375.57 244.514L1375.8 242.994C1375.89 242.353 1375.66 241.724 1375.18 241.308L1374.17 240.446Z" fill="white"/>
<path d="M1086.82 20.5035C1085.27 19.7785 1085.29 17.5618 1086.86 16.8641L1087.27 16.6828C1087.87 16.4153 1088.3 15.8698 1088.42 15.2236L1088.56 14.483C1088.85 12.9445 1090.72 12.3179 1091.87 13.37L1092.75 14.1695C1093.19 14.5649 1093.78 14.7486 1094.36 14.6716L1095.35 14.5413C1096.99 14.3239 1098.17 16.0927 1097.33 17.5289L1097.18 17.7844C1096.83 18.3948 1096.82 19.1472 1097.16 19.7638L1097.3 20.0217C1098.11 21.4723 1096.9 23.2202 1095.25 22.9741L1094.27 22.8266C1093.69 22.7395 1093.1 22.9128 1092.65 23.3005L1091.76 24.0845C1090.58 25.1162 1088.73 24.4572 1088.47 22.9139L1088.35 22.171C1088.24 21.5228 1087.82 20.9698 1087.22 20.6919L1086.82 20.5035Z" fill="#FF92D7"/>
<path d="M968.479 9.19825C966.926 8.47327 966.95 6.25653 968.518 5.55881L971.043 4.43547C971.645 4.16801 972.076 3.62248 972.199 2.97626L972.733 0.152267C973.025 -1.38618 974.89 -2.01276 976.046 -0.960676L978.582 1.34652C979.017 1.74191 979.604 1.92555 980.187 1.84858L983.515 1.40951C985.162 1.19213 986.337 2.96092 985.499 4.39714L984.257 6.5264C983.901 7.13688 983.893 7.8892 984.235 8.50579L985.431 10.6563C986.237 12.1069 985.024 13.8549 983.381 13.6087L980.064 13.1116C979.483 13.0245 978.892 13.1978 978.448 13.5855L975.862 15.848C974.683 16.8797 972.832 16.2206 972.574 14.6774L972.102 11.8446C971.994 11.1964 971.574 10.6434 970.978 10.3655L968.479 9.19825Z" fill="#FF92D7"/>
<path d="M1265.04 172.887C1263.91 171.975 1264.46 170.137 1265.95 169.853C1266.53 169.744 1267.02 169.371 1267.28 168.854L1267.31 168.801C1267.97 167.48 1269.83 167.313 1270.6 168.506L1270.76 168.744C1271.06 169.207 1271.56 169.506 1272.13 169.56L1272.53 169.598C1273.96 169.732 1274.52 171.402 1273.49 172.424C1273.06 172.854 1272.88 173.462 1273.01 174.027C1273.33 175.373 1271.91 176.566 1270.6 176.047L1270.23 175.9C1269.71 175.692 1269.1 175.726 1268.58 175.993L1268.32 176.131C1266.98 176.819 1265.46 175.841 1265.63 174.403L1265.63 174.345C1265.7 173.782 1265.48 173.238 1265.04 172.887Z" fill="#FDFFB5"/>
<path d="M1091.79 170.886C1090.09 170.549 1089.47 168.438 1090.78 167.4L1091.81 166.581C1092.31 166.183 1092.57 165.56 1092.5 164.915L1092.34 163.387C1092.17 161.837 1093.81 160.796 1095.24 161.546L1097.04 162.485C1097.58 162.769 1098.21 162.809 1098.76 162.595L1100.46 161.933C1101.99 161.336 1103.65 162.744 1103.26 164.315L1102.99 165.421C1102.83 166.082 1103.04 166.795 1103.54 167.301L1104.38 168.149C1105.57 169.353 1104.9 171.302 1103.23 171.449L1101.38 171.611C1100.79 171.663 1100.26 171.973 1099.94 172.456L1098.89 174.056C1098.05 175.334 1096.04 175.141 1095.34 173.714L1094.65 172.308C1094.36 171.714 1093.8 171.282 1093.14 171.152L1091.79 170.886Z" fill="white"/>
<path d="M1162.37 303.97C1163.9 303.97 1165.14 305.077 1165.14 306.443C1165.14 307.809 1163.9 308.916 1162.37 308.916C1160.84 308.916 1159.6 307.809 1159.6 306.443C1159.6 305.077 1160.84 303.97 1162.37 303.97Z" fill="#D9D9D9"/>
<path d="M1232.28 456.084C1233.81 456.084 1235.05 457.192 1235.05 458.558C1235.05 459.924 1233.81 461.031 1232.28 461.031C1230.76 461.031 1229.52 459.924 1229.52 458.558C1229.52 457.192 1230.76 456.084 1232.28 456.084Z" fill="#D9D9D9"/>
<path d="M1021.84 432.587C1022.99 432.587 1023.92 433.417 1023.92 434.442C1023.92 435.466 1022.99 436.297 1021.84 436.297C1020.69 436.297 1019.76 435.466 1019.76 434.442C1019.76 433.417 1020.69 432.587 1021.84 432.587Z" fill="#FF92D7"/>
<path d="M990.688 593.358C991.835 593.358 992.765 594.189 992.765 595.213C992.765 596.238 991.835 597.068 990.688 597.068C989.541 597.068 988.611 596.238 988.611 595.213C988.611 594.189 989.541 593.358 990.688 593.358Z" fill="#FF92D7"/>
<path d="M1110.1 554.402C1111.06 554.402 1111.83 555.094 1111.83 555.948C1111.83 556.802 1111.06 557.494 1110.1 557.494C1109.15 557.494 1108.37 556.802 1108.37 555.948C1108.37 555.094 1109.15 554.402 1110.1 554.402Z" fill="#FDFFB5"/>
<path d="M1078.26 396.104C1079.21 396.104 1079.99 396.796 1079.99 397.65C1079.99 398.504 1079.21 399.196 1078.26 399.196C1077.3 399.196 1076.53 398.504 1076.53 397.65C1076.53 396.796 1077.3 396.104 1078.26 396.104Z" fill="#FDFFB5"/>
<path d="M940.154 527.813C942.065 527.813 943.615 529.197 943.615 530.905C943.615 532.612 942.065 533.996 940.154 533.996C938.242 533.996 936.692 532.612 936.692 530.905C936.692 529.197 938.242 527.813 940.154 527.813Z" fill="#F7A9A8"/>
<path d="M1150.6 576.044C1151.75 576.044 1152.68 576.875 1152.68 577.9C1152.68 578.924 1151.75 579.755 1150.6 579.755C1149.45 579.755 1148.52 578.924 1148.52 577.9C1148.52 576.875 1149.45 576.044 1150.6 576.044Z" fill="#F7A9A8"/>
</g>
</svg>
