<svg width="1398" height="217" viewBox="0 0 1398 217" fill="none" xmlns="http://www.w3.org/2000/svg">
<g filter="url(#filter0_d_2114_465)">
<path d="M471.271 180.761L318.567 180.506L267.5 96.5L318.837 11L471.54 11.2555L471.271 180.761Z" fill="#DBAB9E"/>
<path d="M431.729 177.682C431.747 166.48 440.614 157.413 451.534 157.431C462.455 157.449 471.293 166.546 471.275 177.749C471.258 188.951 462.39 198.018 451.47 198C440.55 197.982 431.711 188.885 431.729 177.682Z" fill="#DBAB9E"/>
<path d="M394.924 177.621C394.942 166.418 403.809 157.351 414.729 157.37C425.649 157.388 434.488 166.484 434.47 177.687C434.452 188.89 425.585 197.957 414.665 197.938C403.744 197.92 394.906 188.824 394.924 177.621Z" fill="#DBAB9E"/>
<path d="M355.377 177.555C355.395 166.352 364.262 157.285 375.183 157.303C386.103 157.322 394.942 166.418 394.924 177.621C394.906 188.824 386.039 197.891 375.118 197.872C364.198 197.854 355.36 188.757 355.377 177.555Z" fill="#DBAB9E"/>
<path d="M318.572 177.493C318.59 166.29 327.457 157.223 338.377 157.242C349.298 157.26 358.136 166.357 358.118 177.559C358.1 188.762 349.233 197.829 338.313 197.811C327.393 197.792 318.554 188.696 318.572 177.493Z" fill="#DBAB9E"/>
<path d="M167.703 180.761L15 180.506L15.2697 11L167.973 11.2555L167.703 180.761Z" fill="#DBAB9E"/>
<path d="M128.162 177.682C128.18 166.48 137.047 157.413 147.967 157.431C158.888 157.449 167.726 166.546 167.708 177.749C167.69 188.951 158.823 198.018 147.903 198C136.982 197.982 128.144 188.885 128.162 177.682Z" fill="#DBAB9E"/>
<path d="M91.3564 177.621C91.3742 166.418 100.241 157.351 111.162 157.37C122.082 157.388 130.92 166.484 130.903 177.687C130.885 188.89 122.018 197.957 111.097 197.938C100.177 197.92 91.3386 188.824 91.3564 177.621Z" fill="#DBAB9E"/>
<path d="M51.8102 177.555C51.828 166.352 60.6952 157.285 71.6156 157.303C82.536 157.322 91.3742 166.418 91.3564 177.621C91.3386 188.824 82.4714 197.891 71.551 197.872C60.6306 197.854 51.7924 188.757 51.8102 177.555Z" fill="#DBAB9E"/>
<path d="M15.0048 177.493C15.0226 166.29 23.8898 157.223 34.8102 157.242C45.7306 157.26 54.5688 166.357 54.551 177.559C54.5332 188.762 45.666 197.829 34.7456 197.811C23.8252 197.792 14.987 188.696 15.0048 177.493Z" fill="#DBAB9E"/>
<path d="M318.567 180.761L165.864 180.506L166.133 11L318.837 11.2555L318.567 180.761Z" fill="#DBAB9E"/>
<path d="M279.026 177.682C279.043 166.48 287.911 157.413 298.831 157.431C309.751 157.449 318.59 166.546 318.572 177.749C318.554 188.951 309.687 198.018 298.766 198C287.846 197.982 279.008 188.885 279.026 177.682Z" fill="#DBAB9E"/>
<path d="M242.22 177.621C242.238 166.418 251.105 157.351 262.026 157.37C272.946 157.388 281.784 166.484 281.766 177.687C281.749 188.89 272.881 197.957 261.961 197.938C251.041 197.92 242.202 188.824 242.22 177.621Z" fill="#DBAB9E"/>
<path d="M202.674 177.555C202.692 166.352 211.559 157.285 222.479 157.303C233.4 157.322 242.238 166.418 242.22 177.621C242.202 188.824 233.335 197.891 222.415 197.872C211.494 197.854 202.656 188.757 202.674 177.555Z" fill="#DBAB9E"/>
<path d="M165.869 177.493C165.886 166.29 174.754 157.223 185.674 157.242C196.594 157.26 205.433 166.357 205.415 177.559C205.397 188.762 196.53 197.829 185.609 197.811C174.689 197.792 165.851 188.696 165.869 177.493Z" fill="#DBAB9E"/>
<path d="M927 180.761L774.297 180.506L774.567 11L927.27 11.2555L927 180.761Z" fill="#DBAB9E"/>
<path d="M887.459 177.682C887.477 166.48 896.344 157.413 907.264 157.431C918.185 157.449 927.023 166.546 927.005 177.749C926.987 188.951 918.12 198.018 907.2 198C896.279 197.982 887.441 188.885 887.459 177.682Z" fill="#DBAB9E"/>
<path d="M850.654 177.621C850.671 166.418 859.539 157.351 870.459 157.37C881.379 157.388 890.218 166.484 890.2 177.687C890.182 188.89 881.315 197.957 870.394 197.938C859.474 197.92 850.636 188.824 850.654 177.621Z" fill="#DBAB9E"/>
<path d="M811.107 177.555C811.125 166.352 819.992 157.285 830.913 157.303C841.833 157.322 850.671 166.418 850.654 177.621C850.636 188.824 841.769 197.891 830.848 197.872C819.928 197.854 811.09 188.757 811.107 177.555Z" fill="#DBAB9E"/>
<path d="M774.302 177.493C774.32 166.29 783.187 157.223 794.107 157.242C805.028 157.26 813.866 166.357 813.848 177.559C813.83 188.762 804.963 197.829 794.043 197.811C783.122 197.792 774.284 188.696 774.302 177.493Z" fill="#DBAB9E"/>
<path d="M623.433 180.761L470.73 180.506L471 11L623.703 11.2555L623.433 180.761Z" fill="#DBAB9E"/>
<path d="M583.892 177.682C583.91 166.48 592.777 157.413 603.697 157.431C614.617 157.449 623.456 166.546 623.438 177.749C623.42 188.951 614.553 198.018 603.633 198C592.712 197.982 583.874 188.885 583.892 177.682Z" fill="#DBAB9E"/>
<path d="M547.086 177.621C547.104 166.418 555.971 157.351 566.892 157.37C577.812 157.388 586.65 166.484 586.633 177.687C586.615 188.89 577.748 197.957 566.827 197.938C555.907 197.92 547.068 188.824 547.086 177.621Z" fill="#DBAB9E"/>
<path d="M507.54 177.555C507.558 166.352 516.425 157.285 527.345 157.303C538.266 157.322 547.104 166.418 547.086 177.621C547.068 188.824 538.201 197.891 527.281 197.872C516.361 197.854 507.522 188.757 507.54 177.555Z" fill="#DBAB9E"/>
<path d="M470.735 177.493C470.753 166.29 479.62 157.223 490.54 157.242C501.46 157.26 510.299 166.357 510.281 177.559C510.263 188.762 501.396 197.829 490.475 197.811C479.555 197.792 470.717 188.696 470.735 177.493Z" fill="#DBAB9E"/>
<path d="M774.297 180.761L621.594 180.506L621.863 11L807 11.0543L774.297 180.761Z" fill="#DBAB9E"/>
<path d="M734.755 177.682C734.773 166.48 743.64 157.413 754.561 157.431C765.481 157.449 774.32 166.546 774.302 177.749C774.284 188.951 765.417 198.018 754.496 198C743.576 197.982 734.738 188.885 734.755 177.682Z" fill="#DBAB9E"/>
<path d="M697.95 177.621C697.968 166.418 706.835 157.351 717.755 157.37C728.676 157.388 737.514 166.484 737.496 177.687C737.478 188.89 728.611 197.957 717.691 197.938C706.771 197.92 697.932 188.824 697.95 177.621Z" fill="#DBAB9E"/>
<path d="M658.404 177.555C658.422 166.352 667.289 157.285 678.209 157.303C689.13 157.322 697.968 166.418 697.95 177.621C697.932 188.824 689.065 197.891 678.145 197.872C667.224 197.854 658.386 188.757 658.404 177.555Z" fill="#DBAB9E"/>
<path d="M621.598 177.493C621.616 166.29 630.483 157.223 641.404 157.242C652.324 157.26 661.162 166.357 661.145 177.559C661.127 188.762 652.26 197.829 641.339 197.811C630.419 197.792 621.581 188.696 621.598 177.493Z" fill="#DBAB9E"/>
<path d="M1382.73 180.761L1230.03 180.506L1198.5 11.2023L1383 11.2555L1382.73 180.761Z" fill="#DBAB9E"/>
<path d="M1343.19 177.682C1343.21 166.48 1352.07 157.413 1362.99 157.431C1373.91 157.449 1382.75 166.546 1382.74 177.749C1382.72 188.951 1373.85 198.018 1362.93 198C1352.01 197.982 1343.17 188.885 1343.19 177.682Z" fill="#DBAB9E"/>
<path d="M1306.38 177.621C1306.4 166.418 1315.27 157.351 1326.19 157.37C1337.11 157.388 1345.95 166.484 1345.93 177.687C1345.91 188.89 1337.04 197.957 1326.12 197.938C1315.2 197.92 1306.37 188.824 1306.38 177.621Z" fill="#DBAB9E"/>
<path d="M1266.84 177.555C1266.86 166.352 1275.72 157.285 1286.64 157.303C1297.56 157.322 1306.4 166.418 1306.38 177.621C1306.37 188.824 1297.5 197.891 1286.58 197.872C1275.66 197.854 1266.82 188.757 1266.84 177.555Z" fill="#DBAB9E"/>
<path d="M1230.03 177.493C1230.05 166.29 1238.92 157.223 1249.84 157.242C1260.76 157.26 1269.6 166.357 1269.58 177.559C1269.56 188.762 1260.69 197.829 1249.77 197.811C1238.85 197.792 1230.01 188.696 1230.03 177.493Z" fill="#DBAB9E"/>
<path d="M1079.16 180.761L926.46 180.506L926.729 11L1079.43 11.2555L1079.16 180.761Z" fill="#DBAB9E"/>
<path d="M1039.62 177.682C1039.64 166.48 1048.51 157.413 1059.43 157.431C1070.35 157.449 1079.19 166.546 1079.17 177.749C1079.15 188.951 1070.28 198.018 1059.36 198C1048.44 197.982 1039.6 188.885 1039.62 177.682Z" fill="#DBAB9E"/>
<path d="M1002.82 177.621C1002.83 166.418 1011.7 157.351 1022.62 157.37C1033.54 157.388 1042.38 166.484 1042.36 177.687C1042.34 188.89 1033.48 197.957 1022.56 197.938C1011.64 197.92 1002.8 188.824 1002.82 177.621Z" fill="#DBAB9E"/>
<path d="M963.27 177.555C963.288 166.352 972.155 157.285 983.075 157.303C993.996 157.322 1002.83 166.418 1002.82 177.621C1002.8 188.824 993.931 197.891 983.011 197.872C972.09 197.854 963.252 188.757 963.27 177.555Z" fill="#DBAB9E"/>
<path d="M926.465 177.493C926.482 166.29 935.35 157.223 946.27 157.242C957.19 157.26 966.029 166.357 966.011 177.559C965.993 188.762 957.126 197.829 946.205 197.811C935.285 197.792 926.447 188.696 926.465 177.493Z" fill="#DBAB9E"/>
<path d="M1230.03 180.761L1077.32 180.506L1077.59 11L1230.3 11.2555L1230.03 180.761Z" fill="#DBAB9E"/>
<path d="M1190.49 177.682C1190.5 166.48 1199.37 157.413 1210.29 157.431C1221.21 157.449 1230.05 166.546 1230.03 177.749C1230.01 188.951 1221.15 198.018 1210.23 198C1199.31 197.982 1190.47 188.885 1190.49 177.682Z" fill="#DBAB9E"/>
<path d="M1153.68 177.621C1153.7 166.418 1162.56 157.351 1173.49 157.37C1184.41 157.388 1193.24 166.484 1193.23 177.687C1193.21 188.89 1184.34 197.957 1173.42 197.938C1162.5 197.92 1153.66 188.824 1153.68 177.621Z" fill="#DBAB9E"/>
<path d="M1114.13 177.555C1114.15 166.352 1123.02 157.285 1133.94 157.303C1144.86 157.322 1153.7 166.418 1153.68 177.621C1153.66 188.824 1144.79 197.891 1133.87 197.872C1122.95 197.854 1114.12 188.757 1114.13 177.555Z" fill="#DBAB9E"/>
<path d="M1077.33 177.493C1077.35 166.29 1086.21 157.223 1097.13 157.242C1108.05 157.26 1116.89 166.357 1116.87 177.559C1116.86 188.762 1107.99 197.829 1097.07 197.811C1086.15 197.792 1077.31 188.696 1077.33 177.493Z" fill="#DBAB9E"/>
</g>
<defs>
<filter id="filter0_d_2114_465" x="0.1" y="0.1" width="1397.8" height="216.8" filterUnits="userSpaceOnUse" color-interpolation-filters="sRGB">
<feFlood flood-opacity="0" result="BackgroundImageFix"/>
<feColorMatrix in="SourceAlpha" type="matrix" values="0 0 0 0 0 0 0 0 0 0 0 0 0 0 0 0 0 0 127 0" result="hardAlpha"/>
<feOffset dy="4"/>
<feGaussianBlur stdDeviation="7.45"/>
<feComposite in2="hardAlpha" operator="out"/>
<feColorMatrix type="matrix" values="0 0 0 0 0 0 0 0 0 0 0 0 0 0 0 0 0 0 0.25 0"/>
<feBlend mode="normal" in2="BackgroundImageFix" result="effect1_dropShadow_2114_465"/>
<feBlend mode="normal" in="SourceGraphic" in2="effect1_dropShadow_2114_465" result="shape"/>
</filter>
</defs>
</svg>
