<svg width="689" height="198" viewBox="0 0 689 198" fill="none" xmlns="http://www.w3.org/2000/svg">
<path d="M19.9091 14C23.1624 14 26.6291 14.88 30.3091 16.64C33.9891 18.3467 37.2157 21.4933 39.9891 26.08C42.7624 30.6667 44.1491 36.9067 44.1491 44.8C44.1491 52 42.4157 57.4667 38.9491 61.2C35.5357 64.88 31.9357 67.2533 28.1491 68.32C24.3624 69.3333 21.2157 69.84 18.7091 69.84L12.1491 69.92C10.9757 69.9733 9.53573 70 7.82906 70C6.81573 70 6.30906 69.0933 6.30906 67.28L6.38906 65.2L6.22906 61.2L6.14906 57.6L6.06906 55.2C5.85573 52.4267 5.74906 49.28 5.74906 45.76C5.74906 43.68 5.85573 40.9333 6.06906 37.52C6.2824 34.1067 6.38906 31.3067 6.38906 29.12L6.30906 18.4C6.25573 17.5467 6.22906 16.5867 6.22906 15.52C6.22906 14.9333 6.6024 14.5867 7.34906 14.48C8.14906 14.32 8.97573 14.2667 9.82906 14.32C10.6824 14.32 11.2691 14.32 11.5891 14.32L14.4691 14.16C16.7091 14.0533 18.5224 14 19.9091 14ZM20.0691 52.88C21.5091 52.1867 22.8424 51.2267 24.0691 50C26.7357 47.44 28.0691 44.4 28.0691 40.88C28.0691 37.52 26.7891 34.8267 24.2291 32.8C23.1091 31.9467 21.8557 31.3067 20.4691 30.88C20.5757 32.0533 20.6291 32.96 20.6291 33.6C20.6291 34.6133 20.5757 36.08 20.4691 38C20.3624 39.8133 20.3091 41.1467 20.3091 42C20.3091 43.3867 20.2557 45.6267 20.1491 48.72C20.0957 49.6267 20.0691 51.0133 20.0691 52.88ZM85.5209 17.68C85.5209 18.9067 85.4143 19.52 85.2009 19.52C84.8809 19.52 84.5076 19.4933 84.0809 19.44C83.7076 19.3333 83.2276 19.28 82.6409 19.28H69.8409L59.9209 19.2C59.6009 19.2 58.4009 19.28 56.3209 19.44L54.4809 19.6L54.3209 21.76C54.2676 22.56 54.2409 23.8133 54.2409 25.52C54.2409 26.3733 54.2943 27.4933 54.4009 28.88C54.5076 30.16 54.5609 31.0933 54.5609 31.68V34.88C54.5609 35.7333 54.5876 36.4 54.6409 36.88C55.1209 36.9333 55.8409 36.96 56.8009 36.96H60.0009C60.3209 36.96 60.9609 36.9067 61.9209 36.8C63.3076 36.6933 64.5076 36.64 65.5209 36.64C65.9476 36.64 67.4409 36.72 70.0009 36.88L71.7609 36.96C72.1876 36.96 72.8009 36.9333 73.6009 36.88C74.4009 36.7733 75.1743 36.72 75.9209 36.72L78.5609 36.8C79.9476 36.9067 80.9076 36.96 81.4409 36.96C82.0276 36.96 82.4276 36.9333 82.6409 36.88L83.1209 36.8C83.4943 36.8 83.7609 36.9333 83.9209 37.2C84.0809 37.4133 84.1343 37.6267 84.0809 37.84C84.0276 38.2133 84.0009 38.6933 84.0009 39.28C84.0009 39.8133 83.9743 40.2933 83.9209 40.72C83.8676 41.1467 83.7876 41.4133 83.6809 41.52C83.5743 41.5733 83.2543 41.6 82.7209 41.6L79.5209 41.28C75.5209 40.9067 72.9076 40.72 71.6809 40.72C67.1476 40.72 63.8143 40.8 61.6809 40.96C60.8276 41.0667 59.8943 41.12 58.8809 41.12C57.8676 41.12 57.2276 41.12 56.9609 41.12C55.9476 41.12 55.2009 41.0933 54.7209 41.04L54.4809 42.32C54.3743 43.28 54.3209 44.1333 54.3209 44.88C54.3209 45.52 54.3743 46.2667 54.4809 47.12C54.5876 47.9733 54.6409 48.72 54.6409 49.36L54.7209 58.88L54.6409 62.88C54.5876 63.36 54.5609 64.0267 54.5609 64.88C55.2543 64.9333 56.2676 64.96 57.6009 64.96C58.7209 65.0133 60.4543 65.04 62.8009 65.04L67.1209 65.12C68.0276 65.1733 69.4143 65.2 71.2809 65.2C72.4009 65.2 73.8676 65.1467 75.6809 65.04L79.0409 64.96C80.3209 64.96 81.3876 64.9867 82.2409 65.04C83.0943 65.0933 83.7343 65.12 84.1609 65.12C84.5876 65.12 84.8276 65.2 84.8809 65.36C84.9876 65.52 85.0409 65.8667 85.0409 66.4C85.0409 66.7733 85.0143 67.1733 84.9609 67.6C84.9076 67.9733 84.8809 68.4 84.8809 68.88C84.8809 69.2533 84.7476 69.52 84.4809 69.68C84.2143 69.7867 83.7876 69.84 83.2009 69.84C82.6143 69.84 82.1343 69.8133 81.7609 69.76C80.3209 69.6 77.4143 69.52 73.0409 69.52C70.3743 69.52 68.4543 69.5467 67.2809 69.6C66.3743 69.6533 64.8809 69.68 62.8009 69.68L55.3609 69.6C54.5076 69.5467 53.4943 69.52 52.3209 69.52C51.5743 69.52 51.0676 69.44 50.8009 69.28C50.5876 69.0667 50.4809 68.7467 50.4809 68.32L50.5609 67.04C50.6143 66.8267 50.6409 66.5867 50.6409 66.32C50.6409 66.16 50.6143 65.7867 50.5609 65.2C50.5076 64.56 50.4809 63.4133 50.4809 61.76C50.4809 60.16 50.4276 57.5467 50.3209 53.92C50.1609 50.9333 50.0809 48.0533 50.0809 45.28C50.0809 44.1067 50.2143 40.72 50.4809 35.12C50.5343 34 50.5876 32.88 50.6409 31.76C50.6943 30.64 50.7209 29.6267 50.7209 28.72C50.7209 22.5333 50.6409 18.4533 50.4809 16.48C50.3209 15.2 51.0943 14.56 52.8009 14.56C53.2276 14.56 53.9209 14.6133 54.8809 14.72C55.7343 14.8267 56.3743 14.88 56.8009 14.88L61.8409 14.72C65.4676 14.5067 68.2676 14.4 70.2409 14.4C72.5343 14.4 75.7609 14.4533 79.9209 14.56C81.2543 14.6133 82.6676 14.64 84.1609 14.64C84.8009 14.64 85.2009 14.8 85.3609 15.12C85.5209 15.44 85.5743 15.7867 85.5209 16.16C85.5209 16.48 85.5209 16.6933 85.5209 16.8V17.68ZM99.6603 19.28C99.3936 26.7467 99.2603 30.8 99.2603 31.44L99.1803 42.88C99.1803 43.8933 99.207 44.7733 99.2603 45.52L99.3403 50.32C99.3403 51.44 99.3136 52.1333 99.2603 52.4C99.207 52.72 99.1803 53.0133 99.1803 53.28C99.2336 53.5467 99.2603 53.7333 99.2603 53.84C99.2603 54.0533 99.287 54.1867 99.3403 54.24L101.26 54.4C102.967 54.5067 104.38 54.5333 105.5 54.48L120.3 54.32C120.3 54.32 123.1 54.4 128.7 54.56L132.46 54.64C133.047 54.6933 133.34 54.8533 133.34 55.12C133.34 55.2267 133.314 55.36 133.26 55.52C133.207 55.68 133.18 55.84 133.18 56V59.68C133.18 60.64 133.34 62.6667 133.66 65.76L133.98 69.12L134.06 69.52C134.06 69.7867 133.927 69.9467 133.66 70C133.394 70.1067 132.914 70.16 132.22 70.16L126.38 70.08L116.46 69.92C115.127 69.92 113.26 70 110.86 70.16C109.794 70.2133 108.594 70.2667 107.26 70.32C105.98 70.3733 104.7 70.4 103.42 70.4L102.06 70.32C101.74 70.2667 101.127 70.24 100.22 70.24L96.6203 70.32C95.9803 70.3733 95.1536 70.4 94.1403 70.4C93.447 70.4 93.0203 70.2933 92.8603 70.08C92.7536 69.92 92.7003 69.6533 92.7003 69.28C92.7536 68.9067 92.7803 68.5867 92.7803 68.32C92.7803 67.1467 92.8603 65.12 93.0203 62.24L93.2603 54L93.1003 50.24C93.047 49.4933 92.9936 48.6133 92.9403 47.6C92.887 46.5333 92.8603 45.44 92.8603 44.32C92.8603 46.1333 93.0203 44.32 93.3403 38.88C93.6603 33.3867 93.8203 30 93.8203 28.72L93.7403 19.68L93.5803 14.56V14.48C93.5803 14.0533 93.8736 13.84 94.4603 13.84L95.5803 13.92C95.847 13.92 96.1936 13.9467 96.6203 14C97.047 14 97.7136 14 98.6203 14H99.3403C99.6603 14 99.8203 14.2133 99.8203 14.64L99.6603 19.28ZM143.428 16.56C143.268 17.7333 143.135 20.7467 143.028 25.6C143.028 27.0933 142.922 30.88 142.708 36.96C142.495 42.8267 142.388 46.4 142.388 47.68C142.388 50.7733 142.442 54.6933 142.548 59.44C142.655 64.1333 142.762 66.9333 142.868 67.84C142.922 68.16 142.948 68.5333 142.948 68.96C142.948 69.3333 142.868 69.6 142.708 69.76C142.602 69.92 142.415 70.08 142.148 70.24C141.828 70.4533 141.002 70.56 139.668 70.56C139.455 70.56 139.108 70.56 138.628 70.56C138.202 70.56 137.935 70.5067 137.828 70.4C137.722 70.2933 137.668 70.08 137.668 69.76L137.748 67.2L137.908 56.72L138.068 39.92C138.068 38.32 138.175 34.6933 138.388 29.04C138.442 27.7067 138.522 25.5467 138.628 22.56C138.735 19.52 138.735 17.7333 138.628 17.2L138.548 15.52C138.548 14.1333 138.975 13.44 139.828 13.44L142.788 13.52C143.322 13.52 143.588 13.8933 143.588 14.64C143.588 14.9067 143.562 15.2267 143.508 15.6C143.455 15.92 143.428 16.24 143.428 16.56ZM168.414 26.48C167.081 26.48 165.747 27.04 164.414 28.16C163.134 29.28 162.041 31.1467 161.134 33.76C160.227 36.32 159.774 39.6267 159.774 43.68C159.774 47.6267 160.334 50.7733 161.454 53.12C162.627 55.4133 163.934 57.0133 165.374 57.92C166.867 58.8267 168.147 59.28 169.214 59.28C170.174 59.28 171.161 58.96 172.174 58.32C173.187 57.6267 174.067 56.9067 174.814 56.16C174.921 56.0533 175.081 55.8667 175.294 55.6C175.561 55.3333 175.801 55.2 176.014 55.2C176.281 55.2 176.601 55.3067 176.974 55.52L183.774 59.28C183.987 59.3867 184.307 59.5467 184.734 59.76C185.214 59.92 185.534 60.08 185.694 60.24C185.907 60.4 186.014 60.6133 186.014 60.88C186.014 61.1467 185.934 61.44 185.774 61.76C184.601 63.7333 182.761 65.76 180.254 67.84C177.747 69.92 174.281 70.96 169.854 70.96C166.387 70.96 163.054 69.68 159.854 67.12C156.707 64.5067 154.174 60.96 152.254 56.48C150.334 52 149.374 47.0667 149.374 41.68C149.374 36.3467 150.281 31.5467 152.094 27.28C153.961 23.0133 156.334 19.68 159.214 17.28C162.094 14.88 165.054 13.68 168.094 13.68C171.881 13.68 174.921 14.48 177.214 16.08C179.561 17.6267 181.241 19.12 182.254 20.56C182.467 20.88 182.654 21.1733 182.814 21.44C183.027 21.7067 183.134 21.9733 183.134 22.24C183.134 22.56 182.841 22.9867 182.254 23.52C179.801 25.44 178.041 27.12 176.974 28.56C176.441 29.2533 175.987 29.7867 175.614 30.16C175.241 30.48 174.867 30.64 174.494 30.64C174.121 30.64 173.694 30.3733 173.214 29.84C172.094 28.6133 171.214 27.76 170.574 27.28C169.987 26.7467 169.267 26.48 168.414 26.48ZM196.12 13.6C196.813 13.6533 197.48 13.68 198.12 13.68C198.813 13.6267 199.4 13.6 199.88 13.6C201.053 13.6 201.906 13.6267 202.44 13.68C203.08 13.7333 203.533 13.8667 203.8 14.08C204.066 14.2933 204.2 14.5867 204.2 14.96C204.2 15.2267 204.173 15.52 204.12 15.84C204.066 16.16 204.013 16.4533 203.96 16.72C203.373 21.2533 203.053 25.92 203 30.72C202.946 32.1067 202.92 34.24 202.92 37.12L203 46.8C203.053 47.6 203.08 48.4267 203.08 49.28L203.16 52.48C203.266 55.2533 203.32 57.3067 203.32 58.64C203.32 59.6533 203.293 60.2667 203.24 60.48C203.186 60.6933 203.16 61.3067 203.16 62.32L203.24 66.72C203.293 67.36 203.32 68.16 203.32 69.12C203.373 69.8133 203.16 70.24 202.68 70.4C202.253 70.6133 201.666 70.6933 200.92 70.64H193.64C192.84 70.6933 192.333 70.5067 192.12 70.08C191.906 69.7067 191.773 69.0667 191.72 68.16C191.613 67.7867 191.666 66.8 191.88 65.2C192.093 63.7067 192.2 62.4267 192.2 61.36C192.2 60.9867 192.386 57.3867 192.76 50.56C193.08 45.5467 193.24 42.8 193.24 42.32L193.4 34.48L193.56 27.2L193.72 22.88L193.88 20V16.64C193.88 14.56 194.413 13.52 195.48 13.52C195.746 13.52 195.96 13.5467 196.12 13.6ZM229.973 12.88C235.306 12.88 239.306 14.4267 241.973 17.52C244.639 20.56 246.346 24.1867 247.093 28.4C247.839 32.56 248.213 37.28 248.213 42.56C248.213 46.8267 247.573 51.2267 246.293 55.76C245.013 60.24 243.039 64.0267 240.373 67.12C237.706 70.2133 234.426 71.76 230.533 71.76C222.906 71.76 217.839 68.56 215.333 62.16C212.826 55.7067 211.573 48.8 211.573 41.44C211.573 34.3467 212.533 28.6667 214.453 24.4C216.426 20.1333 218.799 17.1467 221.573 15.44C224.399 13.7333 227.199 12.88 229.973 12.88ZM229.893 51.44C231.333 51.44 232.399 50.64 233.093 49.04C233.786 47.44 234.133 45.52 234.133 43.28C234.133 41.1467 233.786 39.28 233.093 37.68C232.453 36.08 231.573 35.28 230.453 35.28C229.119 35.28 228.106 36.2133 227.413 38.08C226.773 39.8933 226.453 41.8667 226.453 44C226.453 46.1867 226.666 47.9733 227.093 49.36C227.519 50.7467 228.453 51.44 229.893 51.44ZM272.208 46.16C272.208 47.3333 272.262 48.3467 272.368 49.2C272.528 50.0533 272.928 50.88 273.568 51.68C274.262 52.4267 275.355 52.8 276.848 52.8C278.928 52.8 280.342 52.0267 281.088 50.48C281.835 48.88 282.208 47.1467 282.208 45.28L282.288 41.28C282.448 35.36 282.528 32.0533 282.528 31.36C282.528 29.8667 282.502 28.8533 282.448 28.32C282.448 26.4533 282.342 23.6 282.128 19.76L281.968 15.36C281.968 14.4 282.102 13.7333 282.368 13.36C282.635 12.9867 283.142 12.8 283.888 12.8H294.048L295.248 12.72C295.782 12.72 296.208 12.88 296.528 13.2C296.902 13.52 297.142 14.16 297.248 15.12C297.355 16.0267 297.408 19.1733 297.408 24.56L297.328 41.76C297.328 44.7467 296.848 48.3467 295.888 52.56C294.928 56.72 292.928 60.5867 289.888 64.16C286.848 67.7333 282.502 69.52 276.848 69.52C264.155 69.52 257.328 63.44 256.368 51.28C256.315 50.7467 256.288 49.68 256.288 48.08C256.288 46.4267 256.342 43.52 256.448 39.36C256.608 34.56 256.662 30.9867 256.608 28.64C256.608 25.44 256.555 22.08 256.448 18.56C256.395 17.5467 256.368 16.5067 256.368 15.44C256.368 15.2267 256.342 14.8267 256.288 14.24C256.288 13.6533 256.395 13.2267 256.608 12.96C256.875 12.6933 257.328 12.56 257.968 12.56L262.608 12.64C263.675 12.64 264.448 12.6133 264.928 12.56C266.102 12.4533 267.062 12.4 267.808 12.4L271.008 12.48C271.488 12.48 271.782 12.6133 271.888 12.88C272.048 13.0933 272.155 13.52 272.208 14.16V46.16ZM323.57 13.6C328.21 13.6 331.65 14.5067 333.89 16.32C336.13 18.1333 337.304 19.0933 337.41 19.2C337.944 19.5733 338.21 19.9467 338.21 20.32C338.21 20.5333 338.104 20.7467 337.89 20.96C337.73 21.1733 337.41 21.6267 336.93 22.32C336.45 23.0133 336.077 23.36 335.81 23.36C335.544 23.36 335.197 23.2267 334.77 22.96L334.21 22.48C330.157 19.5467 326.69 18.08 323.81 18.08C320.13 18.08 317.33 18.9333 315.41 20.64C313.544 22.2933 312.61 24.4 312.61 26.96C312.61 29.1467 313.384 31.0133 314.93 32.56C316.53 34.1067 318.61 35.5733 321.17 36.96C321.917 37.28 322.69 37.5733 323.49 37.84C326.157 38.8533 328.477 39.9467 330.45 41.12C332.477 42.24 334.29 43.9733 335.89 46.32C337.49 48.6133 338.29 51.52 338.29 55.04C338.29 61.0667 336.237 65.2 332.13 67.44C328.024 69.6267 323.437 70.72 318.37 70.72C315.437 70.72 312.77 70.0533 310.37 68.72C308.024 67.3867 306.344 66.2133 305.33 65.2C304.797 64.72 304.664 64.24 304.93 63.76C304.984 63.6533 305.197 63.2267 305.57 62.48C305.997 61.7333 306.37 61.36 306.69 61.36H306.85C307.01 61.36 307.144 61.4133 307.25 61.52C307.41 61.5733 307.57 61.7067 307.73 61.92C307.944 62.1333 308.184 62.3733 308.45 62.64C309.144 63.3333 310.504 64.1333 312.53 65.04C314.557 65.8933 316.237 66.32 317.57 66.32C320.397 66.32 323.09 65.7333 325.65 64.56C328.21 63.3333 329.49 60.7733 329.49 56.88C329.49 55.2267 328.744 53.7867 327.25 52.56C325.81 51.3333 323.544 49.8933 320.45 48.24L317.01 46.32C313.277 44.1867 310.344 41.8933 308.21 39.44C306.13 36.9867 305.09 33.76 305.09 29.76C305.09 26.4533 306.024 23.5733 307.89 21.12C309.81 18.6667 312.184 16.8 315.01 15.52C317.89 14.24 320.744 13.6 323.57 13.6ZM361.965 22.32C361.751 26.6933 361.645 29.9733 361.645 32.16L361.805 44.24C361.858 46.16 361.885 48.1333 361.885 50.16L361.725 58.88L361.645 60.48L361.725 62.72L361.885 65.52L373.325 65.92L382.845 66H383.005C383.325 66 383.511 66.0533 383.565 66.16C383.618 66.2667 383.618 66.4267 383.565 66.64C383.565 66.8 383.565 66.9333 383.565 67.04C383.511 67.2533 383.511 67.6533 383.565 68.24C383.671 68.8267 383.725 69.36 383.725 69.84C383.725 70.2133 383.591 70.4533 383.325 70.56C383.058 70.6667 382.711 70.6933 382.285 70.64C381.911 70.64 381.618 70.64 381.405 70.64L377.165 70.4C373.431 70.08 370.791 69.92 369.245 69.92C367.538 69.92 363.218 70.08 356.285 70.4L349.005 70.64C347.831 70.64 347.245 70.1067 347.245 69.04V62.8L347.565 36C347.565 33.9733 347.431 30.2933 347.165 24.96L346.845 15.12C346.845 14.2133 347.191 13.76 347.885 13.76C348.151 13.76 348.605 13.84 349.245 14C349.885 14.16 350.391 14.24 350.765 14.24C352.258 14.4533 354.045 14.56 356.125 14.56C357.565 14.56 358.925 14.48 360.205 14.32C361.005 14.2133 361.565 14.2667 361.885 14.48C362.205 14.6933 362.365 15.04 362.365 15.52C362.365 15.8933 362.311 16.2933 362.205 16.72C362.151 17.0933 362.125 17.52 362.125 18L361.965 22.32ZM395.998 23.2C397.118 26.72 398.424 30.1867 399.918 33.6C400.611 35.2 401.358 37.2267 402.158 39.68C403.011 42.24 403.438 43.52 403.438 43.52L404.078 41.52L405.278 38.08C405.811 36.48 406.584 34.32 407.598 31.6C408.664 28.8267 409.384 27.0667 409.758 26.32C411.251 22 412.211 18.9333 412.638 17.12C412.904 16.0533 413.251 15.3867 413.678 15.12C414.104 14.8533 414.504 14.7467 414.878 14.8C415.304 14.8 415.571 14.8 415.678 14.8L419.998 14.72C421.331 14.72 422.478 14.7733 423.438 14.88C424.558 15.04 425.118 15.3067 425.118 15.68C425.118 15.7333 425.064 15.9733 424.958 16.4C424.851 16.6667 424.718 17.0133 424.558 17.44C424.451 17.8133 424.318 18.24 424.158 18.72C422.878 22.5067 422.051 24.8267 421.678 25.68C420.984 27.7067 419.811 30.7467 418.158 34.8L414.798 43.6C413.624 46.48 412.131 50.2133 410.318 54.8C408.504 59.3867 407.518 62 407.358 62.64C407.144 63.28 406.904 64.32 406.638 65.76C406.424 67.1467 406.264 68.0533 406.158 68.48C405.998 69.12 405.811 69.5733 405.598 69.84C405.438 70.0533 405.198 70.1333 404.878 70.08L400.158 70.16L393.838 70.24C393.144 70.24 392.798 70.08 392.798 69.76C392.798 69.6 392.824 69.4667 392.878 69.36C392.984 69.2 393.064 69.04 393.118 68.88L395.998 61.12C396.158 60.2667 396.558 59.12 397.198 57.68C397.358 57.2533 397.518 56.8533 397.678 56.48C397.838 56.0533 397.971 55.6267 398.078 55.2C398.184 54.88 398.344 54.5067 398.558 54.08C398.771 53.6533 398.904 53.3067 398.958 53.04C399.011 52.72 398.984 52.4267 398.878 52.16C398.878 52.16 398.584 51.3333 397.998 49.68C397.251 47.3333 396.744 45.84 396.478 45.2C396.158 44.4 395.731 43.0933 395.198 41.28C394.824 40.0533 394.478 38.96 394.158 38C393.731 36.9333 392.771 34.24 391.278 29.92C389.784 25.6 388.691 22.32 387.998 20.08C387.678 19.12 387.358 18.2933 387.038 17.6C386.664 16.7467 386.478 16.16 386.478 15.84C386.478 15.4667 386.664 15.2267 387.038 15.12C387.464 14.96 388.078 14.8533 388.878 14.8C389.678 14.7467 391.011 14.7733 392.878 14.88C393.304 14.9333 393.571 15.04 393.678 15.2C393.784 15.36 393.838 15.5733 393.838 15.84C393.838 16.0533 393.891 16.2933 393.998 16.56L395.998 23.2ZM469.126 28.32C469.393 30.0267 470.113 33.76 471.286 39.52L473.046 47.44L474.086 42.72C474.566 40.5867 474.993 38.16 475.366 35.44C475.419 34.6933 475.659 33.3867 476.086 31.52C476.566 29.6 476.913 28.16 477.126 27.2C478.726 21.28 479.473 17.6 479.366 16.16C479.259 14.7733 479.393 13.92 479.766 13.6C480.139 13.28 480.566 13.1467 481.046 13.2C481.579 13.2 481.926 13.2 482.086 13.2C487.153 13.2 490.326 13.28 491.606 13.44C492.193 13.4933 492.593 13.6 492.806 13.76C493.019 13.92 493.126 14.1333 493.126 14.4C493.126 14.6667 493.046 15.0933 492.886 15.68C492.619 16.3733 492.113 18.4 491.366 21.76L490.966 23.52C488.993 33.6 487.446 40.64 486.326 44.64C485.473 48.0533 484.539 53.12 483.526 59.84C482.619 65.0133 482.113 67.7333 482.006 68C481.846 68.5333 481.686 68.9067 481.526 69.12C481.366 69.28 481.126 69.36 480.806 69.36L479.526 69.28L474.166 69.6C470.433 69.8133 468.193 69.92 467.446 69.92C466.593 69.92 466.033 69.7067 465.766 69.28C465.553 68.8 465.366 68 465.206 66.88C464.566 64.2133 462.646 56.88 459.446 44.88C459.019 43.2267 457.553 36.9333 455.046 26L452.406 14.8C452.299 14.3733 452.246 14.1067 452.246 14C452.246 13.5733 452.539 13.36 453.126 13.36C453.446 13.36 453.819 13.4133 454.246 13.52C454.673 13.5733 455.126 13.6 455.606 13.6L459.606 13.44L464.486 13.28C465.446 13.1733 466.086 13.3333 466.406 13.76C466.726 14.1333 466.993 14.8 467.206 15.76C467.366 16.4533 467.819 19.3333 468.566 24.4L469.126 28.32ZM534.037 17.68C534.037 18.9067 533.93 19.52 533.717 19.52C533.397 19.52 533.023 19.4933 532.597 19.44C532.223 19.3333 531.743 19.28 531.157 19.28H518.357L508.437 19.2C508.117 19.2 506.917 19.28 504.837 19.44L502.997 19.6L502.837 21.76C502.783 22.56 502.757 23.8133 502.757 25.52C502.757 26.3733 502.81 27.4933 502.917 28.88C503.023 30.16 503.077 31.0933 503.077 31.68V34.88C503.077 35.7333 503.103 36.4 503.157 36.88C503.637 36.9333 504.357 36.96 505.317 36.96H508.517C508.837 36.96 509.477 36.9067 510.437 36.8C511.823 36.6933 513.023 36.64 514.037 36.64C514.463 36.64 515.957 36.72 518.517 36.88L520.277 36.96C520.703 36.96 521.317 36.9333 522.117 36.88C522.917 36.7733 523.69 36.72 524.437 36.72L527.077 36.8C528.463 36.9067 529.423 36.96 529.957 36.96C530.543 36.96 530.943 36.9333 531.157 36.88L531.637 36.8C532.01 36.8 532.277 36.9333 532.437 37.2C532.597 37.4133 532.65 37.6267 532.597 37.84C532.543 38.2133 532.517 38.6933 532.517 39.28C532.517 39.8133 532.49 40.2933 532.437 40.72C532.383 41.1467 532.303 41.4133 532.197 41.52C532.09 41.5733 531.77 41.6 531.237 41.6L528.037 41.28C524.037 40.9067 521.423 40.72 520.197 40.72C515.663 40.72 512.33 40.8 510.197 40.96C509.343 41.0667 508.41 41.12 507.397 41.12C506.383 41.12 505.743 41.12 505.477 41.12C504.463 41.12 503.717 41.0933 503.237 41.04L502.997 42.32C502.89 43.28 502.837 44.1333 502.837 44.88C502.837 45.52 502.89 46.2667 502.997 47.12C503.103 47.9733 503.157 48.72 503.157 49.36L503.237 58.88L503.157 62.88C503.103 63.36 503.077 64.0267 503.077 64.88C503.77 64.9333 504.783 64.96 506.117 64.96C507.237 65.0133 508.97 65.04 511.317 65.04L515.637 65.12C516.543 65.1733 517.93 65.2 519.797 65.2C520.917 65.2 522.383 65.1467 524.197 65.04L527.557 64.96C528.837 64.96 529.903 64.9867 530.757 65.04C531.61 65.0933 532.25 65.12 532.677 65.12C533.103 65.12 533.343 65.2 533.397 65.36C533.503 65.52 533.557 65.8667 533.557 66.4C533.557 66.7733 533.53 67.1733 533.477 67.6C533.423 67.9733 533.397 68.4 533.397 68.88C533.397 69.2533 533.263 69.52 532.997 69.68C532.73 69.7867 532.303 69.84 531.717 69.84C531.13 69.84 530.65 69.8133 530.277 69.76C528.837 69.6 525.93 69.52 521.557 69.52C518.89 69.52 516.97 69.5467 515.797 69.6C514.89 69.6533 513.397 69.68 511.317 69.68L503.877 69.6C503.023 69.5467 502.01 69.52 500.837 69.52C500.09 69.52 499.583 69.44 499.317 69.28C499.103 69.0667 498.997 68.7467 498.997 68.32L499.077 67.04C499.13 66.8267 499.157 66.5867 499.157 66.32C499.157 66.16 499.13 65.7867 499.077 65.2C499.023 64.56 498.997 63.4133 498.997 61.76C498.997 60.16 498.943 57.5467 498.837 53.92C498.677 50.9333 498.597 48.0533 498.597 45.28C498.597 44.1067 498.73 40.72 498.997 35.12C499.05 34 499.103 32.88 499.157 31.76C499.21 30.64 499.237 29.6267 499.237 28.72C499.237 22.5333 499.157 18.4533 498.997 16.48C498.837 15.2 499.61 14.56 501.317 14.56C501.743 14.56 502.437 14.6133 503.397 14.72C504.25 14.8267 504.89 14.88 505.317 14.88L510.357 14.72C513.983 14.5067 516.783 14.4 518.757 14.4C521.05 14.4 524.277 14.4533 528.437 14.56C529.77 14.6133 531.183 14.64 532.677 14.64C533.317 14.64 533.717 14.8 533.877 15.12C534.037 15.44 534.09 15.7867 534.037 16.16C534.037 16.48 534.037 16.6933 534.037 16.8V17.68ZM558.256 13.36C561.883 13.36 564.629 13.9733 566.496 15.2C568.416 16.4267 569.749 17.5733 570.496 18.64C571.243 19.6533 571.723 20.2667 571.936 20.48C572.363 20.96 572.576 21.4667 572.576 22C572.576 22.64 572.336 23.2 571.856 23.68C571.376 24.16 570.763 24.6933 570.016 25.28C569.323 25.8667 568.683 26.3733 568.096 26.8C567.829 26.96 567.589 27.04 567.376 27.04C566.896 27.04 566.416 26.8 565.936 26.32C565.829 26.2133 565.056 25.3333 563.616 23.68C562.176 21.9733 560.016 21.12 557.136 21.12C554.949 21.12 553.056 22.2933 551.456 24.64C549.856 26.9333 548.629 29.7333 547.776 33.04C546.976 36.2933 546.576 39.3333 546.576 42.16C546.576 45.0933 547.003 48.2133 547.856 51.52C548.709 54.8267 550.069 57.6533 551.936 60C553.856 62.3467 556.256 63.52 559.136 63.52C562.976 63.52 565.909 62.0267 567.936 59.04C568.789 57.6533 569.349 56.1333 569.616 54.48H567.296L563.696 54.4L555.616 54.32C554.709 54.32 554.256 53.8933 554.256 53.04V49.92C554.256 49.3867 554.336 49.0667 554.496 48.96C554.656 48.8 554.869 48.72 555.136 48.72H558.816L575.216 48.32C575.696 48.32 576.043 48.56 576.256 49.04C576.523 49.52 576.629 50.16 576.576 50.96C576.576 52.8267 576.229 55.2533 575.536 58.24C574.843 61.1733 573.136 64.0533 570.416 66.88C567.696 69.6533 563.643 71.04 558.256 71.04C554.256 71.04 550.816 69.52 547.936 66.48C545.109 63.44 542.976 59.5467 541.536 54.8C540.149 50 539.456 45.0933 539.456 40.08C539.456 35.3867 540.309 30.9867 542.016 26.88C543.776 22.7733 546.096 19.4933 548.976 17.04C551.909 14.5867 555.003 13.36 558.256 13.36ZM618.432 68.88C618.592 69.2533 618.672 69.52 618.672 69.68C618.672 69.8933 618.379 70 617.792 70H613.312C613.099 70 612.912 69.9733 612.752 69.92C612.646 69.8133 612.539 69.6 612.432 69.28C612.219 68.6933 611.926 67.7333 611.552 66.4C611.072 65.0667 610.752 63.8667 610.592 62.8C610.432 62 610.166 61.04 609.792 59.92C609.472 58.8 609.179 57.9467 608.912 57.36C608.432 56.3467 608.006 55.2 607.632 53.92L606.912 51.6C606.646 51.0133 606.432 50.6667 606.272 50.56C606.166 50.4 605.952 50.32 605.632 50.32C604.512 50.32 603.686 50.3467 603.152 50.4L599.712 50.56C599.286 50.6133 597.312 50.64 593.792 50.64H588.912H588.752C588.432 50.64 588.192 50.9333 588.032 51.52L587.872 52.32L587.552 53.84C587.446 54.1067 587.099 55.6533 586.512 58.48C586.352 59.3867 586.086 60.56 585.712 62C585.606 63.0667 585.366 63.9467 584.992 64.64C584.886 64.8 584.752 65.1733 584.592 65.76C584.432 66.3467 584.299 66.8267 584.192 67.2C584.032 67.6267 583.846 68.32 583.632 69.28C583.579 69.3333 583.526 69.4667 583.472 69.68C583.419 69.84 583.339 69.9467 583.232 70C583.126 70 582.966 70 582.752 70H581.152C580.672 70 580.539 69.6533 580.752 68.96C580.752 68.8 580.779 68.6667 580.832 68.56C580.832 68.4533 580.859 68.32 580.912 68.16C580.966 68 581.046 67.76 581.152 67.44L581.872 64.48C581.979 64.16 582.166 63.6 582.432 62.8C582.699 62 582.886 61.2533 582.992 60.56C583.259 59.28 583.766 57.3333 584.512 54.72L585.152 52.48C586.166 49.1733 586.806 46.8533 587.072 45.52L588.192 41.28C588.726 39.52 589.046 38.4 589.152 37.92C589.526 36.32 590.059 34.32 590.752 31.92L591.312 29.68L591.792 28C592.326 26.1867 592.779 24.88 593.152 24.08C593.259 23.76 593.632 22.6667 594.272 20.8C594.966 18.88 595.419 17.36 595.632 16.24C596.006 14.96 596.379 14 596.752 13.36C597.179 12.72 597.739 12.4 598.432 12.4C598.699 12.4 598.966 12.64 599.232 13.12C599.499 13.6 599.766 14.1867 600.032 14.88C600.299 15.5733 600.486 16.08 600.592 16.4C601.019 17.4133 601.766 19.9467 602.832 24L603.472 26.24C603.526 26.6667 604.406 29.28 606.112 34.08L607.632 38.48L609.072 42.24C610.566 46.4533 611.526 49.0133 611.952 49.92C613.819 55.5733 614.912 58.9867 615.232 60.16C615.606 61.5467 616.192 63.28 616.992 65.36C617.846 67.44 618.326 68.6133 618.432 68.88ZM603.472 45.12C604.166 45.12 604.512 44.9333 604.512 44.56C604.512 44.2933 604.326 43.7067 603.952 42.8C603.632 42 603.152 40.5067 602.512 38.32C602.032 36.56 601.552 35.04 601.072 33.76C600.539 32.16 599.952 30.2667 599.312 28.08C598.726 25.8933 598.379 24.48 598.272 23.84C597.472 21.0133 596.939 19.6 596.672 19.6C596.512 19.6 596.246 20.32 595.872 21.76L595.392 23.52C595.019 24.96 594.539 26.7733 593.952 28.96C593.366 31.0933 592.832 32.9067 592.352 34.4C592.032 35.7867 591.579 37.5467 590.992 39.68C590.459 41.76 590.032 43.2 589.712 44C589.606 44.32 589.552 44.5067 589.552 44.56C589.552 44.9333 589.712 45.1733 590.032 45.28C590.406 45.3867 590.752 45.44 591.072 45.44C591.446 45.3867 591.686 45.36 591.792 45.36L596.432 45.2C597.072 45.0933 597.979 45.04 599.152 45.04L603.472 45.12ZM637.619 12.08C638.792 12.08 639.646 12.2133 640.179 12.48C640.766 12.6933 641.219 13.0933 641.539 13.68C642.072 14.8 642.739 16.24 643.539 18L646.499 24.4L650.259 32.64C650.952 34.1333 651.859 36.1067 652.979 38.56C654.099 41.0133 654.899 42.72 655.379 43.68C656.286 45.5467 656.872 46.6933 657.139 47.12L659.379 51.52L661.859 56.4L661.699 51.76L661.379 43.92V41.52C661.379 38.5867 661.432 35.6267 661.539 32.64C661.539 30.4 661.512 28.5867 661.459 27.2L661.379 21.12L661.699 13.44C661.699 12.64 662.099 12.24 662.899 12.24C663.166 12.24 663.699 12.32 664.499 12.48C664.979 12.5867 665.486 12.64 666.019 12.64C666.552 12.64 666.979 12.64 667.299 12.64C667.726 12.64 667.992 12.6933 668.099 12.8C668.259 12.9067 668.339 13.0933 668.339 13.36C668.339 13.5733 668.312 13.8133 668.259 14.08C668.206 14.3467 668.179 14.64 668.179 14.96L668.099 21.84L667.939 38L667.859 40.32C667.859 42.1333 667.886 43.7867 667.939 45.28C667.992 46.7733 668.046 48 668.099 48.96C668.259 51.2533 668.339 53.1733 668.339 54.72C668.339 54.5067 668.419 57.68 668.579 64.24L668.739 68.72V68.88C668.739 69.9467 668.232 70.4267 667.219 70.32C667.059 70.2667 666.739 70.24 666.259 70.24L663.939 70.32H663.459C663.086 70.32 662.792 70.24 662.579 70.08C662.419 69.92 662.126 69.4667 661.699 68.72C661.539 68.3467 661.326 67.8133 661.059 67.12C660.792 66.4267 660.472 65.6533 660.099 64.8C657.806 59.04 656.152 55.12 655.139 53.04C653.966 50.8 651.006 44.3733 646.259 33.76C645.192 31.5733 643.992 29.2533 642.659 26.8L640.339 22.64L640.579 30.24L640.659 34.96C640.766 38.48 640.819 40.8 640.819 41.92C640.819 46.2933 640.899 50.6933 641.059 55.12L641.139 61.36C641.139 62.48 641.192 64.1067 641.299 66.24L641.459 69.04V69.2C641.459 69.7333 641.326 70.08 641.059 70.24C640.792 70.4 640.419 70.48 639.939 70.48L638.179 70.56C637.059 70.72 635.859 70.8 634.579 70.8C633.086 70.8 631.859 70.8267 630.899 70.88L626.819 70.96C626.019 70.96 625.486 70.8 625.219 70.48C624.952 70.2133 624.792 69.8933 624.739 69.52C624.686 69.1467 624.632 68.88 624.579 68.72C624.366 67.76 624.259 66.5867 624.259 65.2C624.259 63.92 624.286 62.8267 624.339 61.92C624.339 59.1467 624.392 55.92 624.499 52.24C624.606 48.5067 624.739 45.84 624.899 44.24L625.299 38.56C625.939 29.7067 626.259 24.72 626.259 23.6C626.259 19.3867 626.339 16.24 626.499 14.16C626.606 12.72 627.352 12 628.739 12C629.166 12 629.566 12.0267 629.939 12.08C630.312 12.1333 630.606 12.16 630.819 12.16L637.619 12.08ZM686.082 59.6C686.722 59.6 687.042 59.7867 687.042 60.16C687.042 60.32 686.962 60.56 686.802 60.88C686.535 61.9467 686.295 62.8 686.082 63.44C686.028 63.76 685.842 64.3467 685.522 65.2C685.255 65.8933 684.935 66.8267 684.562 68C684.242 68.8 683.815 70.2133 683.282 72.24C682.748 74.2667 682.482 75.4133 682.482 75.68C682.428 75.84 682.268 76.16 682.002 76.64C681.788 77.1733 681.548 77.52 681.282 77.68C680.962 77.7867 680.215 77.84 679.042 77.84C677.815 77.84 676.935 77.7867 676.402 77.68C675.922 77.68 675.628 77.5733 675.522 77.36C675.415 77.2 675.362 76.9867 675.362 76.72C675.415 76.4533 675.442 76.24 675.442 76.08L677.362 69.04L678.722 64.16L679.762 61.12C679.868 60.64 680.135 60.2667 680.562 60C680.988 59.7333 681.468 59.6 682.002 59.6H686.082Z" fill="#657D71"/>
<path d="M44.8491 161.4C40.3691 161.4 36.9824 160.173 34.6891 157.72C32.3957 155.213 31.2491 151.88 31.2491 147.72C31.2491 145.373 31.5957 142.52 32.2891 139.16L37.2491 116.28C37.3557 115.853 37.5957 114.68 37.9691 112.76C38.3957 110.84 38.6091 108.76 38.6091 106.52C38.6091 105.24 38.3424 104.28 37.8091 103.64C37.3291 103 36.6624 102.68 35.8091 102.68C34.2091 102.68 32.3424 103.453 30.2091 105C28.0757 106.493 25.8357 108.813 23.4891 111.96C22.7424 112.973 21.9157 113.48 21.0091 113.48C20.2624 113.48 19.5957 113.133 19.0091 112.44C18.4757 111.693 18.2091 110.867 18.2091 109.96C18.2091 108.307 18.9557 106.44 20.4491 104.36C25.8891 96.8933 32.2624 93.16 39.5691 93.16C42.8224 93.16 45.3557 94.1467 47.1691 96.12C49.0357 98.0933 49.9691 101 49.9691 104.84C49.9691 107.56 49.7824 110.067 49.4091 112.36C49.0357 114.653 48.3957 117.773 47.4891 121.72L44.2091 136.36C44.1024 136.84 43.9157 137.693 43.6491 138.92C43.3824 140.147 43.1691 141.32 43.0091 142.44C42.8491 143.507 42.7691 144.573 42.7691 145.64C42.7691 147.347 43.2491 148.707 44.2091 149.72C45.1691 150.733 46.5291 151.24 48.2891 151.24C51.4891 151.24 54.7157 149.533 57.9691 146.12C61.2757 142.707 64.3157 137.213 67.0891 129.64C69.9157 122.013 72.1024 112.28 73.6491 100.44C74.0224 97.72 74.5557 95.8267 75.2491 94.76C75.9957 93.6933 77.4091 93.16 79.4891 93.16C81.3557 93.16 82.7424 93.72 83.6491 94.84C84.5557 95.96 85.0091 97.7733 85.0091 100.28C85.0091 101.72 84.8224 103.613 84.4491 105.96C84.1291 108.307 83.6224 111.587 82.9291 115.8C81.4891 123.96 80.3424 131.453 79.4891 138.28C79.0624 141.373 78.8491 143.667 78.8491 145.16C78.8491 147.347 79.3291 149.027 80.2891 150.2C81.3024 151.32 82.6357 151.88 84.2891 151.88C86.0491 151.88 87.7557 151.293 89.4091 150.12C91.1157 148.947 93.1157 147 95.4091 144.28C96.0491 143.533 96.7691 143.16 97.5691 143.16C98.2624 143.16 98.7957 143.48 99.1691 144.12C99.5957 144.76 99.8091 145.64 99.8091 146.76C99.8091 148.84 99.3024 150.493 98.2891 151.72C95.5157 155.08 92.7691 157.533 90.0491 159.08C87.3291 160.627 84.4757 161.4 81.4891 161.4C77.0624 161.4 73.6757 160.28 71.3291 158.04C68.9824 155.747 67.8091 152.787 67.8091 149.16C67.8091 147.133 68.2357 143.187 69.0891 137.32C66.4224 145.16 63.0357 151.133 58.9291 155.24C54.8757 159.347 50.1824 161.4 44.8491 161.4ZM98.9809 161.4C96.9543 161.4 95.5143 160.333 94.6609 158.2C93.8609 156.067 93.4609 152.653 93.4609 147.96C93.4609 141.027 94.4476 134.44 96.4209 128.2C96.9009 126.653 97.6743 125.533 98.7409 124.84C99.8609 124.093 101.408 123.72 103.381 123.72C104.448 123.72 105.194 123.853 105.621 124.12C106.048 124.387 106.261 124.893 106.261 125.64C106.261 126.493 105.861 128.413 105.061 131.4C104.528 133.533 104.101 135.4 103.781 137C103.461 138.6 103.194 140.573 102.981 142.92C104.741 138.333 106.714 134.6 108.901 131.72C111.088 128.84 113.221 126.787 115.301 125.56C117.434 124.333 119.381 123.72 121.141 123.72C124.608 123.72 126.341 125.453 126.341 128.92C126.341 131 125.754 134.76 124.581 140.2C123.568 144.84 123.061 147.907 123.061 149.4C123.061 151.533 123.834 152.6 125.381 152.6C126.448 152.6 127.701 151.96 129.141 150.68C130.634 149.347 132.608 147.213 135.061 144.28C135.701 143.533 136.421 143.16 137.221 143.16C137.914 143.16 138.448 143.48 138.821 144.12C139.248 144.76 139.461 145.64 139.461 146.76C139.461 148.893 138.954 150.547 137.941 151.72C135.648 154.547 133.168 156.867 130.501 158.68C127.888 160.493 124.901 161.4 121.541 161.4C118.821 161.4 116.768 160.627 115.381 159.08C113.994 157.48 113.301 155.187 113.301 152.2C113.301 150.707 113.674 148.04 114.421 144.2C115.114 140.84 115.461 138.52 115.461 137.24C115.461 136.387 115.168 135.96 114.581 135.96C113.888 135.96 112.901 136.867 111.621 138.68C110.394 140.44 109.114 142.787 107.781 145.72C106.501 148.653 105.461 151.747 104.661 155C104.074 157.507 103.381 159.213 102.581 160.12C101.834 160.973 100.634 161.4 98.9809 161.4ZM175.548 136.44C176.242 136.44 176.775 136.787 177.148 137.48C177.522 138.173 177.708 139.053 177.708 140.12C177.708 141.453 177.522 142.493 177.148 143.24C176.775 143.933 176.188 144.413 175.388 144.68C172.188 145.8 168.668 146.44 164.828 146.6C163.762 151.027 161.735 154.6 158.748 157.32C155.815 160.04 152.562 161.4 148.988 161.4C143.602 161.4 139.682 159.347 137.228 155.24C134.775 151.133 133.548 145.187 133.548 137.4C133.548 130.52 134.402 123.053 136.108 115C137.815 106.893 140.295 100.013 143.548 94.36C146.855 88.6533 150.775 85.8 155.308 85.8C157.762 85.8 159.735 86.8667 161.228 89C162.722 91.08 163.468 93.8 163.468 97.16C163.468 101.533 162.642 105.88 160.988 110.2C159.335 114.52 156.588 119.053 152.748 123.8C156.322 124.067 159.228 125.56 161.468 128.28C163.708 130.947 165.042 134.253 165.468 138.2C167.975 138.04 170.962 137.507 174.428 136.6C174.748 136.493 175.122 136.44 175.548 136.44ZM153.468 93.72C152.402 93.72 151.228 95.32 149.948 98.52C148.722 101.667 147.575 105.96 146.508 111.4C145.442 116.84 144.642 122.787 144.108 129.24C147.628 122.787 150.428 117.107 152.508 112.2C154.642 107.24 155.708 102.84 155.708 99C155.708 97.2933 155.495 95.9867 155.068 95.08C154.695 94.1733 154.162 93.72 153.468 93.72ZM149.308 152.92C150.962 152.92 152.428 152.227 153.708 150.84C154.988 149.453 155.842 147.453 156.268 144.84C154.615 143.72 153.335 142.253 152.428 140.44C151.575 138.627 151.148 136.707 151.148 134.68C151.148 133.933 151.255 132.92 151.468 131.64H151.228C149.042 131.64 147.202 132.733 145.708 134.92C144.268 137.053 143.548 139.933 143.548 143.56C143.548 146.6 144.108 148.92 145.228 150.52C146.402 152.12 147.762 152.92 149.308 152.92ZM206.481 143.16C207.174 143.16 207.708 143.48 208.081 144.12C208.508 144.76 208.721 145.64 208.721 146.76C208.721 148.893 208.214 150.547 207.201 151.72C205.228 154.12 202.428 156.333 198.801 158.36C195.228 160.387 191.388 161.4 187.281 161.4C181.681 161.4 177.334 159.88 174.241 156.84C171.148 153.8 169.601 149.64 169.601 144.36C169.601 140.68 170.374 137.267 171.921 134.12C173.468 130.92 175.601 128.387 178.321 126.52C181.094 124.653 184.214 123.72 187.681 123.72C190.774 123.72 193.254 124.653 195.121 126.52C196.988 128.333 197.921 130.813 197.921 133.96C197.921 137.64 196.588 140.813 193.921 143.48C191.308 146.093 186.854 148.173 180.561 149.72C181.894 152.173 184.428 153.4 188.161 153.4C190.561 153.4 193.281 152.573 196.321 150.92C199.414 149.213 202.081 147 204.321 144.28C204.961 143.533 205.681 143.16 206.481 143.16ZM186.321 131.56C184.348 131.56 182.668 132.707 181.281 135C179.948 137.293 179.281 140.067 179.281 143.32V143.48C182.428 142.733 184.908 141.613 186.721 140.12C188.534 138.627 189.441 136.893 189.441 134.92C189.441 133.907 189.148 133.107 188.561 132.52C188.028 131.88 187.281 131.56 186.321 131.56ZM232.527 143.16C233.221 143.16 233.754 143.48 234.127 144.12C234.554 144.76 234.767 145.64 234.767 146.76C234.767 148.893 234.261 150.547 233.247 151.72C230.954 154.547 228.447 156.867 225.727 158.68C223.061 160.493 220.021 161.4 216.607 161.4C211.914 161.4 208.421 159.267 206.127 155C203.887 150.733 202.767 145.213 202.767 138.44C202.767 131.933 203.594 124.52 205.247 116.2C206.954 107.88 209.434 100.733 212.687 94.76C215.994 88.7867 219.914 85.8 224.447 85.8C227.007 85.8 229.007 87 230.447 89.4C231.941 91.7467 232.687 95.1333 232.687 99.56C232.687 105.907 230.927 113.267 227.407 121.64C223.887 130.013 219.114 138.307 213.087 146.52C213.461 148.707 214.074 150.28 214.927 151.24C215.781 152.147 216.901 152.6 218.287 152.6C220.474 152.6 222.394 151.987 224.047 150.76C225.701 149.48 227.807 147.32 230.367 144.28C231.007 143.533 231.727 143.16 232.527 143.16ZM222.687 93.72C221.461 93.72 220.074 95.9333 218.527 100.36C216.981 104.787 215.621 110.28 214.447 116.84C213.274 123.4 212.634 129.693 212.527 135.72C216.314 129.48 219.327 123.24 221.567 117C223.807 110.707 224.927 104.973 224.927 99.8C224.927 95.7467 224.181 93.72 222.687 93.72ZM238.781 118.44C236.541 118.44 234.861 117.933 233.741 116.92C232.621 115.853 232.061 114.387 232.061 112.52C232.061 110.653 232.781 109.107 234.221 107.88C235.714 106.6 237.554 105.96 239.741 105.96C241.714 105.96 243.314 106.44 244.541 107.4C245.768 108.36 246.381 109.72 246.381 111.48C246.381 113.613 245.688 115.32 244.301 116.6C242.914 117.827 241.074 118.44 238.781 118.44ZM238.141 161.4C234.674 161.4 232.141 160.173 230.541 157.72C228.994 155.267 228.221 152.013 228.221 147.96C228.221 145.56 228.514 142.493 229.101 138.76C229.741 134.973 230.541 131.453 231.501 128.2C231.981 126.493 232.621 125.32 233.421 124.68C234.221 124.04 235.501 123.72 237.261 123.72C239.981 123.72 241.341 124.627 241.341 126.44C241.341 127.773 240.834 130.867 239.821 135.72C238.541 141.587 237.901 145.56 237.901 147.64C237.901 149.24 238.114 150.467 238.541 151.32C238.968 152.173 239.688 152.6 240.701 152.6C241.661 152.6 242.861 151.933 244.301 150.6C245.741 149.267 247.661 147.16 250.061 144.28C250.701 143.533 251.421 143.16 252.221 143.16C252.914 143.16 253.448 143.48 253.821 144.12C254.248 144.76 254.461 145.64 254.461 146.76C254.461 148.893 253.954 150.547 252.941 151.72C247.661 158.173 242.728 161.4 238.141 161.4ZM283.668 143.16C284.362 143.16 284.895 143.48 285.268 144.12C285.695 144.76 285.908 145.64 285.908 146.76C285.908 148.893 285.402 150.547 284.388 151.72C282.415 154.12 279.615 156.333 275.988 158.36C272.415 160.387 268.575 161.4 264.468 161.4C258.868 161.4 254.522 159.88 251.428 156.84C248.335 153.8 246.788 149.64 246.788 144.36C246.788 140.68 247.562 137.267 249.108 134.12C250.655 130.92 252.788 128.387 255.508 126.52C258.282 124.653 261.402 123.72 264.868 123.72C267.962 123.72 270.442 124.653 272.308 126.52C274.175 128.333 275.108 130.813 275.108 133.96C275.108 137.64 273.775 140.813 271.108 143.48C268.495 146.093 264.042 148.173 257.748 149.72C259.082 152.173 261.615 153.4 265.348 153.4C267.748 153.4 270.468 152.573 273.508 150.92C276.602 149.213 279.268 147 281.508 144.28C282.148 143.533 282.868 143.16 283.668 143.16ZM263.508 131.56C261.535 131.56 259.855 132.707 258.468 135C257.135 137.293 256.468 140.067 256.468 143.32V143.48C259.615 142.733 262.095 141.613 263.908 140.12C265.722 138.627 266.628 136.893 266.628 134.92C266.628 133.907 266.335 133.107 265.748 132.52C265.215 131.88 264.468 131.56 263.508 131.56ZM319.385 136.68C319.545 136.627 319.812 136.6 320.185 136.6C320.985 136.6 321.599 136.867 322.025 137.4C322.452 137.933 322.665 138.653 322.665 139.56C322.665 141.213 322.345 142.52 321.705 143.48C321.065 144.387 320.105 145.053 318.825 145.48C316.372 146.28 313.759 146.68 310.985 146.68C308.639 146.68 306.425 146.36 304.345 145.72C302.799 148.227 301.092 150.813 299.225 153.48C297.092 156.52 295.252 158.6 293.705 159.72C292.159 160.84 290.399 161.4 288.425 161.4C286.239 161.4 284.505 160.547 283.225 158.84C281.999 157.133 281.225 154.44 280.905 150.76C280.265 143.293 279.945 136.76 279.945 131.16V128.36C279.999 126.6 280.479 125.373 281.385 124.68C282.292 123.987 283.652 123.64 285.465 123.64C286.852 123.64 287.865 123.96 288.505 124.6C289.199 125.187 289.545 126.2 289.545 127.64C289.545 133.773 289.919 141.747 290.665 151.56C293.865 146.813 296.265 143.027 297.865 140.2C297.065 138.653 296.665 136.813 296.665 134.68C296.665 132.867 297.065 131.107 297.865 129.4C298.665 127.693 299.759 126.307 301.145 125.24C302.532 124.173 304.105 123.64 305.865 123.64C307.412 123.64 308.665 124.2 309.625 125.32C310.585 126.387 311.065 127.96 311.065 130.04C311.065 132.44 310.425 135.187 309.145 138.28C311.172 138.173 313.865 137.773 317.225 137.08L319.385 136.68ZM325.563 161.4C322.256 161.4 319.616 160.2 317.643 157.8C315.669 155.4 314.683 152.253 314.683 148.36C314.683 144.093 315.669 140.067 317.643 136.28C319.616 132.44 322.229 129.373 325.483 127.08C328.789 124.733 332.283 123.56 335.963 123.56C337.136 123.56 337.909 123.8 338.283 124.28C338.709 124.707 339.056 125.507 339.323 126.68C340.443 126.467 341.616 126.36 342.843 126.36C345.456 126.36 346.763 127.293 346.763 129.16C346.763 130.28 346.363 132.947 345.563 137.16C344.336 143.293 343.723 147.56 343.723 149.96C343.723 150.76 343.909 151.4 344.283 151.88C344.709 152.36 345.243 152.6 345.883 152.6C346.896 152.6 348.123 151.96 349.563 150.68C351.003 149.347 352.949 147.213 355.403 144.28C356.043 143.533 356.763 143.16 357.563 143.16C358.256 143.16 358.789 143.48 359.163 144.12C359.589 144.76 359.803 145.64 359.803 146.76C359.803 148.893 359.296 150.547 358.283 151.72C356.096 154.44 353.776 156.733 351.323 158.6C348.869 160.467 346.496 161.4 344.203 161.4C342.443 161.4 340.816 160.813 339.323 159.64C337.883 158.413 336.789 156.76 336.043 154.68C333.269 159.16 329.776 161.4 325.563 161.4ZM328.443 153.32C329.616 153.32 330.736 152.627 331.803 151.24C332.869 149.853 333.643 148.013 334.123 145.72L337.083 131C334.843 131.053 332.763 131.907 330.843 133.56C328.976 135.16 327.483 137.293 326.363 139.96C325.243 142.627 324.683 145.453 324.683 148.44C324.683 150.093 325.003 151.32 325.643 152.12C326.336 152.92 327.269 153.32 328.443 153.32ZM395.861 136.44C396.554 136.44 397.088 136.787 397.461 137.48C397.834 138.173 398.021 139.053 398.021 140.12C398.021 141.453 397.834 142.493 397.461 143.24C397.088 143.933 396.501 144.413 395.701 144.68C392.501 145.8 388.981 146.44 385.141 146.6C384.074 151.027 382.048 154.6 379.061 157.32C376.128 160.04 372.874 161.4 369.301 161.4C363.914 161.4 359.994 159.347 357.541 155.24C355.088 151.133 353.861 145.187 353.861 137.4C353.861 130.52 354.714 123.053 356.421 115C358.128 106.893 360.608 100.013 363.861 94.36C367.168 88.6533 371.088 85.8 375.621 85.8C378.074 85.8 380.048 86.8667 381.541 89C383.034 91.08 383.781 93.8 383.781 97.16C383.781 101.533 382.954 105.88 381.301 110.2C379.648 114.52 376.901 119.053 373.061 123.8C376.634 124.067 379.541 125.56 381.781 128.28C384.021 130.947 385.354 134.253 385.781 138.2C388.288 138.04 391.274 137.507 394.741 136.6C395.061 136.493 395.434 136.44 395.861 136.44ZM373.781 93.72C372.714 93.72 371.541 95.32 370.261 98.52C369.034 101.667 367.888 105.96 366.821 111.4C365.754 116.84 364.954 122.787 364.421 129.24C367.941 122.787 370.741 117.107 372.821 112.2C374.954 107.24 376.021 102.84 376.021 99C376.021 97.2933 375.808 95.9867 375.381 95.08C375.008 94.1733 374.474 93.72 373.781 93.72ZM369.621 152.92C371.274 152.92 372.741 152.227 374.021 150.84C375.301 149.453 376.154 147.453 376.581 144.84C374.928 143.72 373.648 142.253 372.741 140.44C371.888 138.627 371.461 136.707 371.461 134.68C371.461 133.933 371.568 132.92 371.781 131.64H371.541C369.354 131.64 367.514 132.733 366.021 134.92C364.581 137.053 363.861 139.933 363.861 143.56C363.861 146.6 364.421 148.92 365.541 150.52C366.714 152.12 368.074 152.92 369.621 152.92ZM421.433 143.16C422.127 143.16 422.66 143.48 423.033 144.12C423.46 144.76 423.673 145.64 423.673 146.76C423.673 148.893 423.167 150.547 422.153 151.72C419.86 154.547 417.353 156.867 414.633 158.68C411.967 160.493 408.927 161.4 405.513 161.4C400.82 161.4 397.327 159.267 395.033 155C392.793 150.733 391.673 145.213 391.673 138.44C391.673 131.933 392.5 124.52 394.153 116.2C395.86 107.88 398.34 100.733 401.593 94.76C404.9 88.7867 408.82 85.8 413.353 85.8C415.913 85.8 417.913 87 419.353 89.4C420.847 91.7467 421.593 95.1333 421.593 99.56C421.593 105.907 419.833 113.267 416.313 121.64C412.793 130.013 408.02 138.307 401.993 146.52C402.367 148.707 402.98 150.28 403.833 151.24C404.687 152.147 405.807 152.6 407.193 152.6C409.38 152.6 411.3 151.987 412.953 150.76C414.607 149.48 416.713 147.32 419.273 144.28C419.913 143.533 420.633 143.16 421.433 143.16ZM411.593 93.72C410.367 93.72 408.98 95.9333 407.433 100.36C405.887 104.787 404.527 110.28 403.353 116.84C402.18 123.4 401.54 129.693 401.433 135.72C405.22 129.48 408.233 123.24 410.473 117C412.713 110.707 413.833 104.973 413.833 99.8C413.833 95.7467 413.087 93.72 411.593 93.72ZM445.207 123.72C446.434 123.72 447.287 123.88 447.767 124.2C448.247 124.52 448.487 125.053 448.487 125.8C448.487 127.08 447.794 131.64 446.407 139.48C445.181 147 444.461 151.453 444.247 152.84C442.274 166.547 439.554 177.4 436.087 185.4C432.621 193.4 428.007 197.4 422.247 197.4C419.527 197.4 417.314 196.547 415.607 194.84C413.901 193.187 413.047 191 413.047 188.28C413.047 185.773 413.607 183.213 414.727 180.6C415.901 177.987 418.034 174.973 421.127 171.56C424.274 168.2 428.701 164.333 434.407 159.96L434.647 158.12C435.021 156.147 435.447 153.32 435.927 149.64C434.861 153.48 433.367 156.413 431.447 158.44C429.527 160.413 427.501 161.4 425.367 161.4C422.967 161.4 420.994 160.307 419.447 158.12C417.954 155.88 417.207 153.107 417.207 149.8C417.207 145.8 417.474 142.147 418.007 138.84C418.541 135.48 419.421 131.933 420.647 128.2C421.181 126.6 421.927 125.453 422.887 124.76C423.847 124.067 425.367 123.72 427.447 123.72C428.621 123.72 429.421 123.907 429.847 124.28C430.327 124.653 430.567 125.213 430.567 125.96C430.567 126.387 430.274 127.827 429.687 130.28C429.154 132.253 428.727 134.04 428.407 135.64C427.981 137.827 427.607 139.933 427.287 141.96C426.967 143.933 426.807 145.56 426.807 146.84C426.807 148.867 427.367 149.88 428.487 149.88C429.287 149.88 430.274 149.08 431.447 147.48C432.674 145.88 433.954 143.453 435.287 140.2C436.674 136.947 438.007 132.947 439.287 128.2C439.714 126.6 440.354 125.453 441.207 124.76C442.114 124.067 443.447 123.72 445.207 123.72ZM423.127 189.64C424.461 189.64 425.954 188.093 427.607 185C429.261 181.907 430.914 176.76 432.567 169.56C428.461 173.027 425.474 176.173 423.607 179C421.794 181.88 420.887 184.387 420.887 186.52C420.887 187.427 421.047 188.173 421.367 188.76C421.741 189.347 422.327 189.64 423.127 189.64ZM541.837 143.32C542.53 143.32 543.063 143.667 543.437 144.36C543.863 145 544.077 145.827 544.077 146.84C544.077 148.067 543.89 149.027 543.517 149.72C543.143 150.413 542.557 151.027 541.757 151.56C538.61 153.64 533.597 157.053 526.717 161.8C524.637 172.84 521.943 181.533 518.637 187.88C515.33 194.227 511.143 197.4 506.077 197.4C503.357 197.4 501.143 196.547 499.437 194.84C497.73 193.187 496.877 191 496.877 188.28C496.877 185.773 497.437 183.24 498.557 180.68C499.677 178.12 501.757 175.16 504.797 171.8C507.89 168.44 512.237 164.6 517.837 160.28L518.077 158.76C513.863 160.52 509.73 161.4 505.677 161.4C499.703 161.4 494.45 160.253 489.917 157.96C485.383 155.613 481.863 152.307 479.357 148.04C476.85 143.773 475.597 138.813 475.597 133.16C475.597 125.267 477.09 118.307 480.077 112.28C483.063 106.2 487.17 101.507 492.397 98.2C497.677 94.84 503.57 93.16 510.077 93.16C516.317 93.16 520.983 94.6267 524.077 97.56C527.223 100.44 528.797 104.28 528.797 109.08C528.797 112.227 528.21 114.76 527.037 116.68C525.917 118.547 524.29 119.48 522.157 119.48C520.717 119.48 519.543 119.133 518.637 118.44C517.783 117.747 517.357 116.787 517.357 115.56C517.357 115.027 517.463 114.12 517.677 112.84C517.997 111.347 518.157 110.173 518.157 109.32C518.157 107.08 517.463 105.347 516.077 104.12C514.743 102.893 512.477 102.28 509.277 102.28C505.383 102.28 501.757 103.4 498.397 105.64C495.09 107.88 492.423 111.24 490.397 115.72C488.37 120.147 487.357 125.48 487.357 131.72C487.357 138.12 489.09 143.08 492.557 146.6C496.077 150.067 501.143 151.8 507.757 151.8C511.437 151.8 515.277 150.973 519.277 149.32L520.397 139.56H512.237C510.743 139.56 509.597 139.213 508.797 138.52C507.997 137.773 507.597 136.573 507.597 134.92C507.597 133.427 507.997 132.253 508.797 131.4C509.597 130.547 510.663 130.12 511.997 130.12H526.957C528.13 130.12 529.09 130.52 529.837 131.32C530.637 132.067 530.957 133.16 530.797 134.6C530.637 136.307 530.103 140.173 529.197 146.2L528.317 152.28C532.583 149.08 536.477 146.307 539.997 143.96C540.69 143.533 541.303 143.32 541.837 143.32ZM506.957 189.64C508.343 189.64 509.863 188.067 511.517 184.92C513.17 181.773 514.717 176.707 516.157 169.72C512.103 173.187 509.17 176.307 507.357 179.08C505.597 181.907 504.717 184.387 504.717 186.52C504.717 188.6 505.463 189.64 506.957 189.64ZM579.96 136.44C580.654 136.44 581.187 136.787 581.56 137.48C581.934 138.173 582.12 139.053 582.12 140.12C582.12 142.68 581.347 144.2 579.8 144.68C576.6 145.8 573.08 146.44 569.24 146.6C568.227 151.08 566.227 154.68 563.24 157.4C560.254 160.067 556.867 161.4 553.08 161.4C549.88 161.4 547.134 160.627 544.84 159.08C542.6 157.533 540.894 155.48 539.72 152.92C538.547 150.36 537.96 147.587 537.96 144.6C537.96 140.547 538.734 136.947 540.28 133.8C541.827 130.6 543.96 128.12 546.68 126.36C549.4 124.547 552.414 123.64 555.72 123.64C559.774 123.64 563.027 125.053 565.48 127.88C567.987 130.653 569.454 134.093 569.88 138.2C572.387 138.04 575.374 137.507 578.84 136.6C579.267 136.493 579.64 136.44 579.96 136.44ZM553.72 152.92C555.427 152.92 556.894 152.227 558.12 150.84C559.4 149.453 560.254 147.453 560.68 144.84C559.027 143.72 557.747 142.253 556.84 140.44C555.987 138.627 555.56 136.707 555.56 134.68C555.56 133.827 555.64 132.973 555.8 132.12H555.4C553.267 132.12 551.48 133.16 550.04 135.24C548.654 137.267 547.96 140.147 547.96 143.88C547.96 146.813 548.52 149.053 549.64 150.6C550.814 152.147 552.174 152.92 553.72 152.92ZM616.054 136.44C616.747 136.44 617.281 136.787 617.654 137.48C618.027 138.173 618.214 139.053 618.214 140.12C618.214 142.68 617.441 144.2 615.894 144.68C612.694 145.8 609.174 146.44 605.334 146.6C604.321 151.08 602.321 154.68 599.334 157.4C596.347 160.067 592.961 161.4 589.174 161.4C585.974 161.4 583.227 160.627 580.934 159.08C578.694 157.533 576.987 155.48 575.814 152.92C574.641 150.36 574.054 147.587 574.054 144.6C574.054 140.547 574.827 136.947 576.374 133.8C577.921 130.6 580.054 128.12 582.774 126.36C585.494 124.547 588.507 123.64 591.814 123.64C595.867 123.64 599.121 125.053 601.574 127.88C604.081 130.653 605.547 134.093 605.974 138.2C608.481 138.04 611.467 137.507 614.934 136.6C615.361 136.493 615.734 136.44 616.054 136.44ZM589.814 152.92C591.521 152.92 592.987 152.227 594.214 150.84C595.494 149.453 596.347 147.453 596.774 144.84C595.121 143.72 593.841 142.253 592.934 140.44C592.081 138.627 591.654 136.707 591.654 134.68C591.654 133.827 591.734 132.973 591.894 132.12H591.494C589.361 132.12 587.574 133.16 586.134 135.24C584.747 137.267 584.054 140.147 584.054 143.88C584.054 146.813 584.614 149.053 585.734 150.6C586.907 152.147 588.267 152.92 589.814 152.92ZM640.468 143.16C641.054 147.533 641.908 151.853 643.028 156.12C643.241 156.813 643.348 157.533 643.348 158.28C643.348 160.68 641.881 161.88 638.948 161.88C637.294 161.88 636.014 161.427 635.108 160.52C634.254 159.613 633.454 157.907 632.708 155.4L632.628 155.08C630.601 157.587 628.761 159.267 627.108 160.12C625.508 160.973 623.641 161.4 621.508 161.4C618.254 161.4 615.561 160.2 613.428 157.8C611.348 155.347 610.308 152.173 610.308 148.28C610.308 144.013 611.214 140.067 613.028 136.44C614.841 132.813 617.321 129.853 620.468 127.56C623.614 125.213 627.134 123.8 631.028 123.32C632.041 113.24 633.961 104.467 636.788 97C639.668 89.5333 643.481 85.8 648.228 85.8C650.521 85.8 652.414 86.84 653.908 88.92C655.454 91 656.228 94.1467 656.228 98.36C656.228 104.227 654.788 111.08 651.908 118.92C649.028 126.76 645.214 134.84 640.468 143.16ZM647.348 93.64C645.801 93.64 644.334 97.5867 642.948 105.48C641.614 113.373 640.708 121.96 640.228 131.24C646.148 118.44 649.108 108.04 649.108 100.04C649.108 98.0133 648.921 96.44 648.548 95.32C648.228 94.2 647.828 93.64 647.348 93.64ZM624.308 153.32C625.374 153.32 626.388 152.92 627.348 152.12C628.361 151.32 629.641 149.773 631.188 147.48C630.654 143.587 630.388 139.56 630.388 135.4C630.388 133.747 630.414 132.467 630.468 131.56C627.534 132.413 625.108 134.36 623.188 137.4C621.268 140.44 620.308 143.8 620.308 147.48C620.308 151.373 621.641 153.32 624.308 153.32ZM659.524 161.4C657.177 161.4 655.391 160.76 654.164 159.48C652.991 158.2 652.404 156.52 652.404 154.44C652.404 152.04 653.071 150.12 654.404 148.68C655.791 147.24 657.711 146.52 660.164 146.52C662.511 146.52 664.271 147.107 665.444 148.28C666.671 149.4 667.284 151.08 667.284 153.32C667.284 155.773 666.591 157.747 665.204 159.24C663.817 160.68 661.924 161.4 659.524 161.4Z" fill="#6B534C"/>
</svg>
