<svg width="299" height="256" viewBox="0 0 299 256" fill="none" xmlns="http://www.w3.org/2000/svg">
<path d="M23.7014 9.6C25.8161 9.6 28.0694 10.172 30.4614 11.316C32.8534 12.4253 34.9508 14.4707 36.7534 17.452C38.5561 20.4333 39.4574 24.4893 39.4574 29.62C39.4574 34.3 38.3308 37.8533 36.0774 40.28C33.8588 42.672 31.5188 44.2147 29.0574 44.908C26.5961 45.5667 24.5508 45.896 22.9214 45.896L18.6574 45.948C17.8948 45.9827 16.9588 46 15.8494 46C15.1908 46 14.8614 45.4107 14.8614 44.232L14.9134 42.88L14.8094 40.28L14.7574 37.94L14.7054 36.38C14.5668 34.5773 14.4974 32.532 14.4974 30.244C14.4974 28.892 14.5668 27.1067 14.7054 24.888C14.8441 22.6693 14.9134 20.8493 14.9134 19.428L14.8614 12.46C14.8268 11.9053 14.8094 11.2813 14.8094 10.588C14.8094 10.2067 15.0521 9.98133 15.5374 9.912C16.0574 9.808 16.5948 9.77333 17.1494 9.808C17.7041 9.808 18.0854 9.808 18.2934 9.808L20.1654 9.704C21.6214 9.63466 22.8001 9.6 23.7014 9.6ZM23.8054 34.872C24.7414 34.4213 25.6081 33.7973 26.4054 33C28.1388 31.336 29.0054 29.36 29.0054 27.072C29.0054 24.888 28.1734 23.1373 26.5094 21.82C25.7814 21.2653 24.9668 20.8493 24.0654 20.572C24.1348 21.3347 24.1694 21.924 24.1694 22.34C24.1694 22.9987 24.1348 23.952 24.0654 25.2C23.9961 26.3787 23.9614 27.2453 23.9614 27.8C23.9614 28.7013 23.9268 30.1573 23.8574 32.168C23.8228 32.7573 23.8054 33.6587 23.8054 34.872ZM66.3492 11.992C66.3492 12.7893 66.2798 13.188 66.1412 13.188C65.9332 13.188 65.6905 13.1707 65.4132 13.136C65.1705 13.0667 64.8585 13.032 64.4772 13.032H56.1572L49.7092 12.98C49.5012 12.98 48.7212 13.032 47.3692 13.136L46.1732 13.24L46.0692 14.644C46.0345 15.164 46.0172 15.9787 46.0172 17.088C46.0172 17.6427 46.0518 18.3707 46.1212 19.272C46.1905 20.104 46.2252 20.7107 46.2252 21.092V23.172C46.2252 23.7267 46.2425 24.16 46.2772 24.472C46.5892 24.5067 47.0572 24.524 47.6812 24.524H49.7612C49.9692 24.524 50.3852 24.4893 51.0092 24.42C51.9105 24.3507 52.6905 24.316 53.3492 24.316C53.6265 24.316 54.5972 24.368 56.2612 24.472L57.4052 24.524C57.6825 24.524 58.0812 24.5067 58.6012 24.472C59.1212 24.4027 59.6238 24.368 60.1092 24.368L61.8252 24.42C62.7265 24.4893 63.3505 24.524 63.6972 24.524C64.0785 24.524 64.3385 24.5067 64.4772 24.472L64.7892 24.42C65.0318 24.42 65.2052 24.5067 65.3092 24.68C65.4132 24.8187 65.4478 24.9573 65.4132 25.096C65.3785 25.3387 65.3612 25.6507 65.3612 26.032C65.3612 26.3787 65.3438 26.6907 65.3092 26.968C65.2745 27.2453 65.2225 27.4187 65.1532 27.488C65.0838 27.5227 64.8758 27.54 64.5292 27.54L62.4492 27.332C59.8492 27.0893 58.1505 26.968 57.3532 26.968C54.4065 26.968 52.2398 27.02 50.8532 27.124C50.2985 27.1933 49.6918 27.228 49.0332 27.228C48.3745 27.228 47.9585 27.228 47.7852 27.228C47.1265 27.228 46.6412 27.2107 46.3292 27.176L46.1732 28.008C46.1038 28.632 46.0692 29.1867 46.0692 29.672C46.0692 30.088 46.1038 30.5733 46.1732 31.128C46.2425 31.6827 46.2772 32.168 46.2772 32.584L46.3292 38.772L46.2772 41.372C46.2425 41.684 46.2252 42.1173 46.2252 42.672C46.6758 42.7067 47.3345 42.724 48.2012 42.724C48.9292 42.7587 50.0558 42.776 51.5812 42.776L54.3892 42.828C54.9785 42.8627 55.8798 42.88 57.0932 42.88C57.8212 42.88 58.7745 42.8453 59.9532 42.776L62.1372 42.724C62.9692 42.724 63.6625 42.7413 64.2172 42.776C64.7718 42.8107 65.1878 42.828 65.4652 42.828C65.7425 42.828 65.8985 42.88 65.9332 42.984C66.0025 43.088 66.0372 43.3133 66.0372 43.66C66.0372 43.9027 66.0198 44.1627 65.9852 44.44C65.9505 44.6827 65.9332 44.96 65.9332 45.272C65.9332 45.5147 65.8465 45.688 65.6732 45.792C65.4998 45.8613 65.2225 45.896 64.8412 45.896C64.4598 45.896 64.1478 45.8787 63.9052 45.844C62.9692 45.74 61.0798 45.688 58.2372 45.688C56.5038 45.688 55.2558 45.7053 54.4932 45.74C53.9038 45.7747 52.9332 45.792 51.5812 45.792L46.7452 45.74C46.1905 45.7053 45.5318 45.688 44.7692 45.688C44.2838 45.688 43.9545 45.636 43.7812 45.532C43.6425 45.3933 43.5732 45.1853 43.5732 44.908L43.6252 44.076C43.6598 43.9373 43.6772 43.7813 43.6772 43.608C43.6772 43.504 43.6598 43.2613 43.6252 42.88C43.5905 42.464 43.5732 41.7187 43.5732 40.644C43.5732 39.604 43.5385 37.9053 43.4692 35.548C43.3652 33.6067 43.3132 31.7347 43.3132 29.932C43.3132 29.1693 43.3998 26.968 43.5732 23.328C43.6078 22.6 43.6425 21.872 43.6772 21.144C43.7118 20.416 43.7292 19.7573 43.7292 19.168C43.7292 15.1467 43.6772 12.4947 43.5732 11.212C43.4692 10.38 43.9718 9.964 45.0812 9.964C45.3585 9.964 45.8092 9.99867 46.4332 10.068C46.9878 10.1373 47.4038 10.172 47.6812 10.172L50.9572 10.068C53.3145 9.92933 55.1345 9.86 56.4172 9.86C57.9078 9.86 60.0052 9.89466 62.7092 9.964C63.5758 9.99867 64.4945 10.016 65.4652 10.016C65.8812 10.016 66.1412 10.12 66.2452 10.328C66.3492 10.536 66.3838 10.7613 66.3492 11.004C66.3492 11.212 66.3492 11.3507 66.3492 11.42V11.992ZM75.5398 13.032C75.3664 17.8853 75.2798 20.52 75.2798 20.936L75.2278 28.372C75.2278 29.0307 75.2451 29.6027 75.2798 30.088L75.3318 33.208C75.3318 33.936 75.3144 34.3867 75.2798 34.56C75.2451 34.768 75.2278 34.9587 75.2278 35.132C75.2624 35.3053 75.2798 35.4267 75.2798 35.496C75.2798 35.6347 75.2971 35.7213 75.3318 35.756L76.5798 35.86C77.6891 35.9293 78.6078 35.9467 79.3358 35.912L88.9558 35.808C88.9558 35.808 90.7758 35.86 94.4158 35.964L96.8598 36.016C97.2411 36.0507 97.4318 36.1547 97.4318 36.328C97.4318 36.3973 97.4144 36.484 97.3798 36.588C97.3451 36.692 97.3278 36.796 97.3278 36.9V39.292C97.3278 39.916 97.4318 41.2333 97.6398 43.244L97.8478 45.428L97.8998 45.688C97.8998 45.8613 97.8131 45.9653 97.6398 46C97.4664 46.0693 97.1544 46.104 96.7038 46.104L92.9078 46.052L86.4598 45.948C85.5931 45.948 84.3798 46 82.8198 46.104C82.1264 46.1387 81.3464 46.1733 80.4798 46.208C79.6478 46.2427 78.8158 46.26 77.9838 46.26L77.0998 46.208C76.8918 46.1733 76.4931 46.156 75.9038 46.156L73.5638 46.208C73.1478 46.2427 72.6104 46.26 71.9518 46.26C71.5011 46.26 71.2238 46.1907 71.1198 46.052C71.0504 45.948 71.0158 45.7747 71.0158 45.532C71.0504 45.2893 71.0678 45.0813 71.0678 44.908C71.0678 44.1453 71.1198 42.828 71.2238 40.956L71.3798 35.6L71.2757 33.156C71.2411 32.6707 71.2064 32.0987 71.1718 31.44C71.1371 30.7467 71.1198 30.036 71.1198 29.308C71.1198 30.4867 71.2238 29.308 71.4318 25.772C71.6398 22.2013 71.7438 20 71.7438 19.168L71.6918 13.292L71.5878 9.964V9.912C71.5878 9.63467 71.7784 9.496 72.1598 9.496L72.8878 9.548C73.0611 9.548 73.2864 9.56533 73.5638 9.6C73.8411 9.6 74.2744 9.6 74.8638 9.6H75.3318C75.5398 9.6 75.6438 9.73866 75.6438 10.016L75.5398 13.032ZM103.989 11.264C103.885 12.0267 103.798 13.9853 103.729 17.14C103.729 18.1107 103.66 20.572 103.521 24.524C103.382 28.3373 103.313 30.66 103.313 31.492C103.313 33.5027 103.348 36.0507 103.417 39.136C103.486 42.1867 103.556 44.0067 103.625 44.596C103.66 44.804 103.677 45.0467 103.677 45.324C103.677 45.5667 103.625 45.74 103.521 45.844C103.452 45.948 103.33 46.052 103.157 46.156C102.949 46.2947 102.412 46.364 101.545 46.364C101.406 46.364 101.181 46.364 100.869 46.364C100.592 46.364 100.418 46.3293 100.349 46.26C100.28 46.1907 100.245 46.052 100.245 45.844L100.297 44.18L100.401 37.368L100.505 26.448C100.505 25.408 100.574 23.0507 100.713 19.376C100.748 18.5093 100.8 17.1053 100.869 15.164C100.938 13.188 100.938 12.0267 100.869 11.68L100.817 10.588C100.817 9.68667 101.094 9.236 101.649 9.236L103.573 9.288C103.92 9.288 104.093 9.53067 104.093 10.016C104.093 10.1893 104.076 10.3973 104.041 10.64C104.006 10.848 103.989 11.056 103.989 11.264ZM120.23 17.712C119.363 17.712 118.496 18.076 117.63 18.804C116.798 19.532 116.087 20.7453 115.498 22.444C114.908 24.108 114.614 26.2573 114.614 28.892C114.614 31.4573 114.978 33.5027 115.706 35.028C116.468 36.5187 117.318 37.5587 118.254 38.148C119.224 38.7373 120.056 39.032 120.75 39.032C121.374 39.032 122.015 38.824 122.674 38.408C123.332 37.9573 123.904 37.4893 124.39 37.004C124.459 36.9347 124.563 36.8133 124.702 36.64C124.875 36.4667 125.031 36.38 125.17 36.38C125.343 36.38 125.551 36.4493 125.794 36.588L130.214 39.032C130.352 39.1013 130.56 39.2053 130.838 39.344C131.15 39.448 131.358 39.552 131.462 39.656C131.6 39.76 131.67 39.8987 131.67 40.072C131.67 40.2453 131.618 40.436 131.514 40.644C130.751 41.9267 129.555 43.244 127.926 44.596C126.296 45.948 124.043 46.624 121.166 46.624C118.912 46.624 116.746 45.792 114.666 44.128C112.62 42.4293 110.974 40.124 109.726 37.212C108.478 34.3 107.854 31.0933 107.854 27.592C107.854 24.1253 108.443 21.0053 109.622 18.232C110.835 15.4587 112.378 13.292 114.25 11.732C116.122 10.172 118.046 9.392 120.022 9.392C122.483 9.392 124.459 9.912 125.95 10.952C127.475 11.9573 128.567 12.928 129.226 13.864C129.364 14.072 129.486 14.2627 129.59 14.436C129.728 14.6093 129.798 14.7827 129.798 14.956C129.798 15.164 129.607 15.4413 129.226 15.788C127.631 17.036 126.487 18.128 125.794 19.064C125.447 19.5147 125.152 19.8613 124.91 20.104C124.667 20.312 124.424 20.416 124.182 20.416C123.939 20.416 123.662 20.2427 123.35 19.896C122.622 19.0987 122.05 18.544 121.634 18.232C121.252 17.8853 120.784 17.712 120.23 17.712ZM138.238 9.34C138.689 9.37466 139.122 9.392 139.538 9.392C139.989 9.35733 140.37 9.34 140.682 9.34C141.445 9.34 142 9.35733 142.346 9.392C142.762 9.42667 143.057 9.51333 143.23 9.652C143.404 9.79066 143.49 9.98133 143.49 10.224C143.49 10.3973 143.473 10.588 143.438 10.796C143.404 11.004 143.369 11.1947 143.334 11.368C142.953 14.3147 142.745 17.348 142.71 20.468C142.676 21.3693 142.658 22.756 142.658 24.628L142.71 30.92C142.745 31.44 142.762 31.9773 142.762 32.532L142.814 34.612C142.884 36.4147 142.918 37.7493 142.918 38.616C142.918 39.2747 142.901 39.6733 142.866 39.812C142.832 39.9507 142.814 40.3493 142.814 41.008L142.866 43.868C142.901 44.284 142.918 44.804 142.918 45.428C142.953 45.8787 142.814 46.156 142.502 46.26C142.225 46.3987 141.844 46.4507 141.358 46.416H136.626C136.106 46.4507 135.777 46.3293 135.638 46.052C135.5 45.8093 135.413 45.3933 135.378 44.804C135.309 44.5613 135.344 43.92 135.482 42.88C135.621 41.9093 135.69 41.0773 135.69 40.384C135.69 40.1413 135.812 37.8013 136.054 33.364C136.262 30.1053 136.366 28.32 136.366 28.008L136.47 22.912L136.574 18.18L136.678 15.372L136.782 13.5V11.316C136.782 9.964 137.129 9.288 137.822 9.288C137.996 9.288 138.134 9.30533 138.238 9.34ZM160.243 8.872C163.71 8.872 166.31 9.87733 168.043 11.888C169.776 13.864 170.886 16.2213 171.371 18.96C171.856 21.664 172.099 24.732 172.099 28.164C172.099 30.9373 171.683 33.7973 170.851 36.744C170.019 39.656 168.736 42.1173 167.003 44.128C165.27 46.1387 163.138 47.144 160.607 47.144C155.65 47.144 152.356 45.064 150.727 40.904C149.098 36.7093 148.283 32.22 148.283 27.436C148.283 22.8253 148.907 19.1333 150.155 16.36C151.438 13.5867 152.98 11.6453 154.783 10.536C156.62 9.42666 158.44 8.872 160.243 8.872ZM160.191 33.936C161.127 33.936 161.82 33.416 162.271 32.376C162.722 31.336 162.947 30.088 162.947 28.632C162.947 27.2453 162.722 26.032 162.271 24.992C161.855 23.952 161.283 23.432 160.555 23.432C159.688 23.432 159.03 24.0387 158.579 25.252C158.163 26.4307 157.955 27.7133 157.955 29.1C157.955 30.5213 158.094 31.6827 158.371 32.584C158.648 33.4853 159.255 33.936 160.191 33.936ZM187.696 30.504C187.696 31.2667 187.731 31.9253 187.8 32.48C187.904 33.0347 188.164 33.572 188.58 34.092C189.031 34.5773 189.741 34.82 190.712 34.82C192.064 34.82 192.983 34.3173 193.468 33.312C193.953 32.272 194.196 31.1453 194.196 29.932L194.248 27.332C194.352 23.484 194.404 21.3347 194.404 20.884C194.404 19.9133 194.387 19.2547 194.352 18.908C194.352 17.6947 194.283 15.84 194.144 13.344L194.04 10.484C194.04 9.86 194.127 9.42667 194.3 9.184C194.473 8.94133 194.803 8.82 195.288 8.82H201.892L202.672 8.768C203.019 8.768 203.296 8.872 203.504 9.08C203.747 9.288 203.903 9.704 203.972 10.328C204.041 10.9173 204.076 12.9627 204.076 16.464L204.024 27.644C204.024 29.5853 203.712 31.9253 203.088 34.664C202.464 37.368 201.164 39.8813 199.188 42.204C197.212 44.5267 194.387 45.688 190.712 45.688C182.461 45.688 178.024 41.736 177.4 33.832C177.365 33.4853 177.348 32.792 177.348 31.752C177.348 30.6773 177.383 28.788 177.452 26.084C177.556 22.964 177.591 20.6413 177.556 19.116C177.556 17.036 177.521 14.852 177.452 12.564C177.417 11.9053 177.4 11.2293 177.4 10.536C177.4 10.3973 177.383 10.1373 177.348 9.756C177.348 9.37467 177.417 9.09733 177.556 8.924C177.729 8.75066 178.024 8.664 178.44 8.664L181.456 8.716C182.149 8.716 182.652 8.69867 182.964 8.664C183.727 8.59466 184.351 8.56 184.836 8.56L186.916 8.612C187.228 8.612 187.419 8.69866 187.488 8.872C187.592 9.01066 187.661 9.288 187.696 9.704V30.504ZM221.081 9.34C224.097 9.34 226.333 9.92933 227.789 11.108C229.245 12.2867 230.008 12.9107 230.077 12.98C230.424 13.2227 230.597 13.4653 230.597 13.708C230.597 13.8467 230.528 13.9853 230.389 14.124C230.285 14.2627 230.077 14.5573 229.765 15.008C229.453 15.4587 229.211 15.684 229.037 15.684C228.864 15.684 228.639 15.5973 228.361 15.424L227.997 15.112C225.363 13.2053 223.109 12.252 221.237 12.252C218.845 12.252 217.025 12.8067 215.777 13.916C214.564 14.9907 213.957 16.36 213.957 18.024C213.957 19.4453 214.46 20.6587 215.465 21.664C216.505 22.6693 217.857 23.6227 219.521 24.524C220.007 24.732 220.509 24.9227 221.029 25.096C222.763 25.7547 224.271 26.4653 225.553 27.228C226.871 27.956 228.049 29.0827 229.089 30.608C230.129 32.0987 230.649 33.988 230.649 36.276C230.649 40.1933 229.315 42.88 226.645 44.336C223.976 45.7573 220.995 46.468 217.701 46.468C215.795 46.468 214.061 46.0347 212.501 45.168C210.976 44.3013 209.884 43.5387 209.225 42.88C208.879 42.568 208.792 42.256 208.965 41.944C209 41.8747 209.139 41.5973 209.381 41.112C209.659 40.6267 209.901 40.384 210.109 40.384H210.213C210.317 40.384 210.404 40.4187 210.473 40.488C210.577 40.5227 210.681 40.6093 210.785 40.748C210.924 40.8867 211.08 41.0427 211.253 41.216C211.704 41.6667 212.588 42.1867 213.905 42.776C215.223 43.3307 216.315 43.608 217.181 43.608C219.019 43.608 220.769 43.2267 222.433 42.464C224.097 41.6667 224.929 40.0027 224.929 37.472C224.929 36.3973 224.444 35.4613 223.473 34.664C222.537 33.8667 221.064 32.9307 219.053 31.856L216.817 30.608C214.391 29.2213 212.484 27.7307 211.097 26.136C209.745 24.5413 209.069 22.444 209.069 19.844C209.069 17.6947 209.676 15.8227 210.889 14.228C212.137 12.6333 213.68 11.42 215.517 10.588C217.389 9.756 219.244 9.34 221.081 9.34ZM246.038 15.008C245.899 17.8507 245.83 19.9827 245.83 21.404L245.934 29.256C245.968 30.504 245.986 31.7867 245.986 33.104L245.882 38.772L245.83 39.812L245.882 41.268L245.986 43.088L253.422 43.348L259.61 43.4H259.714C259.922 43.4 260.043 43.4347 260.078 43.504C260.112 43.5733 260.112 43.6773 260.078 43.816C260.078 43.92 260.078 44.0067 260.078 44.076C260.043 44.2147 260.043 44.4747 260.078 44.856C260.147 45.2373 260.182 45.584 260.182 45.896C260.182 46.1387 260.095 46.2947 259.922 46.364C259.748 46.4333 259.523 46.4507 259.246 46.416C259.003 46.416 258.812 46.416 258.674 46.416L255.918 46.26C253.491 46.052 251.775 45.948 250.77 45.948C249.66 45.948 246.852 46.052 242.346 46.26L237.614 46.416C236.851 46.416 236.47 46.0693 236.47 45.376V41.32L236.678 23.9C236.678 22.5827 236.591 20.1907 236.418 16.724L236.21 10.328C236.21 9.73867 236.435 9.444 236.886 9.444C237.059 9.444 237.354 9.496 237.77 9.6C238.186 9.704 238.515 9.756 238.758 9.756C239.728 9.89467 240.89 9.964 242.242 9.964C243.178 9.964 244.062 9.912 244.894 9.808C245.414 9.73867 245.778 9.77333 245.986 9.912C246.194 10.0507 246.298 10.276 246.298 10.588C246.298 10.8307 246.263 11.0907 246.194 11.368C246.159 11.6107 246.142 11.888 246.142 12.2L246.038 15.008ZM268.159 15.58C268.887 17.868 269.736 20.1213 270.707 22.34C271.158 23.38 271.643 24.6973 272.163 26.292C272.718 27.956 272.995 28.788 272.995 28.788L273.411 27.488L274.191 25.252C274.538 24.212 275.04 22.808 275.699 21.04C276.392 19.2373 276.86 18.0933 277.103 17.608C278.074 14.8 278.698 12.8067 278.975 11.628C279.148 10.9347 279.374 10.5013 279.651 10.328C279.928 10.1547 280.188 10.0853 280.431 10.12C280.708 10.12 280.882 10.12 280.951 10.12L283.759 10.068C284.626 10.068 285.371 10.1027 285.995 10.172C286.723 10.276 287.087 10.4493 287.087 10.692C287.087 10.7267 287.052 10.8827 286.983 11.16C286.914 11.3333 286.827 11.5587 286.723 11.836C286.654 12.0787 286.567 12.356 286.463 12.668C285.631 15.1293 285.094 16.6373 284.851 17.192C284.4 18.5093 283.638 20.4853 282.563 23.12L280.379 28.84C279.616 30.712 278.646 33.1387 277.467 36.12C276.288 39.1013 275.647 40.8 275.543 41.216C275.404 41.632 275.248 42.308 275.075 43.244C274.936 44.1453 274.832 44.7347 274.763 45.012C274.659 45.428 274.538 45.7227 274.399 45.896C274.295 46.0347 274.139 46.0867 273.931 46.052L270.863 46.104L266.755 46.156C266.304 46.156 266.079 46.052 266.079 45.844C266.079 45.74 266.096 45.6533 266.131 45.584C266.2 45.48 266.252 45.376 266.287 45.272L268.159 40.228C268.263 39.6733 268.523 38.928 268.939 37.992C269.043 37.7147 269.147 37.4547 269.251 37.212C269.355 36.9347 269.442 36.6573 269.511 36.38C269.58 36.172 269.684 35.9293 269.823 35.652C269.962 35.3747 270.048 35.1493 270.083 34.976C270.118 34.768 270.1 34.5773 270.031 34.404C270.031 34.404 269.84 33.8667 269.459 32.792C268.974 31.2667 268.644 30.296 268.471 29.88C268.263 29.36 267.986 28.5107 267.639 27.332C267.396 26.5347 267.171 25.824 266.963 25.2C266.686 24.5067 266.062 22.756 265.091 19.948C264.12 17.14 263.41 15.008 262.959 13.552C262.751 12.928 262.543 12.3907 262.335 11.94C262.092 11.3853 261.971 11.004 261.971 10.796C261.971 10.5533 262.092 10.3973 262.335 10.328C262.612 10.224 263.011 10.1547 263.531 10.12C264.051 10.0853 264.918 10.1027 266.131 10.172C266.408 10.2067 266.582 10.276 266.651 10.38C266.72 10.484 266.755 10.6227 266.755 10.796C266.755 10.9347 266.79 11.0907 266.859 11.264L268.159 15.58ZM84.4854 77.908C84.6587 79.0173 85.1267 81.444 85.8894 85.188L87.0334 90.336L87.7094 87.268C88.0214 85.8813 88.2987 84.304 88.5414 82.536C88.576 82.0507 88.732 81.2013 89.0094 79.988C89.3214 78.74 89.5467 77.804 89.6854 77.18C90.7254 73.332 91.2107 70.94 91.1414 70.004C91.072 69.1027 91.1587 68.548 91.4014 68.34C91.644 68.132 91.9214 68.0453 92.2334 68.08C92.58 68.08 92.8054 68.08 92.9094 68.08C96.2027 68.08 98.2654 68.132 99.0974 68.236C99.4787 68.2707 99.7387 68.34 99.8774 68.444C100.016 68.548 100.085 68.6867 100.085 68.86C100.085 69.0333 100.033 69.3107 99.9294 69.692C99.756 70.1427 99.4267 71.46 98.9414 73.644L98.6814 74.788C97.3987 81.34 96.3934 85.916 95.6654 88.516C95.1107 90.7347 94.504 94.028 93.8454 98.396C93.256 101.759 92.9267 103.527 92.8574 103.7C92.7534 104.047 92.6494 104.289 92.5454 104.428C92.4414 104.532 92.2854 104.584 92.0774 104.584L91.2454 104.532L87.7614 104.74C85.3347 104.879 83.8787 104.948 83.3934 104.948C82.8387 104.948 82.4747 104.809 82.3014 104.532C82.1627 104.22 82.0414 103.7 81.9374 102.972C81.5214 101.239 80.2734 96.472 78.1934 88.672C77.916 87.5973 76.9627 83.5067 75.3334 76.4L73.6174 69.12C73.548 68.8427 73.5134 68.6693 73.5134 68.6C73.5134 68.3227 73.704 68.184 74.0854 68.184C74.2934 68.184 74.536 68.2187 74.8134 68.288C75.0907 68.3227 75.3854 68.34 75.6974 68.34L78.2974 68.236L81.4694 68.132C82.0934 68.0627 82.5094 68.1667 82.7174 68.444C82.9254 68.6867 83.0987 69.12 83.2374 69.744C83.3414 70.1947 83.636 72.0667 84.1214 75.36L84.4854 77.908ZM126.677 70.992C126.677 71.7893 126.608 72.188 126.469 72.188C126.261 72.188 126.019 72.1707 125.741 72.136C125.499 72.0667 125.187 72.032 124.805 72.032H116.485L110.037 71.98C109.829 71.98 109.049 72.032 107.697 72.136L106.501 72.24L106.397 73.644C106.363 74.164 106.345 74.9787 106.345 76.088C106.345 76.6427 106.38 77.3707 106.449 78.272C106.519 79.104 106.553 79.7107 106.553 80.092V82.172C106.553 82.7267 106.571 83.16 106.605 83.472C106.917 83.5067 107.385 83.524 108.009 83.524H110.089C110.297 83.524 110.713 83.4893 111.337 83.42C112.239 83.3507 113.019 83.316 113.677 83.316C113.955 83.316 114.925 83.368 116.589 83.472L117.733 83.524C118.011 83.524 118.409 83.5067 118.929 83.472C119.449 83.4027 119.952 83.368 120.437 83.368L122.153 83.42C123.055 83.4893 123.679 83.524 124.025 83.524C124.407 83.524 124.667 83.5067 124.805 83.472L125.117 83.42C125.36 83.42 125.533 83.5067 125.637 83.68C125.741 83.8187 125.776 83.9573 125.741 84.096C125.707 84.3387 125.689 84.6507 125.689 85.032C125.689 85.3787 125.672 85.6907 125.637 85.968C125.603 86.2453 125.551 86.4187 125.481 86.488C125.412 86.5227 125.204 86.54 124.857 86.54L122.777 86.332C120.177 86.0893 118.479 85.968 117.681 85.968C114.735 85.968 112.568 86.02 111.181 86.124C110.627 86.1933 110.02 86.228 109.361 86.228C108.703 86.228 108.287 86.228 108.113 86.228C107.455 86.228 106.969 86.2107 106.657 86.176L106.501 87.008C106.432 87.632 106.397 88.1867 106.397 88.672C106.397 89.088 106.432 89.5733 106.501 90.128C106.571 90.6827 106.605 91.168 106.605 91.584L106.657 97.772L106.605 100.372C106.571 100.684 106.553 101.117 106.553 101.672C107.004 101.707 107.663 101.724 108.529 101.724C109.257 101.759 110.384 101.776 111.909 101.776L114.717 101.828C115.307 101.863 116.208 101.88 117.421 101.88C118.149 101.88 119.103 101.845 120.281 101.776L122.465 101.724C123.297 101.724 123.991 101.741 124.545 101.776C125.1 101.811 125.516 101.828 125.793 101.828C126.071 101.828 126.227 101.88 126.261 101.984C126.331 102.088 126.365 102.313 126.365 102.66C126.365 102.903 126.348 103.163 126.313 103.44C126.279 103.683 126.261 103.96 126.261 104.272C126.261 104.515 126.175 104.688 126.001 104.792C125.828 104.861 125.551 104.896 125.169 104.896C124.788 104.896 124.476 104.879 124.233 104.844C123.297 104.74 121.408 104.688 118.565 104.688C116.832 104.688 115.584 104.705 114.821 104.74C114.232 104.775 113.261 104.792 111.909 104.792L107.073 104.74C106.519 104.705 105.86 104.688 105.097 104.688C104.612 104.688 104.283 104.636 104.109 104.532C103.971 104.393 103.901 104.185 103.901 103.908L103.953 103.076C103.988 102.937 104.005 102.781 104.005 102.608C104.005 102.504 103.988 102.261 103.953 101.88C103.919 101.464 103.901 100.719 103.901 99.644C103.901 98.604 103.867 96.9053 103.797 94.548C103.693 92.6067 103.641 90.7347 103.641 88.932C103.641 88.1693 103.728 85.968 103.901 82.328C103.936 81.6 103.971 80.872 104.005 80.144C104.04 79.416 104.057 78.7573 104.057 78.168C104.057 74.1467 104.005 71.4947 103.901 70.212C103.797 69.38 104.3 68.964 105.409 68.964C105.687 68.964 106.137 68.9987 106.761 69.068C107.316 69.1373 107.732 69.172 108.009 69.172L111.285 69.068C113.643 68.9293 115.463 68.86 116.745 68.86C118.236 68.86 120.333 68.8947 123.037 68.964C123.904 68.9987 124.823 69.016 125.793 69.016C126.209 69.016 126.469 69.12 126.573 69.328C126.677 69.536 126.712 69.7613 126.677 70.004C126.677 70.212 126.677 70.3507 126.677 70.42V70.992ZM142.42 68.184C144.777 68.184 146.563 68.5827 147.776 69.38C149.024 70.1773 149.891 70.9227 150.376 71.616C150.861 72.2747 151.173 72.6733 151.312 72.812C151.589 73.124 151.728 73.4533 151.728 73.8C151.728 74.216 151.572 74.58 151.26 74.892C150.948 75.204 150.549 75.5507 150.064 75.932C149.613 76.3133 149.197 76.6427 148.816 76.92C148.643 77.024 148.487 77.076 148.348 77.076C148.036 77.076 147.724 76.92 147.412 76.608C147.343 76.5387 146.84 75.9667 145.904 74.892C144.968 73.7827 143.564 73.228 141.692 73.228C140.271 73.228 139.04 73.9907 138 75.516C136.96 77.0067 136.163 78.8267 135.608 80.976C135.088 83.0907 134.828 85.0667 134.828 86.904C134.828 88.8107 135.105 90.8387 135.66 92.988C136.215 95.1373 137.099 96.9747 138.312 98.5C139.56 100.025 141.12 100.788 142.992 100.788C145.488 100.788 147.395 99.8173 148.712 97.876C149.267 96.9747 149.631 95.9867 149.804 94.912H148.296L145.956 94.86L140.704 94.808C140.115 94.808 139.82 94.5307 139.82 93.976V91.948C139.82 91.6013 139.872 91.3933 139.976 91.324C140.08 91.22 140.219 91.168 140.392 91.168H142.784L153.444 90.908C153.756 90.908 153.981 91.064 154.12 91.376C154.293 91.688 154.363 92.104 154.328 92.624C154.328 93.8373 154.103 95.4147 153.652 97.356C153.201 99.2627 152.092 101.135 150.324 102.972C148.556 104.775 145.921 105.676 142.42 105.676C139.82 105.676 137.584 104.688 135.712 102.712C133.875 100.736 132.488 98.2053 131.552 95.12C130.651 92 130.2 88.8107 130.2 85.552C130.2 82.5013 130.755 79.6413 131.864 76.972C133.008 74.3027 134.516 72.1707 136.388 70.576C138.295 68.9813 140.305 68.184 142.42 68.184ZM181.534 104.272C181.638 104.515 181.69 104.688 181.69 104.792C181.69 104.931 181.5 105 181.118 105H178.206C178.068 105 177.946 104.983 177.842 104.948C177.773 104.879 177.704 104.74 177.634 104.532C177.496 104.151 177.305 103.527 177.062 102.66C176.75 101.793 176.542 101.013 176.438 100.32C176.334 99.8 176.161 99.176 175.918 98.448C175.71 97.72 175.52 97.1653 175.346 96.784C175.034 96.1253 174.757 95.38 174.514 94.548L174.046 93.04C173.873 92.6587 173.734 92.4333 173.63 92.364C173.561 92.26 173.422 92.208 173.214 92.208C172.486 92.208 171.949 92.2253 171.602 92.26L169.366 92.364C169.089 92.3987 167.806 92.416 165.518 92.416H162.346H162.242C162.034 92.416 161.878 92.6067 161.774 92.988L161.67 93.508L161.462 94.496C161.393 94.6693 161.168 95.6747 160.786 97.512C160.682 98.1013 160.509 98.864 160.266 99.8C160.197 100.493 160.041 101.065 159.798 101.516C159.729 101.62 159.642 101.863 159.538 102.244C159.434 102.625 159.348 102.937 159.278 103.18C159.174 103.457 159.053 103.908 158.914 104.532C158.88 104.567 158.845 104.653 158.81 104.792C158.776 104.896 158.724 104.965 158.654 105C158.585 105 158.481 105 158.342 105H157.302C156.99 105 156.904 104.775 157.042 104.324C157.042 104.22 157.06 104.133 157.094 104.064C157.094 103.995 157.112 103.908 157.146 103.804C157.181 103.7 157.233 103.544 157.302 103.336L157.77 101.412C157.84 101.204 157.961 100.84 158.134 100.32C158.308 99.8 158.429 99.3147 158.498 98.864C158.672 98.032 159.001 96.7667 159.486 95.068L159.902 93.612C160.561 91.4627 160.977 89.9547 161.15 89.088L161.878 86.332C162.225 85.188 162.433 84.46 162.502 84.148C162.745 83.108 163.092 81.808 163.542 80.248L163.906 78.792L164.218 77.7C164.565 76.5213 164.86 75.672 165.102 75.152C165.172 74.944 165.414 74.2333 165.83 73.02C166.281 71.772 166.576 70.784 166.714 70.056C166.957 69.224 167.2 68.6 167.442 68.184C167.72 67.768 168.084 67.56 168.534 67.56C168.708 67.56 168.881 67.716 169.054 68.028C169.228 68.34 169.401 68.7213 169.574 69.172C169.748 69.6227 169.869 69.952 169.938 70.16C170.216 70.8187 170.701 72.4653 171.394 75.1L171.81 76.556C171.845 76.8333 172.417 78.532 173.526 81.652L174.514 84.512L175.45 86.956C176.421 89.6947 177.045 91.3587 177.322 91.948C178.536 95.6227 179.246 97.8413 179.454 98.604C179.697 99.5053 180.078 100.632 180.598 101.984C181.153 103.336 181.465 104.099 181.534 104.272ZM171.81 88.828C172.261 88.828 172.486 88.7067 172.486 88.464C172.486 88.2907 172.365 87.9093 172.122 87.32C171.914 86.8 171.602 85.8293 171.186 84.408C170.874 83.264 170.562 82.276 170.25 81.444C169.904 80.404 169.522 79.1733 169.106 77.752C168.725 76.3307 168.5 75.412 168.43 74.996C167.91 73.1587 167.564 72.24 167.39 72.24C167.286 72.24 167.113 72.708 166.87 73.644L166.558 74.788C166.316 75.724 166.004 76.9027 165.622 78.324C165.241 79.7107 164.894 80.8893 164.582 81.86C164.374 82.7613 164.08 83.9053 163.698 85.292C163.352 86.644 163.074 87.58 162.866 88.1C162.797 88.308 162.762 88.4293 162.762 88.464C162.762 88.7067 162.866 88.8627 163.074 88.932C163.317 89.0013 163.542 89.036 163.75 89.036C163.993 89.0013 164.149 88.984 164.218 88.984L167.234 88.88C167.65 88.8107 168.24 88.776 169.002 88.776L171.81 88.828ZM194.006 67.352C194.769 67.352 195.323 67.4387 195.67 67.612C196.051 67.7507 196.346 68.0107 196.554 68.392C196.901 69.12 197.334 70.056 197.854 71.2L199.778 75.36L202.222 80.716C202.673 81.6867 203.262 82.9693 203.99 84.564C204.718 86.1587 205.238 87.268 205.55 87.892C206.139 89.1053 206.521 89.8507 206.694 90.128L208.15 92.988L209.762 96.16L209.658 93.144L209.45 88.048V86.488C209.45 84.5813 209.485 82.6573 209.554 80.716C209.554 79.26 209.537 78.0813 209.502 77.18L209.45 73.228L209.658 68.236C209.658 67.716 209.918 67.456 210.438 67.456C210.611 67.456 210.958 67.508 211.478 67.612C211.79 67.6813 212.119 67.716 212.466 67.716C212.813 67.716 213.09 67.716 213.298 67.716C213.575 67.716 213.749 67.7507 213.818 67.82C213.922 67.8893 213.974 68.0107 213.974 68.184C213.974 68.3227 213.957 68.4787 213.922 68.652C213.887 68.8253 213.87 69.016 213.87 69.224L213.818 73.696L213.714 84.2L213.662 85.708C213.662 86.8867 213.679 87.9613 213.714 88.932C213.749 89.9027 213.783 90.7 213.818 91.324C213.922 92.8147 213.974 94.0627 213.974 95.068C213.974 94.9293 214.026 96.992 214.13 101.256L214.234 104.168V104.272C214.234 104.965 213.905 105.277 213.246 105.208C213.142 105.173 212.934 105.156 212.622 105.156L211.114 105.208H210.802C210.559 105.208 210.369 105.156 210.23 105.052C210.126 104.948 209.935 104.653 209.658 104.168C209.554 103.925 209.415 103.579 209.242 103.128C209.069 102.677 208.861 102.175 208.618 101.62C207.127 97.876 206.053 95.328 205.394 93.976C204.631 92.52 202.707 88.3427 199.622 81.444C198.929 80.0227 198.149 78.5147 197.282 76.92L195.774 74.216L195.93 79.156L195.982 82.224C196.051 84.512 196.086 86.02 196.086 86.748C196.086 89.5907 196.138 92.4507 196.242 95.328L196.294 99.384C196.294 100.112 196.329 101.169 196.398 102.556L196.502 104.376V104.48C196.502 104.827 196.415 105.052 196.242 105.156C196.069 105.26 195.826 105.312 195.514 105.312L194.37 105.364C193.642 105.468 192.862 105.52 192.03 105.52C191.059 105.52 190.262 105.537 189.638 105.572L186.986 105.624C186.466 105.624 186.119 105.52 185.946 105.312C185.773 105.139 185.669 104.931 185.634 104.688C185.599 104.445 185.565 104.272 185.53 104.168C185.391 103.544 185.322 102.781 185.322 101.88C185.322 101.048 185.339 100.337 185.374 99.748C185.374 97.9453 185.409 95.848 185.478 93.456C185.547 91.0293 185.634 89.296 185.738 88.256L185.998 84.564C186.414 78.8093 186.622 75.568 186.622 74.84C186.622 72.1013 186.674 70.056 186.778 68.704C186.847 67.768 187.333 67.3 188.234 67.3C188.511 67.3 188.771 67.3173 189.014 67.352C189.257 67.3867 189.447 67.404 189.586 67.404L194.006 67.352ZM225.507 98.24C225.923 98.24 226.131 98.3613 226.131 98.604C226.131 98.708 226.079 98.864 225.975 99.072C225.801 99.7653 225.645 100.32 225.507 100.736C225.472 100.944 225.351 101.325 225.143 101.88C224.969 102.331 224.761 102.937 224.519 103.7C224.311 104.22 224.033 105.139 223.687 106.456C223.34 107.773 223.167 108.519 223.167 108.692C223.132 108.796 223.028 109.004 222.855 109.316C222.716 109.663 222.56 109.888 222.387 109.992C222.179 110.061 221.693 110.096 220.931 110.096C220.133 110.096 219.561 110.061 219.215 109.992C218.903 109.992 218.712 109.923 218.643 109.784C218.573 109.68 218.539 109.541 218.539 109.368C218.573 109.195 218.591 109.056 218.591 108.952L219.839 104.376L220.723 101.204L221.399 99.228C221.468 98.916 221.641 98.6733 221.919 98.5C222.196 98.3267 222.508 98.24 222.855 98.24H225.507Z" fill="#657D71"/>
<path d="M40.855 175.23C38.279 175.23 36.3317 174.525 35.013 173.114C33.6943 171.673 33.035 169.756 33.035 167.364C33.035 166.015 33.2343 164.374 33.633 162.442L36.485 149.286C36.5463 149.041 36.6843 148.366 36.899 147.262C37.1443 146.158 37.267 144.962 37.267 143.674C37.267 142.938 37.1137 142.386 36.807 142.018C36.531 141.65 36.1477 141.466 35.657 141.466C34.737 141.466 33.6637 141.911 32.437 142.8C31.2103 143.659 29.9223 144.993 28.573 146.802C28.1437 147.385 27.6683 147.676 27.147 147.676C26.7177 147.676 26.3343 147.477 25.997 147.078C25.6903 146.649 25.537 146.173 25.537 145.652C25.537 144.701 25.9663 143.628 26.825 142.432C29.953 138.139 33.6177 135.992 37.819 135.992C39.6897 135.992 41.1463 136.559 42.189 137.694C43.2623 138.829 43.799 140.5 43.799 142.708C43.799 144.272 43.6917 145.713 43.477 147.032C43.2623 148.351 42.8943 150.145 42.373 152.414L40.487 160.832C40.4257 161.108 40.3183 161.599 40.165 162.304C40.0117 163.009 39.889 163.684 39.797 164.328C39.705 164.941 39.659 165.555 39.659 166.168C39.659 167.149 39.935 167.931 40.487 168.514C41.039 169.097 41.821 169.388 42.833 169.388C44.673 169.388 46.5283 168.407 48.399 166.444C50.3003 164.481 52.0483 161.323 53.643 156.968C55.2683 152.583 56.5257 146.986 57.415 140.178C57.6297 138.614 57.9363 137.525 58.335 136.912C58.7643 136.299 59.577 135.992 60.773 135.992C61.8463 135.992 62.6437 136.314 63.165 136.958C63.6863 137.602 63.947 138.645 63.947 140.086C63.947 140.914 63.8397 142.003 63.625 143.352C63.441 144.701 63.1497 146.587 62.751 149.01C61.923 153.702 61.2637 158.011 60.773 161.936C60.5277 163.715 60.405 165.033 60.405 165.892C60.405 167.149 60.681 168.115 61.233 168.79C61.8157 169.434 62.5823 169.756 63.533 169.756C64.545 169.756 65.5263 169.419 66.477 168.744C67.4583 168.069 68.6083 166.95 69.927 165.386C70.295 164.957 70.709 164.742 71.169 164.742C71.5677 164.742 71.8743 164.926 72.089 165.294C72.3343 165.662 72.457 166.168 72.457 166.812C72.457 168.008 72.1657 168.959 71.583 169.664C69.9883 171.596 68.409 173.007 66.845 173.896C65.281 174.785 63.6403 175.23 61.923 175.23C59.3777 175.23 57.4303 174.586 56.081 173.298C54.7317 171.979 54.057 170.277 54.057 168.192C54.057 167.027 54.3023 164.757 54.793 161.384C53.2597 165.892 51.3123 169.327 48.951 171.688C46.6203 174.049 43.9217 175.23 40.855 175.23ZM71.9808 175.23C70.8155 175.23 69.9875 174.617 69.4968 173.39C69.0368 172.163 68.8068 170.201 68.8068 167.502C68.8068 163.515 69.3742 159.728 70.5088 156.14C70.7848 155.251 71.2295 154.607 71.8428 154.208C72.4868 153.779 73.3762 153.564 74.5108 153.564C75.1242 153.564 75.5535 153.641 75.7988 153.794C76.0442 153.947 76.1668 154.239 76.1668 154.668C76.1668 155.159 75.9368 156.263 75.4768 157.98C75.1702 159.207 74.9248 160.28 74.7408 161.2C74.5568 162.12 74.4035 163.255 74.2808 164.604C75.2928 161.967 76.4275 159.82 77.6848 158.164C78.9422 156.508 80.1688 155.327 81.3648 154.622C82.5915 153.917 83.7108 153.564 84.7228 153.564C86.7162 153.564 87.7128 154.561 87.7128 156.554C87.7128 157.75 87.3755 159.912 86.7008 163.04C86.1182 165.708 85.8268 167.471 85.8268 168.33C85.8268 169.557 86.2715 170.17 87.1608 170.17C87.7742 170.17 88.4948 169.802 89.3228 169.066C90.1815 168.299 91.3162 167.073 92.7268 165.386C93.0948 164.957 93.5088 164.742 93.9688 164.742C94.3675 164.742 94.6742 164.926 94.8888 165.294C95.1342 165.662 95.2568 166.168 95.2568 166.812C95.2568 168.039 94.9655 168.989 94.3828 169.664C93.0642 171.289 91.6382 172.623 90.1048 173.666C88.6022 174.709 86.8848 175.23 84.9528 175.23C83.3888 175.23 82.2082 174.785 81.4108 173.896C80.6135 172.976 80.2148 171.657 80.2148 169.94C80.2148 169.081 80.4295 167.548 80.8588 165.34C81.2575 163.408 81.4568 162.074 81.4568 161.338C81.4568 160.847 81.2882 160.602 80.9508 160.602C80.5522 160.602 79.9848 161.123 79.2488 162.166C78.5435 163.178 77.8075 164.527 77.0408 166.214C76.3048 167.901 75.7068 169.679 75.2468 171.55C74.9095 172.991 74.5108 173.973 74.0508 174.494C73.6215 174.985 72.9315 175.23 71.9808 175.23ZM116.007 160.878C116.406 160.878 116.712 161.077 116.927 161.476C117.142 161.875 117.249 162.381 117.249 162.994C117.249 163.761 117.142 164.359 116.927 164.788C116.712 165.187 116.375 165.463 115.915 165.616C114.075 166.26 112.051 166.628 109.843 166.72C109.23 169.265 108.064 171.32 106.347 172.884C104.66 174.448 102.79 175.23 100.735 175.23C97.6378 175.23 95.3838 174.049 93.9731 171.688C92.5625 169.327 91.8571 165.907 91.8571 161.43C91.8571 157.474 92.3478 153.181 93.3291 148.55C94.3105 143.889 95.7365 139.933 97.6071 136.682C99.5085 133.401 101.762 131.76 104.369 131.76C105.78 131.76 106.914 132.373 107.773 133.6C108.632 134.796 109.061 136.36 109.061 138.292C109.061 140.807 108.586 143.306 107.635 145.79C106.684 148.274 105.105 150.881 102.897 153.61C104.952 153.763 106.623 154.622 107.911 156.186C109.199 157.719 109.966 159.621 110.211 161.89C111.652 161.798 113.37 161.491 115.363 160.97C115.547 160.909 115.762 160.878 116.007 160.878ZM103.311 136.314C102.698 136.314 102.023 137.234 101.287 139.074C100.582 140.883 99.9225 143.352 99.3091 146.48C98.6958 149.608 98.2358 153.027 97.9291 156.738C99.9531 153.027 101.563 149.761 102.759 146.94C103.986 144.088 104.599 141.558 104.599 139.35C104.599 138.369 104.476 137.617 104.231 137.096C104.016 136.575 103.71 136.314 103.311 136.314ZM100.919 170.354C101.87 170.354 102.713 169.955 103.449 169.158C104.185 168.361 104.676 167.211 104.921 165.708C103.97 165.064 103.234 164.221 102.713 163.178C102.222 162.135 101.977 161.031 101.977 159.866C101.977 159.437 102.038 158.854 102.161 158.118H102.023C100.766 158.118 99.7078 158.747 98.8491 160.004C98.0211 161.231 97.6071 162.887 97.6071 164.972C97.6071 166.72 97.9291 168.054 98.5731 168.974C99.2478 169.894 100.03 170.354 100.919 170.354ZM133.793 164.742C134.192 164.742 134.499 164.926 134.713 165.294C134.959 165.662 135.081 166.168 135.081 166.812C135.081 168.039 134.79 168.989 134.207 169.664C133.073 171.044 131.463 172.317 129.377 173.482C127.323 174.647 125.115 175.23 122.753 175.23C119.533 175.23 117.034 174.356 115.255 172.608C113.477 170.86 112.587 168.468 112.587 165.432C112.587 163.316 113.032 161.353 113.921 159.544C114.811 157.704 116.037 156.247 117.601 155.174C119.196 154.101 120.99 153.564 122.983 153.564C124.762 153.564 126.188 154.101 127.261 155.174C128.335 156.217 128.871 157.643 128.871 159.452C128.871 161.568 128.105 163.393 126.571 164.926C125.069 166.429 122.508 167.625 118.889 168.514C119.656 169.925 121.113 170.63 123.259 170.63C124.639 170.63 126.203 170.155 127.951 169.204C129.73 168.223 131.263 166.95 132.551 165.386C132.919 164.957 133.333 164.742 133.793 164.742ZM122.201 158.072C121.067 158.072 120.101 158.731 119.303 160.05C118.537 161.369 118.153 162.963 118.153 164.834V164.926C119.963 164.497 121.389 163.853 122.431 162.994C123.474 162.135 123.995 161.139 123.995 160.004C123.995 159.421 123.827 158.961 123.489 158.624C123.183 158.256 122.753 158.072 122.201 158.072ZM148.77 164.742C149.169 164.742 149.475 164.926 149.69 165.294C149.935 165.662 150.058 166.168 150.058 166.812C150.058 168.039 149.767 168.989 149.184 169.664C147.865 171.289 146.424 172.623 144.86 173.666C143.327 174.709 141.579 175.23 139.616 175.23C136.917 175.23 134.909 174.003 133.59 171.55C132.302 169.097 131.658 165.923 131.658 162.028C131.658 158.287 132.133 154.024 133.084 149.24C134.065 144.456 135.491 140.347 137.362 136.912C139.263 133.477 141.517 131.76 144.124 131.76C145.596 131.76 146.746 132.45 147.574 133.83C148.433 135.179 148.862 137.127 148.862 139.672C148.862 143.321 147.85 147.553 145.826 152.368C143.802 157.183 141.057 161.951 137.592 166.674C137.807 167.931 138.159 168.836 138.65 169.388C139.141 169.909 139.785 170.17 140.582 170.17C141.839 170.17 142.943 169.817 143.894 169.112C144.845 168.376 146.056 167.134 147.528 165.386C147.896 164.957 148.31 164.742 148.77 164.742ZM143.112 136.314C142.407 136.314 141.609 137.587 140.72 140.132C139.831 142.677 139.049 145.836 138.374 149.608C137.699 153.38 137.331 156.999 137.27 160.464C139.447 156.876 141.18 153.288 142.468 149.7C143.756 146.081 144.4 142.785 144.4 139.81C144.4 137.479 143.971 136.314 143.112 136.314ZM152.366 150.528C151.078 150.528 150.112 150.237 149.468 149.654C148.824 149.041 148.502 148.197 148.502 147.124C148.502 146.051 148.916 145.161 149.744 144.456C150.603 143.72 151.661 143.352 152.918 143.352C154.053 143.352 154.973 143.628 155.678 144.18C156.383 144.732 156.736 145.514 156.736 146.526C156.736 147.753 156.337 148.734 155.54 149.47C154.743 150.175 153.685 150.528 152.366 150.528ZM151.998 175.23C150.005 175.23 148.548 174.525 147.628 173.114C146.739 171.703 146.294 169.833 146.294 167.502C146.294 166.122 146.463 164.359 146.8 162.212C147.168 160.035 147.628 158.011 148.18 156.14C148.456 155.159 148.824 154.484 149.284 154.116C149.744 153.748 150.48 153.564 151.492 153.564C153.056 153.564 153.838 154.085 153.838 155.128C153.838 155.895 153.547 157.673 152.964 160.464C152.228 163.837 151.86 166.122 151.86 167.318C151.86 168.238 151.983 168.943 152.228 169.434C152.473 169.925 152.887 170.17 153.47 170.17C154.022 170.17 154.712 169.787 155.54 169.02C156.368 168.253 157.472 167.042 158.852 165.386C159.22 164.957 159.634 164.742 160.094 164.742C160.493 164.742 160.799 164.926 161.014 165.294C161.259 165.662 161.382 166.168 161.382 166.812C161.382 168.039 161.091 168.989 160.508 169.664C157.472 173.375 154.635 175.23 151.998 175.23ZM178.176 164.742C178.575 164.742 178.881 164.926 179.096 165.294C179.341 165.662 179.464 166.168 179.464 166.812C179.464 168.039 179.173 168.989 178.59 169.664C177.455 171.044 175.845 172.317 173.76 173.482C171.705 174.647 169.497 175.23 167.136 175.23C163.916 175.23 161.417 174.356 159.638 172.608C157.859 170.86 156.97 168.468 156.97 165.432C156.97 163.316 157.415 161.353 158.304 159.544C159.193 157.704 160.42 156.247 161.984 155.174C163.579 154.101 165.373 153.564 167.366 153.564C169.145 153.564 170.571 154.101 171.644 155.174C172.717 156.217 173.254 157.643 173.254 159.452C173.254 161.568 172.487 163.393 170.954 164.926C169.451 166.429 166.891 167.625 163.272 168.514C164.039 169.925 165.495 170.63 167.642 170.63C169.022 170.63 170.586 170.155 172.334 169.204C174.113 168.223 175.646 166.95 176.934 165.386C177.302 164.957 177.716 164.742 178.176 164.742ZM166.584 158.072C165.449 158.072 164.483 158.731 163.686 160.05C162.919 161.369 162.536 162.963 162.536 164.834V164.926C164.345 164.497 165.771 163.853 166.814 162.994C167.857 162.135 168.378 161.139 168.378 160.004C168.378 159.421 168.209 158.961 167.872 158.624C167.565 158.256 167.136 158.072 166.584 158.072ZM198.713 161.016C198.805 160.985 198.959 160.97 199.173 160.97C199.633 160.97 199.986 161.123 200.231 161.43C200.477 161.737 200.599 162.151 200.599 162.672C200.599 163.623 200.415 164.374 200.047 164.926C199.679 165.447 199.127 165.831 198.391 166.076C196.981 166.536 195.478 166.766 193.883 166.766C192.534 166.766 191.261 166.582 190.065 166.214C189.176 167.655 188.195 169.143 187.121 170.676C185.895 172.424 184.837 173.62 183.947 174.264C183.058 174.908 182.046 175.23 180.911 175.23C179.654 175.23 178.657 174.739 177.921 173.758C177.216 172.777 176.771 171.228 176.587 169.112C176.219 164.819 176.035 161.062 176.035 157.842V156.232C176.066 155.22 176.342 154.515 176.863 154.116C177.385 153.717 178.167 153.518 179.209 153.518C180.007 153.518 180.589 153.702 180.957 154.07C181.356 154.407 181.555 154.99 181.555 155.818C181.555 159.345 181.77 163.929 182.199 169.572C184.039 166.843 185.419 164.665 186.339 163.04C185.879 162.151 185.649 161.093 185.649 159.866C185.649 158.823 185.879 157.811 186.339 156.83C186.799 155.849 187.428 155.051 188.225 154.438C189.023 153.825 189.927 153.518 190.939 153.518C191.829 153.518 192.549 153.84 193.101 154.484C193.653 155.097 193.929 156.002 193.929 157.198C193.929 158.578 193.561 160.157 192.825 161.936C193.991 161.875 195.539 161.645 197.471 161.246L198.713 161.016ZM202.265 175.23C200.364 175.23 198.846 174.54 197.711 173.16C196.577 171.78 196.009 169.971 196.009 167.732C196.009 165.279 196.577 162.963 197.711 160.786C198.846 158.578 200.349 156.815 202.219 155.496C204.121 154.147 206.129 153.472 208.245 153.472C208.92 153.472 209.365 153.61 209.579 153.886C209.825 154.131 210.024 154.591 210.177 155.266C210.821 155.143 211.496 155.082 212.201 155.082C213.704 155.082 214.455 155.619 214.455 156.692C214.455 157.336 214.225 158.869 213.765 161.292C213.06 164.819 212.707 167.272 212.707 168.652C212.707 169.112 212.815 169.48 213.029 169.756C213.275 170.032 213.581 170.17 213.949 170.17C214.532 170.17 215.237 169.802 216.065 169.066C216.893 168.299 218.013 167.073 219.423 165.386C219.791 164.957 220.205 164.742 220.665 164.742C221.064 164.742 221.371 164.926 221.585 165.294C221.831 165.662 221.953 166.168 221.953 166.812C221.953 168.039 221.662 168.989 221.079 169.664C219.822 171.228 218.488 172.547 217.077 173.62C215.667 174.693 214.302 175.23 212.983 175.23C211.971 175.23 211.036 174.893 210.177 174.218C209.349 173.513 208.721 172.562 208.291 171.366C206.697 173.942 204.688 175.23 202.265 175.23ZM203.921 170.584C204.596 170.584 205.24 170.185 205.853 169.388C206.467 168.591 206.911 167.533 207.187 166.214L208.889 157.75C207.601 157.781 206.405 158.271 205.301 159.222C204.228 160.142 203.369 161.369 202.725 162.902C202.081 164.435 201.759 166.061 201.759 167.778C201.759 168.729 201.943 169.434 202.311 169.894C202.71 170.354 203.247 170.584 203.921 170.584ZM242.687 160.878C243.086 160.878 243.392 161.077 243.607 161.476C243.822 161.875 243.929 162.381 243.929 162.994C243.929 163.761 243.822 164.359 243.607 164.788C243.392 165.187 243.055 165.463 242.595 165.616C240.755 166.26 238.731 166.628 236.523 166.72C235.91 169.265 234.744 171.32 233.027 172.884C231.34 174.448 229.47 175.23 227.415 175.23C224.318 175.23 222.064 174.049 220.653 171.688C219.242 169.327 218.537 165.907 218.537 161.43C218.537 157.474 219.028 153.181 220.009 148.55C220.99 143.889 222.416 139.933 224.287 136.682C226.188 133.401 228.442 131.76 231.049 131.76C232.46 131.76 233.594 132.373 234.453 133.6C235.312 134.796 235.741 136.36 235.741 138.292C235.741 140.807 235.266 143.306 234.315 145.79C233.364 148.274 231.785 150.881 229.577 153.61C231.632 153.763 233.303 154.622 234.591 156.186C235.879 157.719 236.646 159.621 236.891 161.89C238.332 161.798 240.05 161.491 242.043 160.97C242.227 160.909 242.442 160.878 242.687 160.878ZM229.991 136.314C229.378 136.314 228.703 137.234 227.967 139.074C227.262 140.883 226.602 143.352 225.989 146.48C225.376 149.608 224.916 153.027 224.609 156.738C226.633 153.027 228.243 149.761 229.439 146.94C230.666 144.088 231.279 141.558 231.279 139.35C231.279 138.369 231.156 137.617 230.911 137.096C230.696 136.575 230.39 136.314 229.991 136.314ZM227.599 170.354C228.55 170.354 229.393 169.955 230.129 169.158C230.865 168.361 231.356 167.211 231.601 165.708C230.65 165.064 229.914 164.221 229.393 163.178C228.902 162.135 228.657 161.031 228.657 159.866C228.657 159.437 228.718 158.854 228.841 158.118H228.703C227.446 158.118 226.388 158.747 225.529 160.004C224.701 161.231 224.287 162.887 224.287 164.972C224.287 166.72 224.609 168.054 225.253 168.974C225.928 169.894 226.71 170.354 227.599 170.354ZM257.391 164.742C257.79 164.742 258.096 164.926 258.311 165.294C258.556 165.662 258.679 166.168 258.679 166.812C258.679 168.039 258.388 168.989 257.805 169.664C256.486 171.289 255.045 172.623 253.481 173.666C251.948 174.709 250.2 175.23 248.237 175.23C245.538 175.23 243.53 174.003 242.211 171.55C240.923 169.097 240.279 165.923 240.279 162.028C240.279 158.287 240.754 154.024 241.705 149.24C242.686 144.456 244.112 140.347 245.983 136.912C247.884 133.477 250.138 131.76 252.745 131.76C254.217 131.76 255.367 132.45 256.195 133.83C257.054 135.179 257.483 137.127 257.483 139.672C257.483 143.321 256.471 147.553 254.447 152.368C252.423 157.183 249.678 161.951 246.213 166.674C246.428 167.931 246.78 168.836 247.271 169.388C247.762 169.909 248.406 170.17 249.203 170.17C250.46 170.17 251.564 169.817 252.515 169.112C253.466 168.376 254.677 167.134 256.149 165.386C256.517 164.957 256.931 164.742 257.391 164.742ZM251.733 136.314C251.028 136.314 250.23 137.587 249.341 140.132C248.452 142.677 247.67 145.836 246.995 149.608C246.32 153.38 245.952 156.999 245.891 160.464C248.068 156.876 249.801 153.288 251.089 149.7C252.377 146.081 253.021 142.785 253.021 139.81C253.021 137.479 252.592 136.314 251.733 136.314ZM271.061 153.564C271.766 153.564 272.257 153.656 272.533 153.84C272.809 154.024 272.947 154.331 272.947 154.76C272.947 155.496 272.548 158.118 271.751 162.626C271.046 166.95 270.632 169.511 270.509 170.308C269.374 178.189 267.81 184.43 265.817 189.03C263.824 193.63 261.171 195.93 257.859 195.93C256.295 195.93 255.022 195.439 254.041 194.458C253.06 193.507 252.569 192.25 252.569 190.686C252.569 189.245 252.891 187.773 253.535 186.27C254.21 184.767 255.436 183.035 257.215 181.072C259.024 179.14 261.57 176.917 264.851 174.402L264.989 173.344C265.204 172.209 265.449 170.584 265.725 168.468C265.112 170.676 264.253 172.363 263.149 173.528C262.045 174.663 260.88 175.23 259.653 175.23C258.273 175.23 257.138 174.601 256.249 173.344C255.39 172.056 254.961 170.461 254.961 168.56C254.961 166.26 255.114 164.159 255.421 162.258C255.728 160.326 256.234 158.287 256.939 156.14C257.246 155.22 257.675 154.561 258.227 154.162C258.779 153.763 259.653 153.564 260.849 153.564C261.524 153.564 261.984 153.671 262.229 153.886C262.505 154.101 262.643 154.423 262.643 154.852C262.643 155.097 262.474 155.925 262.137 157.336C261.83 158.471 261.585 159.498 261.401 160.418C261.156 161.675 260.941 162.887 260.757 164.052C260.573 165.187 260.481 166.122 260.481 166.858C260.481 168.023 260.803 168.606 261.447 168.606C261.907 168.606 262.474 168.146 263.149 167.226C263.854 166.306 264.59 164.911 265.357 163.04C266.154 161.169 266.921 158.869 267.657 156.14C267.902 155.22 268.27 154.561 268.761 154.162C269.282 153.763 270.049 153.564 271.061 153.564ZM258.365 191.468C259.132 191.468 259.99 190.579 260.941 188.8C261.892 187.021 262.842 184.062 263.793 179.922C261.432 181.915 259.714 183.725 258.641 185.35C257.598 187.006 257.077 188.447 257.077 189.674C257.077 190.195 257.169 190.625 257.353 190.962C257.568 191.299 257.905 191.468 258.365 191.468ZM132.965 224.834C133.363 224.834 133.67 225.033 133.885 225.432C134.13 225.8 134.253 226.275 134.253 226.858C134.253 227.563 134.145 228.115 133.931 228.514C133.716 228.913 133.379 229.265 132.919 229.572C131.109 230.768 128.227 232.731 124.271 235.46C123.075 241.808 121.526 246.807 119.625 250.456C117.723 254.105 115.316 255.93 112.403 255.93C110.839 255.93 109.566 255.439 108.585 254.458C107.603 253.507 107.113 252.25 107.113 250.686C107.113 249.245 107.435 247.788 108.079 246.316C108.723 244.844 109.919 243.142 111.667 241.21C113.445 239.278 115.945 237.07 119.165 234.586L119.303 233.712C116.88 234.724 114.503 235.23 112.173 235.23C108.738 235.23 105.717 234.571 103.111 233.252C100.504 231.903 98.48 230.001 97.0386 227.548C95.5973 225.095 94.8766 222.243 94.8766 218.992C94.8766 214.453 95.7353 210.451 97.4526 206.986C99.17 203.49 101.531 200.791 104.537 198.89C107.573 196.958 110.961 195.992 114.703 195.992C118.291 195.992 120.974 196.835 122.753 198.522C124.562 200.178 125.467 202.386 125.467 205.146C125.467 206.955 125.129 208.412 124.455 209.516C123.811 210.589 122.875 211.126 121.649 211.126C120.821 211.126 120.146 210.927 119.625 210.528C119.134 210.129 118.889 209.577 118.889 208.872C118.889 208.565 118.95 208.044 119.073 207.308C119.257 206.449 119.349 205.775 119.349 205.284C119.349 203.996 118.95 202.999 118.153 202.294C117.386 201.589 116.083 201.236 114.243 201.236C112.004 201.236 109.919 201.88 107.987 203.168C106.085 204.456 104.552 206.388 103.387 208.964C102.221 211.509 101.639 214.576 101.639 218.164C101.639 221.844 102.635 224.696 104.629 226.72C106.653 228.713 109.566 229.71 113.369 229.71C115.485 229.71 117.693 229.235 119.993 228.284L120.637 222.672H115.945C115.086 222.672 114.427 222.473 113.967 222.074C113.507 221.645 113.277 220.955 113.277 220.004C113.277 219.145 113.507 218.471 113.967 217.98C114.427 217.489 115.04 217.244 115.807 217.244H124.409C125.083 217.244 125.635 217.474 126.065 217.934C126.525 218.363 126.709 218.992 126.617 219.82C126.525 220.801 126.218 223.025 125.697 226.49L125.191 229.986C127.644 228.146 129.883 226.551 131.907 225.202C132.305 224.957 132.658 224.834 132.965 224.834ZM112.909 251.468C113.706 251.468 114.58 250.563 115.531 248.754C116.481 246.945 117.371 244.031 118.199 240.014C115.868 242.007 114.181 243.801 113.139 245.396C112.127 247.021 111.621 248.447 111.621 249.674C111.621 250.87 112.05 251.468 112.909 251.468ZM154.886 220.878C155.284 220.878 155.591 221.077 155.806 221.476C156.02 221.875 156.128 222.381 156.128 222.994C156.128 224.466 155.683 225.34 154.794 225.616C152.954 226.26 150.93 226.628 148.722 226.72C148.139 229.296 146.989 231.366 145.272 232.93C143.554 234.463 141.607 235.23 139.43 235.23C137.59 235.23 136.01 234.785 134.692 233.896C133.404 233.007 132.422 231.826 131.748 230.354C131.073 228.882 130.736 227.287 130.736 225.57C130.736 223.239 131.18 221.169 132.07 219.36C132.959 217.52 134.186 216.094 135.75 215.082C137.314 214.039 139.046 213.518 140.948 213.518C143.278 213.518 145.149 214.331 146.56 215.956C148.001 217.551 148.844 219.529 149.09 221.89C150.531 221.798 152.248 221.491 154.242 220.97C154.487 220.909 154.702 220.878 154.886 220.878ZM139.798 230.354C140.779 230.354 141.622 229.955 142.328 229.158C143.064 228.361 143.554 227.211 143.8 225.708C142.849 225.064 142.113 224.221 141.592 223.178C141.101 222.135 140.856 221.031 140.856 219.866C140.856 219.375 140.902 218.885 140.994 218.394H140.764C139.537 218.394 138.51 218.992 137.682 220.188C136.884 221.353 136.486 223.009 136.486 225.156C136.486 226.843 136.808 228.131 137.452 229.02C138.126 229.909 138.908 230.354 139.798 230.354ZM175.64 220.878C176.038 220.878 176.345 221.077 176.56 221.476C176.774 221.875 176.882 222.381 176.882 222.994C176.882 224.466 176.437 225.34 175.548 225.616C173.708 226.26 171.684 226.628 169.476 226.72C168.893 229.296 167.743 231.366 166.026 232.93C164.308 234.463 162.361 235.23 160.184 235.23C158.344 235.23 156.764 234.785 155.446 233.896C154.158 233.007 153.176 231.826 152.502 230.354C151.827 228.882 151.49 227.287 151.49 225.57C151.49 223.239 151.934 221.169 152.824 219.36C153.713 217.52 154.94 216.094 156.504 215.082C158.068 214.039 159.8 213.518 161.702 213.518C164.032 213.518 165.903 214.331 167.314 215.956C168.755 217.551 169.598 219.529 169.844 221.89C171.285 221.798 173.002 221.491 174.996 220.97C175.241 220.909 175.456 220.878 175.64 220.878ZM160.552 230.354C161.533 230.354 162.376 229.955 163.082 229.158C163.818 228.361 164.308 227.211 164.554 225.708C163.603 225.064 162.867 224.221 162.346 223.178C161.855 222.135 161.61 221.031 161.61 219.866C161.61 219.375 161.656 218.885 161.748 218.394H161.518C160.291 218.394 159.264 218.992 158.436 220.188C157.638 221.353 157.24 223.009 157.24 225.156C157.24 226.843 157.562 228.131 158.206 229.02C158.88 229.909 159.662 230.354 160.552 230.354ZM189.678 224.742C190.015 227.257 190.506 229.741 191.15 232.194C191.272 232.593 191.334 233.007 191.334 233.436C191.334 234.816 190.49 235.506 188.804 235.506C187.853 235.506 187.117 235.245 186.596 234.724C186.105 234.203 185.645 233.221 185.216 231.78L185.17 231.596C184.004 233.037 182.946 234.003 181.996 234.494C181.076 234.985 180.002 235.23 178.776 235.23C176.905 235.23 175.356 234.54 174.13 233.16C172.934 231.749 172.336 229.925 172.336 227.686C172.336 225.233 172.857 222.963 173.9 220.878C174.942 218.793 176.368 217.091 178.178 215.772C179.987 214.423 182.011 213.61 184.25 213.334C184.832 207.538 185.936 202.493 187.562 198.2C189.218 193.907 191.41 191.76 194.14 191.76C195.458 191.76 196.547 192.358 197.406 193.554C198.295 194.75 198.74 196.559 198.74 198.982C198.74 202.355 197.912 206.296 196.256 210.804C194.6 215.312 192.407 219.958 189.678 224.742ZM193.634 196.268C192.744 196.268 191.901 198.537 191.104 203.076C190.337 207.615 189.816 212.552 189.54 217.888C192.944 210.528 194.646 204.548 194.646 199.948C194.646 198.783 194.538 197.878 194.324 197.234C194.14 196.59 193.91 196.268 193.634 196.268ZM180.386 230.584C180.999 230.584 181.582 230.354 182.134 229.894C182.716 229.434 183.452 228.545 184.342 227.226C184.035 224.987 183.882 222.672 183.882 220.28C183.882 219.329 183.897 218.593 183.928 218.072C182.241 218.563 180.846 219.682 179.742 221.43C178.638 223.178 178.086 225.11 178.086 227.226C178.086 229.465 178.852 230.584 180.386 230.584ZM200.635 235.23C199.286 235.23 198.258 234.862 197.553 234.126C196.878 233.39 196.541 232.424 196.541 231.228C196.541 229.848 196.924 228.744 197.691 227.916C198.488 227.088 199.592 226.674 201.003 226.674C202.352 226.674 203.364 227.011 204.039 227.686C204.744 228.33 205.097 229.296 205.097 230.584C205.097 231.995 204.698 233.129 203.901 233.988C203.104 234.816 202.015 235.23 200.635 235.23Z" fill="#6B534C"/>
</svg>
