<svg width="50" height="46" viewBox="0 0 50 46" fill="none" xmlns="http://www.w3.org/2000/svg">
<path d="M2.91663 2.5H10.9166L16.2766 28.6424C16.4595 29.5412 16.9604 30.3487 17.6917 30.9233C18.423 31.498 19.338 31.8033 20.2766 31.7857H39.7166C40.6552 31.8033 41.5703 31.498 42.3015 30.9233C43.0328 30.3487 43.5337 29.5412 43.7166 28.6424L46.9166 12.2619H12.9166M20.9166 41.5476C20.9166 42.6259 20.0212 43.5 18.9166 43.5C17.8121 43.5 16.9166 42.6259 16.9166 41.5476C16.9166 40.4693 17.8121 39.5952 18.9166 39.5952C20.0212 39.5952 20.9166 40.4693 20.9166 41.5476ZM42.9166 41.5476C42.9166 42.6259 42.0212 43.5 40.9166 43.5C39.8121 43.5 38.9166 42.6259 38.9166 41.5476C38.9166 40.4693 39.8121 39.5952 40.9166 39.5952C42.0212 39.5952 42.9166 40.4693 42.9166 41.5476Z" stroke="#4B3B30" stroke-width="5" stroke-linecap="round" stroke-linejoin="round"/>
</svg>
