<svg width="34" height="48" viewBox="0 0 34 48" fill="none" xmlns="http://www.w3.org/2000/svg">
<path d="M17 48C16.4333 48 15.9476 47.84 15.5429 47.52C15.1381 47.2 14.8345 46.78 14.6321 46.26C13.8631 44.02 12.8917 41.92 11.7179 39.96C10.5845 38 8.98571 35.7 6.92143 33.06C4.85714 30.42 3.17738 27.9 1.88214 25.5C0.627381 23.1 0 20.2 0 16.8C0 12.12 1.63929 8.16 4.91786 4.92C8.23691 1.64 12.2643 0 17 0C21.7357 0 25.7429 1.64 29.0214 4.92C32.3405 8.16 34 12.12 34 16.8C34 20.44 33.2917 23.48 31.875 25.92C30.4988 28.32 28.9 30.7 27.0786 33.06C24.8929 35.94 23.2333 38.34 22.1 40.26C21.0071 42.14 20.0964 44.14 19.3679 46.26C19.1655 46.82 18.8417 47.26 18.3964 47.58C17.9917 47.86 17.5262 48 17 48ZM17 39.42C17.6881 38.06 18.4571 36.72 19.3071 35.4C20.1976 34.08 21.4929 32.32 23.1929 30.12C24.9333 27.88 26.35 25.82 27.4429 23.94C28.5762 22.02 29.1429 19.64 29.1429 16.8C29.1429 13.48 27.9488 10.66 25.5607 8.34C23.2131 5.98 20.3595 4.8 17 4.8C13.6405 4.8 10.7667 5.98 8.37857 8.34C6.03095 10.66 4.85714 13.48 4.85714 16.8C4.85714 19.64 5.40357 22.02 6.49643 23.94C7.62976 25.82 9.06667 27.88 10.8071 30.12C12.5071 32.32 13.7821 34.08 14.6321 35.4C15.5226 36.72 16.3119 38.06 17 39.42ZM17 22.8C18.7 22.8 20.1369 22.22 21.3107 21.06C22.4845 19.9 23.0714 18.48 23.0714 16.8C23.0714 15.12 22.4845 13.7 21.3107 12.54C20.1369 11.38 18.7 10.8 17 10.8C15.3 10.8 13.8631 11.38 12.6893 12.54C11.5155 13.7 10.9286 15.12 10.9286 16.8C10.9286 18.48 11.5155 19.9 12.6893 21.06C13.8631 22.22 15.3 22.8 17 22.8Z" fill="#4B3B30"/>
</svg>
