<svg width="203" height="202" viewBox="0 0 203 202" fill="none" xmlns="http://www.w3.org/2000/svg">
<path d="M83.5352 101.483C83.5352 91.3302 91.8094 83.0972 102.019 83.0972C112.229 83.0972 120.507 91.3302 120.507 101.483C120.507 111.637 112.229 119.869 102.019 119.869C91.8094 119.869 83.5352 111.637 83.5352 101.483ZM73.5408 101.483C73.5408 117.125 86.2905 129.804 102.019 129.804C117.748 129.804 130.497 117.125 130.497 101.483C130.497 85.8417 117.748 73.1624 102.019 73.1624C86.2905 73.1624 73.5408 85.8417 73.5408 101.483ZM124.969 72.0395C124.969 73.3485 125.359 74.6283 126.09 75.717C126.82 76.8057 127.859 77.6544 129.075 78.1558C130.291 78.6572 131.629 78.7888 132.92 78.534C134.211 78.2791 135.398 77.6492 136.329 76.724C137.26 75.7987 137.894 74.6197 138.151 73.3359C138.409 72.0522 138.277 70.7214 137.774 69.5118C137.271 68.3022 136.418 67.2682 135.324 66.5405C134.23 65.8129 132.944 65.4242 131.627 65.4237H131.625C129.86 65.4245 128.168 66.1217 126.92 67.3621C125.673 68.6026 124.971 70.2849 124.969 72.0395ZM79.6131 146.377C74.2059 146.132 71.2669 145.237 69.3139 144.48C66.7245 143.478 64.877 142.284 62.9346 140.355C60.9921 138.425 59.7898 136.59 58.7862 134.015C58.0248 132.074 57.1241 129.15 56.8783 123.773C56.6095 117.959 56.5558 116.213 56.5558 101.484C56.5558 86.755 56.6139 85.0135 56.8783 79.195C57.1246 73.8177 58.0319 70.8998 58.7862 68.9526C59.7942 66.3776 60.9948 64.5403 62.9346 62.6086C64.8744 60.6769 66.7201 59.4811 69.3139 58.4831C71.2661 57.7259 74.2059 56.8302 79.6131 56.5858C85.459 56.3184 87.2151 56.265 102.019 56.265C116.823 56.265 118.581 56.3228 124.432 56.5858C129.839 56.8307 132.773 57.733 134.731 58.4831C137.32 59.4811 139.168 60.6795 141.11 62.6086C143.053 64.5377 144.25 66.3776 145.259 68.9526C146.02 70.8941 146.921 73.8177 147.166 79.195C147.435 85.0135 147.489 86.755 147.489 101.484C147.489 116.213 147.435 117.954 147.166 123.773C146.92 129.15 146.015 132.073 145.259 134.015C144.25 136.59 143.05 138.427 141.11 140.355C139.17 142.282 137.32 143.478 134.731 144.48C132.779 145.237 129.839 146.133 124.432 146.377C118.586 146.645 116.83 146.698 102.019 146.698C87.2085 146.698 85.4572 146.645 79.6131 146.377ZM79.1538 46.6634C73.2498 46.9307 69.2154 47.8617 65.6921 49.2252C62.0432 50.6331 58.9543 52.522 55.8676 55.5868C52.7809 58.6516 50.8864 61.7283 49.4706 65.357C48.0996 68.8631 47.1635 72.873 46.8946 78.7445C46.6213 84.6252 46.5587 86.5053 46.5587 101.483C46.5587 116.461 46.6213 118.341 46.8946 124.222C47.1635 130.094 48.0996 134.104 49.4706 137.61C50.8864 141.236 52.7814 144.316 55.8676 147.38C58.9539 150.443 62.0432 152.33 65.6921 153.742C69.222 155.105 73.2498 156.036 79.1538 156.303C85.0703 156.571 86.9578 156.637 102.019 156.637C117.08 156.637 118.971 156.575 124.884 156.303C130.789 156.036 134.82 155.105 138.346 153.742C141.993 152.33 145.084 150.445 148.17 147.38C151.257 144.315 153.148 141.236 154.567 137.61C155.938 134.104 156.879 130.094 157.143 124.222C157.412 118.337 157.475 116.461 157.475 101.483C157.475 86.5053 157.412 84.6252 157.143 78.7445C156.875 72.8725 155.938 68.8609 154.567 65.357C153.148 61.7305 151.252 58.6565 148.17 55.5868C145.089 52.5172 141.993 50.6331 138.35 49.2252C134.82 47.8617 130.788 46.9263 124.889 46.6634C118.975 46.396 117.085 46.3293 102.023 46.3293C86.9622 46.3293 85.0703 46.3916 79.1538 46.6634Z" fill="url(#paint0_radial_4_644)"/>
<path d="M83.5352 101.483C83.5352 91.3302 91.8094 83.0972 102.019 83.0972C112.229 83.0972 120.507 91.3302 120.507 101.483C120.507 111.637 112.229 119.869 102.019 119.869C91.8094 119.869 83.5352 111.637 83.5352 101.483ZM73.5408 101.483C73.5408 117.125 86.2905 129.804 102.019 129.804C117.748 129.804 130.497 117.125 130.497 101.483C130.497 85.8417 117.748 73.1624 102.019 73.1624C86.2905 73.1624 73.5408 85.8417 73.5408 101.483ZM124.969 72.0395C124.969 73.3485 125.359 74.6283 126.09 75.717C126.82 76.8057 127.859 77.6544 129.075 78.1558C130.291 78.6572 131.629 78.7888 132.92 78.534C134.211 78.2791 135.398 77.6492 136.329 76.724C137.26 75.7987 137.894 74.6197 138.151 73.3359C138.409 72.0522 138.277 70.7214 137.774 69.5118C137.271 68.3022 136.418 67.2682 135.324 66.5405C134.23 65.8129 132.944 65.4242 131.627 65.4237H131.625C129.86 65.4245 128.168 66.1217 126.92 67.3621C125.673 68.6026 124.971 70.2849 124.969 72.0395ZM79.6131 146.377C74.2059 146.132 71.2669 145.237 69.3139 144.48C66.7245 143.478 64.877 142.284 62.9346 140.355C60.9921 138.425 59.7898 136.59 58.7862 134.015C58.0248 132.074 57.1241 129.15 56.8783 123.773C56.6095 117.959 56.5558 116.213 56.5558 101.484C56.5558 86.755 56.6139 85.0135 56.8783 79.195C57.1246 73.8177 58.0319 70.8998 58.7862 68.9526C59.7942 66.3776 60.9948 64.5403 62.9346 62.6086C64.8744 60.6769 66.7201 59.4811 69.3139 58.4831C71.2661 57.7259 74.2059 56.8302 79.6131 56.5858C85.459 56.3184 87.2151 56.265 102.019 56.265C116.823 56.265 118.581 56.3228 124.432 56.5858C129.839 56.8307 132.773 57.733 134.731 58.4831C137.32 59.4811 139.168 60.6795 141.11 62.6086C143.053 64.5377 144.25 66.3776 145.259 68.9526C146.02 70.8941 146.921 73.8177 147.166 79.195C147.435 85.0135 147.489 86.755 147.489 101.484C147.489 116.213 147.435 117.954 147.166 123.773C146.92 129.15 146.015 132.073 145.259 134.015C144.25 136.59 143.05 138.427 141.11 140.355C139.17 142.282 137.32 143.478 134.731 144.48C132.779 145.237 129.839 146.133 124.432 146.377C118.586 146.645 116.83 146.698 102.019 146.698C87.2085 146.698 85.4572 146.645 79.6131 146.377ZM79.1538 46.6634C73.2498 46.9307 69.2154 47.8617 65.6921 49.2252C62.0432 50.6331 58.9543 52.522 55.8676 55.5868C52.7809 58.6516 50.8864 61.7283 49.4706 65.357C48.0996 68.8631 47.1635 72.873 46.8946 78.7445C46.6213 84.6252 46.5587 86.5053 46.5587 101.483C46.5587 116.461 46.6213 118.341 46.8946 124.222C47.1635 130.094 48.0996 134.104 49.4706 137.61C50.8864 141.236 52.7814 144.316 55.8676 147.38C58.9539 150.443 62.0432 152.33 65.6921 153.742C69.222 155.105 73.2498 156.036 79.1538 156.303C85.0703 156.571 86.9578 156.637 102.019 156.637C117.08 156.637 118.971 156.575 124.884 156.303C130.789 156.036 134.82 155.105 138.346 153.742C141.993 152.33 145.084 150.445 148.17 147.38C151.257 144.315 153.148 141.236 154.567 137.61C155.938 134.104 156.879 130.094 157.143 124.222C157.412 118.337 157.475 116.461 157.475 101.483C157.475 86.5053 157.412 84.6252 157.143 78.7445C156.875 72.8725 155.938 68.8609 154.567 65.357C153.148 61.7305 151.252 58.6565 148.17 55.5868C145.089 52.5172 141.993 50.6331 138.35 49.2252C134.82 47.8617 130.788 46.9263 124.889 46.6634C118.975 46.396 117.085 46.3293 102.023 46.3293C86.9622 46.3293 85.0703 46.3916 79.1538 46.6634Z" fill="url(#paint1_radial_4_644)"/>
<defs>
<radialGradient id="paint0_radial_4_644" cx="0" cy="0" r="1" gradientUnits="userSpaceOnUse" gradientTransform="translate(61.2952 157.158) scale(144.798 143.998)">
<stop offset="0.09" stop-color="#FA8F21"/>
<stop offset="0.78" stop-color="#D82D7E"/>
</radialGradient>
<radialGradient id="paint1_radial_4_644" cx="0" cy="0" r="1" gradientUnits="userSpaceOnUse" gradientTransform="translate(113.827 162.1) scale(114.12 113.49)">
<stop offset="0.64" stop-color="#8C3AAA" stop-opacity="0"/>
<stop offset="1" stop-color="#8C3AAA"/>
</radialGradient>
</defs>
</svg>
