<svg width="272" height="128" viewBox="0 0 272 128" fill="none" xmlns="http://www.w3.org/2000/svg">
<rect x="96" width="80" height="80" rx="40" fill="#26A212"/>
<g clip-path="url(#clip0_19_4679)">
<path d="M146.666 29.3334H125.333C123.853 29.3334 122.679 30.52 122.679 32L122.666 48C122.666 49.48 123.853 50.6667 125.333 50.6667H130.666C131.399 50.6667 131.999 50.0667 131.999 49.3334C131.999 48.6 131.399 48 130.666 48H125.333V40H149.333V32C149.333 30.5334 148.133 29.3334 146.666 29.3334ZM146.666 34.6667H125.333V32H146.666V34.6667ZM139.906 49.56L137.079 46.7334C136.559 46.2134 135.719 46.2134 135.199 46.7334C134.679 47.2534 134.679 48.0934 135.199 48.6134L138.973 52.3867C139.493 52.9067 140.333 52.9067 140.853 52.3867L148.399 44.84C148.919 44.32 148.919 43.48 148.399 42.96C147.879 42.44 147.039 42.44 146.519 42.96L139.906 49.56Z" fill="white"/>
</g>
<path d="M33.1023 113.637H28.6609V111.305H33.1023C33.8758 111.305 34.5008 111.18 34.9773 110.93C35.4539 110.68 35.8016 110.336 36.0203 109.898C36.2469 109.453 36.3602 108.945 36.3602 108.375C36.3602 107.836 36.2469 107.332 36.0203 106.863C35.8016 106.387 35.4539 106.004 34.9773 105.715C34.5008 105.426 33.8758 105.281 33.1023 105.281H29.5633V120H26.6219V102.938H33.1023C34.4227 102.938 35.5437 103.172 36.4656 103.641C37.3953 104.102 38.1023 104.742 38.5867 105.562C39.0711 106.375 39.3133 107.305 39.3133 108.352C39.3133 109.453 39.0711 110.398 38.5867 111.188C38.1023 111.977 37.3953 112.582 36.4656 113.004C35.5437 113.426 34.4227 113.637 33.1023 113.637ZM48.9766 117.457V111.41C48.9766 110.957 48.8945 110.566 48.7305 110.238C48.5664 109.91 48.3164 109.656 47.9805 109.477C47.6523 109.297 47.2383 109.207 46.7383 109.207C46.2773 109.207 45.8789 109.285 45.543 109.441C45.207 109.598 44.9453 109.809 44.7578 110.074C44.5703 110.34 44.4766 110.641 44.4766 110.977H41.6641C41.6641 110.477 41.7852 109.992 42.0273 109.523C42.2695 109.055 42.6211 108.637 43.082 108.27C43.543 107.902 44.0937 107.613 44.7344 107.402C45.375 107.191 46.0937 107.086 46.8906 107.086C47.8437 107.086 48.6875 107.246 49.4219 107.566C50.1641 107.887 50.7461 108.371 51.168 109.02C51.5977 109.66 51.8125 110.465 51.8125 111.434V117.07C51.8125 117.648 51.8516 118.168 51.9297 118.629C52.0156 119.082 52.1367 119.477 52.293 119.812V120H49.3984C49.2656 119.695 49.1602 119.309 49.082 118.84C49.0117 118.363 48.9766 117.902 48.9766 117.457ZM49.3867 112.289L49.4102 114.035H47.3828C46.8594 114.035 46.3984 114.086 46 114.188C45.6016 114.281 45.2695 114.422 45.0039 114.609C44.7383 114.797 44.5391 115.023 44.4062 115.289C44.2734 115.555 44.207 115.855 44.207 116.191C44.207 116.527 44.2852 116.836 44.4414 117.117C44.5977 117.391 44.8242 117.605 45.1211 117.762C45.4258 117.918 45.793 117.996 46.2227 117.996C46.8008 117.996 47.3047 117.879 47.7344 117.645C48.1719 117.402 48.5156 117.109 48.7656 116.766C49.0156 116.414 49.1484 116.082 49.1641 115.77L50.0781 117.023C49.9844 117.344 49.8242 117.688 49.5977 118.055C49.3711 118.422 49.0742 118.773 48.707 119.109C48.3477 119.438 47.9141 119.707 47.4062 119.918C46.9062 120.129 46.3281 120.234 45.6719 120.234C44.8437 120.234 44.1055 120.07 43.457 119.742C42.8086 119.406 42.3008 118.957 41.9336 118.395C41.5664 117.824 41.3828 117.18 41.3828 116.461C41.3828 115.789 41.5078 115.195 41.7578 114.68C42.0156 114.156 42.3906 113.719 42.8828 113.367C43.3828 113.016 43.9922 112.75 44.7109 112.57C45.4297 112.383 46.25 112.289 47.1719 112.289H49.3867ZM58.5578 118.617L62.0031 107.32H65.0266L59.9406 121.934C59.8234 122.246 59.6711 122.586 59.4836 122.953C59.2961 123.32 59.05 123.668 58.7453 123.996C58.4484 124.332 58.0773 124.602 57.632 124.805C57.1867 125.016 56.6477 125.121 56.0148 125.121C55.7648 125.121 55.5227 125.098 55.2883 125.051C55.0617 125.012 54.8469 124.969 54.6437 124.922L54.632 122.766C54.7102 122.773 54.8039 122.781 54.9133 122.789C55.0305 122.797 55.1242 122.801 55.1945 122.801C55.6633 122.801 56.0539 122.742 56.3664 122.625C56.6789 122.516 56.9328 122.336 57.1281 122.086C57.3312 121.836 57.5031 121.5 57.6437 121.078L58.5578 118.617ZM56.6125 107.32L59.6242 116.812L60.1281 119.789L58.1711 120.293L53.5656 107.32H56.6125ZM69.768 109.898V120H66.9437V107.32H69.6039L69.768 109.898ZM69.3109 113.191L68.35 113.18C68.35 112.305 68.4594 111.496 68.6781 110.754C68.8969 110.012 69.2172 109.367 69.6391 108.82C70.0609 108.266 70.5844 107.84 71.2094 107.543C71.8422 107.238 72.5727 107.086 73.4008 107.086C73.9789 107.086 74.5062 107.172 74.9828 107.344C75.4672 107.508 75.8852 107.77 76.2367 108.129C76.5961 108.488 76.8695 108.949 77.057 109.512C77.2523 110.074 77.35 110.754 77.35 111.551V120H74.5258V111.797C74.5258 111.18 74.432 110.695 74.2445 110.344C74.0648 109.992 73.8031 109.742 73.4594 109.594C73.1234 109.438 72.7211 109.359 72.2523 109.359C71.7211 109.359 71.268 109.461 70.893 109.664C70.5258 109.867 70.225 110.145 69.9906 110.496C69.7562 110.848 69.5844 111.254 69.475 111.715C69.3656 112.176 69.3109 112.668 69.3109 113.191ZM77.1742 112.441L75.85 112.734C75.85 111.969 75.9555 111.246 76.1664 110.566C76.3852 109.879 76.7016 109.277 77.1156 108.762C77.5375 108.238 78.057 107.828 78.6742 107.531C79.2914 107.234 79.9984 107.086 80.7953 107.086C81.4437 107.086 82.0219 107.176 82.5297 107.355C83.0453 107.527 83.4828 107.801 83.8422 108.176C84.2016 108.551 84.475 109.039 84.6625 109.641C84.85 110.234 84.9437 110.953 84.9437 111.797V120H82.1078V111.785C82.1078 111.145 82.0141 110.648 81.8266 110.297C81.6469 109.945 81.3891 109.703 81.0531 109.57C80.7172 109.43 80.3148 109.359 79.8461 109.359C79.4086 109.359 79.0219 109.441 78.6859 109.605C78.3578 109.762 78.0805 109.984 77.8539 110.273C77.6273 110.555 77.4555 110.879 77.3383 111.246C77.2289 111.613 77.1742 112.012 77.1742 112.441ZM93.7398 120.234C92.8023 120.234 91.9547 120.082 91.1969 119.777C90.4469 119.465 89.8062 119.031 89.275 118.477C88.7516 117.922 88.3492 117.27 88.068 116.52C87.7867 115.77 87.6461 114.961 87.6461 114.094V113.625C87.6461 112.633 87.7906 111.734 88.0797 110.93C88.3687 110.125 88.7711 109.438 89.2867 108.867C89.8023 108.289 90.4117 107.848 91.1148 107.543C91.818 107.238 92.5797 107.086 93.4 107.086C94.3062 107.086 95.0992 107.238 95.7789 107.543C96.4586 107.848 97.0211 108.277 97.4664 108.832C97.9195 109.379 98.2555 110.031 98.4742 110.789C98.7008 111.547 98.8141 112.383 98.8141 113.297V114.504H89.0172V112.477H96.025V112.254C96.0094 111.746 95.9078 111.27 95.7203 110.824C95.5406 110.379 95.2633 110.02 94.8883 109.746C94.5133 109.473 94.0133 109.336 93.3883 109.336C92.9195 109.336 92.5016 109.438 92.1344 109.641C91.775 109.836 91.4742 110.121 91.232 110.496C90.9898 110.871 90.8023 111.324 90.6695 111.855C90.5445 112.379 90.482 112.969 90.482 113.625V114.094C90.482 114.648 90.5562 115.164 90.7047 115.641C90.8609 116.109 91.0875 116.52 91.3844 116.871C91.6812 117.223 92.0406 117.5 92.4625 117.703C92.8844 117.898 93.3648 117.996 93.9039 117.996C94.5836 117.996 95.1891 117.859 95.7203 117.586C96.2516 117.312 96.7125 116.926 97.1031 116.426L98.5914 117.867C98.318 118.266 97.9625 118.648 97.525 119.016C97.0875 119.375 96.5523 119.668 95.9195 119.895C95.2945 120.121 94.568 120.234 93.7398 120.234ZM104.118 110.027V120H101.294V107.32H103.954L104.118 110.027ZM103.614 113.191L102.7 113.18C102.708 112.281 102.833 111.457 103.075 110.707C103.325 109.957 103.669 109.312 104.106 108.773C104.552 108.234 105.083 107.82 105.7 107.531C106.317 107.234 107.005 107.086 107.762 107.086C108.372 107.086 108.923 107.172 109.415 107.344C109.915 107.508 110.341 107.777 110.692 108.152C111.052 108.527 111.325 109.016 111.512 109.617C111.7 110.211 111.794 110.941 111.794 111.809V120H108.958V111.797C108.958 111.188 108.868 110.707 108.688 110.355C108.516 109.996 108.262 109.742 107.927 109.594C107.598 109.438 107.188 109.359 106.696 109.359C106.212 109.359 105.778 109.461 105.395 109.664C105.012 109.867 104.688 110.145 104.423 110.496C104.165 110.848 103.966 111.254 103.825 111.715C103.684 112.176 103.614 112.668 103.614 113.191ZM120.789 107.32V109.383H113.641V107.32H120.789ZM115.703 104.215H118.527V116.496C118.527 116.887 118.582 117.188 118.691 117.398C118.809 117.602 118.969 117.738 119.172 117.809C119.375 117.879 119.613 117.914 119.887 117.914C120.082 117.914 120.27 117.902 120.449 117.879C120.629 117.855 120.773 117.832 120.883 117.809L120.895 119.965C120.66 120.035 120.387 120.098 120.074 120.152C119.77 120.207 119.418 120.234 119.02 120.234C118.371 120.234 117.797 120.121 117.297 119.895C116.797 119.66 116.406 119.281 116.125 118.758C115.844 118.234 115.703 117.539 115.703 116.672V104.215ZM136.659 116.566C136.659 116.285 136.588 116.031 136.448 115.805C136.307 115.57 136.038 115.359 135.639 115.172C135.248 114.984 134.67 114.812 133.905 114.656C133.233 114.508 132.616 114.332 132.053 114.129C131.498 113.918 131.022 113.664 130.623 113.367C130.225 113.07 129.916 112.719 129.698 112.312C129.479 111.906 129.37 111.438 129.37 110.906C129.37 110.391 129.483 109.902 129.709 109.441C129.936 108.98 130.26 108.574 130.682 108.223C131.104 107.871 131.616 107.594 132.217 107.391C132.827 107.188 133.506 107.086 134.256 107.086C135.319 107.086 136.229 107.266 136.987 107.625C137.752 107.977 138.338 108.457 138.745 109.066C139.151 109.668 139.354 110.348 139.354 111.105H136.53C136.53 110.77 136.444 110.457 136.272 110.168C136.108 109.871 135.858 109.633 135.522 109.453C135.186 109.266 134.764 109.172 134.256 109.172C133.772 109.172 133.37 109.25 133.049 109.406C132.737 109.555 132.502 109.75 132.346 109.992C132.198 110.234 132.123 110.5 132.123 110.789C132.123 111 132.163 111.191 132.241 111.363C132.327 111.527 132.467 111.68 132.663 111.82C132.858 111.953 133.123 112.078 133.459 112.195C133.803 112.312 134.233 112.426 134.748 112.535C135.717 112.738 136.549 113 137.245 113.32C137.948 113.633 138.487 114.039 138.862 114.539C139.237 115.031 139.424 115.656 139.424 116.414C139.424 116.977 139.303 117.492 139.061 117.961C138.827 118.422 138.483 118.824 138.03 119.168C137.577 119.504 137.034 119.766 136.401 119.953C135.776 120.141 135.073 120.234 134.291 120.234C133.143 120.234 132.17 120.031 131.373 119.625C130.577 119.211 129.971 118.684 129.557 118.043C129.151 117.395 128.948 116.723 128.948 116.027H131.678C131.709 116.551 131.854 116.969 132.112 117.281C132.377 117.586 132.705 117.809 133.096 117.949C133.495 118.082 133.905 118.148 134.327 118.148C134.834 118.148 135.26 118.082 135.604 117.949C135.948 117.809 136.209 117.621 136.389 117.387C136.569 117.145 136.659 116.871 136.659 116.566ZM149.826 117.012V107.32H152.662V120H149.99L149.826 117.012ZM150.224 114.375L151.173 114.352C151.173 115.203 151.08 115.988 150.892 116.707C150.705 117.418 150.416 118.039 150.025 118.57C149.634 119.094 149.134 119.504 148.525 119.801C147.916 120.09 147.185 120.234 146.334 120.234C145.716 120.234 145.15 120.145 144.634 119.965C144.119 119.785 143.673 119.508 143.298 119.133C142.931 118.758 142.646 118.27 142.443 117.668C142.24 117.066 142.138 116.348 142.138 115.512V107.32H144.962V115.535C144.962 115.996 145.017 116.383 145.127 116.695C145.236 117 145.384 117.246 145.572 117.434C145.759 117.621 145.978 117.754 146.228 117.832C146.478 117.91 146.744 117.949 147.025 117.949C147.83 117.949 148.462 117.793 148.923 117.48C149.392 117.16 149.724 116.73 149.92 116.191C150.123 115.652 150.224 115.047 150.224 114.375ZM161.036 117.984C161.497 117.984 161.911 117.895 162.278 117.715C162.653 117.527 162.954 117.27 163.18 116.941C163.415 116.613 163.544 116.234 163.567 115.805H166.227C166.212 116.625 165.97 117.371 165.501 118.043C165.032 118.715 164.411 119.25 163.637 119.648C162.864 120.039 162.009 120.234 161.071 120.234C160.102 120.234 159.259 120.07 158.54 119.742C157.821 119.406 157.223 118.945 156.747 118.359C156.27 117.773 155.911 117.098 155.669 116.332C155.434 115.566 155.317 114.746 155.317 113.871V113.461C155.317 112.586 155.434 111.766 155.669 111C155.911 110.227 156.27 109.547 156.747 108.961C157.223 108.375 157.821 107.918 158.54 107.59C159.259 107.254 160.098 107.086 161.059 107.086C162.075 107.086 162.966 107.289 163.731 107.695C164.497 108.094 165.098 108.652 165.536 109.371C165.981 110.082 166.212 110.91 166.227 111.855H163.567C163.544 111.387 163.427 110.965 163.216 110.59C163.012 110.207 162.723 109.902 162.348 109.676C161.981 109.449 161.54 109.336 161.024 109.336C160.454 109.336 159.981 109.453 159.606 109.688C159.231 109.914 158.938 110.227 158.727 110.625C158.516 111.016 158.364 111.457 158.27 111.949C158.184 112.434 158.141 112.938 158.141 113.461V113.871C158.141 114.395 158.184 114.902 158.27 115.395C158.356 115.887 158.505 116.328 158.716 116.719C158.934 117.102 159.231 117.41 159.606 117.645C159.981 117.871 160.458 117.984 161.036 117.984ZM173.875 117.984C174.336 117.984 174.75 117.895 175.117 117.715C175.492 117.527 175.793 117.27 176.02 116.941C176.254 116.613 176.383 116.234 176.406 115.805H179.066C179.051 116.625 178.809 117.371 178.34 118.043C177.871 118.715 177.25 119.25 176.477 119.648C175.703 120.039 174.848 120.234 173.91 120.234C172.941 120.234 172.098 120.07 171.379 119.742C170.66 119.406 170.062 118.945 169.586 118.359C169.109 117.773 168.75 117.098 168.508 116.332C168.273 115.566 168.156 114.746 168.156 113.871V113.461C168.156 112.586 168.273 111.766 168.508 111C168.75 110.227 169.109 109.547 169.586 108.961C170.062 108.375 170.66 107.918 171.379 107.59C172.098 107.254 172.938 107.086 173.898 107.086C174.914 107.086 175.805 107.289 176.57 107.695C177.336 108.094 177.938 108.652 178.375 109.371C178.82 110.082 179.051 110.91 179.066 111.855H176.406C176.383 111.387 176.266 110.965 176.055 110.59C175.852 110.207 175.562 109.902 175.188 109.676C174.82 109.449 174.379 109.336 173.863 109.336C173.293 109.336 172.82 109.453 172.445 109.688C172.07 109.914 171.777 110.227 171.566 110.625C171.355 111.016 171.203 111.457 171.109 111.949C171.023 112.434 170.98 112.938 170.98 113.461V113.871C170.98 114.395 171.023 114.902 171.109 115.395C171.195 115.887 171.344 116.328 171.555 116.719C171.773 117.102 172.07 117.41 172.445 117.645C172.82 117.871 173.297 117.984 173.875 117.984ZM187.124 120.234C186.187 120.234 185.339 120.082 184.581 119.777C183.831 119.465 183.191 119.031 182.659 118.477C182.136 117.922 181.734 117.27 181.452 116.52C181.171 115.77 181.03 114.961 181.03 114.094V113.625C181.03 112.633 181.175 111.734 181.464 110.93C181.753 110.125 182.155 109.438 182.671 108.867C183.187 108.289 183.796 107.848 184.499 107.543C185.202 107.238 185.964 107.086 186.784 107.086C187.691 107.086 188.484 107.238 189.163 107.543C189.843 107.848 190.405 108.277 190.851 108.832C191.304 109.379 191.64 110.031 191.859 110.789C192.085 111.547 192.198 112.383 192.198 113.297V114.504H182.402V112.477H189.409V112.254C189.394 111.746 189.292 111.27 189.105 110.824C188.925 110.379 188.648 110.02 188.273 109.746C187.898 109.473 187.398 109.336 186.773 109.336C186.304 109.336 185.886 109.438 185.519 109.641C185.159 109.836 184.859 110.121 184.616 110.496C184.374 110.871 184.187 111.324 184.054 111.855C183.929 112.379 183.866 112.969 183.866 113.625V114.094C183.866 114.648 183.941 115.164 184.089 115.641C184.245 116.109 184.472 116.52 184.769 116.871C185.066 117.223 185.425 117.5 185.847 117.703C186.269 117.898 186.749 117.996 187.288 117.996C187.968 117.996 188.573 117.859 189.105 117.586C189.636 117.312 190.097 116.926 190.488 116.426L191.976 117.867C191.702 118.266 191.347 118.648 190.909 119.016C190.472 119.375 189.937 119.668 189.304 119.895C188.679 120.121 187.952 120.234 187.124 120.234ZM201.815 116.566C201.815 116.285 201.745 116.031 201.604 115.805C201.463 115.57 201.194 115.359 200.795 115.172C200.405 114.984 199.827 114.812 199.061 114.656C198.389 114.508 197.772 114.332 197.209 114.129C196.655 113.918 196.178 113.664 195.78 113.367C195.381 113.07 195.073 112.719 194.854 112.312C194.635 111.906 194.526 111.438 194.526 110.906C194.526 110.391 194.639 109.902 194.866 109.441C195.092 108.98 195.416 108.574 195.838 108.223C196.26 107.871 196.772 107.594 197.373 107.391C197.983 107.188 198.662 107.086 199.412 107.086C200.475 107.086 201.385 107.266 202.143 107.625C202.909 107.977 203.495 108.457 203.901 109.066C204.307 109.668 204.51 110.348 204.51 111.105H201.686C201.686 110.77 201.6 110.457 201.428 110.168C201.264 109.871 201.014 109.633 200.678 109.453C200.342 109.266 199.92 109.172 199.412 109.172C198.928 109.172 198.526 109.25 198.205 109.406C197.893 109.555 197.659 109.75 197.502 109.992C197.354 110.234 197.28 110.5 197.28 110.789C197.28 111 197.319 111.191 197.397 111.363C197.483 111.527 197.623 111.68 197.819 111.82C198.014 111.953 198.28 112.078 198.616 112.195C198.959 112.312 199.389 112.426 199.905 112.535C200.873 112.738 201.705 113 202.401 113.32C203.104 113.633 203.643 114.039 204.018 114.539C204.393 115.031 204.58 115.656 204.58 116.414C204.58 116.977 204.459 117.492 204.217 117.961C203.983 118.422 203.639 118.824 203.186 119.168C202.733 119.504 202.19 119.766 201.557 119.953C200.932 120.141 200.229 120.234 199.448 120.234C198.299 120.234 197.327 120.031 196.53 119.625C195.733 119.211 195.127 118.684 194.713 118.043C194.307 117.395 194.104 116.723 194.104 116.027H196.834C196.866 116.551 197.01 116.969 197.268 117.281C197.534 117.586 197.862 117.809 198.252 117.949C198.651 118.082 199.061 118.148 199.483 118.148C199.991 118.148 200.416 118.082 200.76 117.949C201.104 117.809 201.366 117.621 201.545 117.387C201.725 117.145 201.815 116.871 201.815 116.566ZM214.466 116.566C214.466 116.285 214.396 116.031 214.255 115.805C214.115 115.57 213.845 115.359 213.447 115.172C213.056 114.984 212.478 114.812 211.712 114.656C211.041 114.508 210.423 114.332 209.861 114.129C209.306 113.918 208.83 113.664 208.431 113.367C208.033 113.07 207.724 112.719 207.505 112.312C207.287 111.906 207.177 111.438 207.177 110.906C207.177 110.391 207.291 109.902 207.517 109.441C207.744 108.98 208.068 108.574 208.49 108.223C208.912 107.871 209.423 107.594 210.025 107.391C210.634 107.188 211.314 107.086 212.064 107.086C213.127 107.086 214.037 107.266 214.795 107.625C215.56 107.977 216.146 108.457 216.552 109.066C216.959 109.668 217.162 110.348 217.162 111.105H214.337C214.337 110.77 214.252 110.457 214.08 110.168C213.916 109.871 213.666 109.633 213.33 109.453C212.994 109.266 212.572 109.172 212.064 109.172C211.58 109.172 211.177 109.25 210.857 109.406C210.545 109.555 210.31 109.75 210.154 109.992C210.005 110.234 209.931 110.5 209.931 110.789C209.931 111 209.97 111.191 210.048 111.363C210.134 111.527 210.275 111.68 210.47 111.82C210.666 111.953 210.931 112.078 211.267 112.195C211.611 112.312 212.041 112.426 212.556 112.535C213.525 112.738 214.357 113 215.052 113.32C215.755 113.633 216.295 114.039 216.67 114.539C217.045 115.031 217.232 115.656 217.232 116.414C217.232 116.977 217.111 117.492 216.869 117.961C216.634 118.422 216.291 118.824 215.837 119.168C215.384 119.504 214.841 119.766 214.209 119.953C213.584 120.141 212.88 120.234 212.099 120.234C210.951 120.234 209.978 120.031 209.181 119.625C208.384 119.211 207.779 118.684 207.365 118.043C206.959 117.395 206.755 116.723 206.755 116.027H209.486C209.517 116.551 209.662 116.969 209.92 117.281C210.185 117.586 210.513 117.809 210.904 117.949C211.302 118.082 211.712 118.148 212.134 118.148C212.642 118.148 213.068 118.082 213.412 117.949C213.755 117.809 214.017 117.621 214.197 117.387C214.377 117.145 214.466 116.871 214.466 116.566ZM223.825 120H221.001V106.102C221.001 105.156 221.177 104.363 221.528 103.723C221.887 103.074 222.399 102.586 223.063 102.258C223.727 101.922 224.512 101.754 225.419 101.754C225.7 101.754 225.977 101.773 226.251 101.812C226.524 101.844 226.79 101.895 227.048 101.965L226.977 104.145C226.821 104.105 226.649 104.078 226.462 104.062C226.282 104.047 226.087 104.039 225.876 104.039C225.446 104.039 225.075 104.121 224.762 104.285C224.458 104.441 224.223 104.672 224.059 104.977C223.903 105.281 223.825 105.656 223.825 106.102V120ZM226.438 107.32V109.383H219.055V107.32H226.438ZM236.418 117.012V107.32H239.254V120H236.582L236.418 117.012ZM236.816 114.375L237.766 114.352C237.766 115.203 237.672 115.988 237.484 116.707C237.297 117.418 237.008 118.039 236.617 118.57C236.227 119.094 235.727 119.504 235.117 119.801C234.508 120.09 233.777 120.234 232.926 120.234C232.309 120.234 231.742 120.145 231.227 119.965C230.711 119.785 230.266 119.508 229.891 119.133C229.523 118.758 229.238 118.27 229.035 117.668C228.832 117.066 228.73 116.348 228.73 115.512V107.32H231.555V115.535C231.555 115.996 231.609 116.383 231.719 116.695C231.828 117 231.977 117.246 232.164 117.434C232.352 117.621 232.57 117.754 232.82 117.832C233.07 117.91 233.336 117.949 233.617 117.949C234.422 117.949 235.055 117.793 235.516 117.48C235.984 117.16 236.316 116.73 236.512 116.191C236.715 115.652 236.816 115.047 236.816 114.375ZM245.472 102V120H242.636V102H245.472Z" fill="#1A1A1A"/>
<defs>
<clipPath id="clip0_19_4679">
<rect width="32" height="32" fill="white" transform="translate(120 24)"/>
</clipPath>
</defs>
</svg>
