<svg width="1368" height="187" viewBox="0 0 1368 187" fill="none" xmlns="http://www.w3.org/2000/svg">
<path d="M456.271 169.761L303.567 169.506L303.837 0L456.54 0.255508L456.271 169.761Z" fill="#DBAB9E"/>
<path d="M416.729 166.682C416.747 155.48 425.614 146.413 436.534 146.431C447.455 146.449 456.293 155.546 456.275 166.749C456.258 177.951 447.39 187.018 436.47 187C425.55 186.982 416.711 177.885 416.729 166.682Z" fill="#DBAB9E"/>
<path d="M379.924 166.621C379.942 155.418 388.809 146.351 399.729 146.369C410.649 146.388 419.488 155.484 419.47 166.687C419.452 177.89 410.585 186.957 399.665 186.938C388.744 186.92 379.906 177.824 379.924 166.621Z" fill="#DBAB9E"/>
<path d="M340.377 166.555C340.395 155.352 349.262 146.285 360.183 146.303C371.103 146.322 379.942 155.418 379.924 166.621C379.906 177.824 371.039 186.89 360.118 186.872C349.198 186.854 340.36 177.757 340.377 166.555Z" fill="#DBAB9E"/>
<path d="M303.572 166.493C303.59 155.29 312.457 146.223 323.377 146.242C334.298 146.26 343.136 155.356 343.118 166.559C343.1 177.762 334.233 186.829 323.313 186.811C312.393 186.792 303.554 177.696 303.572 166.493Z" fill="#DBAB9E"/>
<path d="M152.703 169.761L0 169.506L0.269713 0L152.973 0.255508L152.703 169.761Z" fill="#DBAB9E"/>
<path d="M113.162 166.682C113.18 155.48 122.047 146.413 132.967 146.431C143.888 146.449 152.726 155.546 152.708 166.749C152.69 177.951 143.823 187.018 132.903 187C121.982 186.982 113.144 177.885 113.162 166.682Z" fill="#DBAB9E"/>
<path d="M76.3564 166.621C76.3743 155.418 85.2414 146.351 96.1618 146.369C107.082 146.388 115.92 155.484 115.903 166.687C115.885 177.89 107.018 186.957 96.0973 186.938C85.1769 186.92 76.3386 177.824 76.3564 166.621Z" fill="#DBAB9E"/>
<path d="M36.8102 166.555C36.828 155.352 45.6952 146.285 56.6156 146.303C67.536 146.322 76.3743 155.418 76.3564 166.621C76.3386 177.824 67.4714 186.89 56.551 186.872C45.6306 186.854 36.7924 177.757 36.8102 166.555Z" fill="#DBAB9E"/>
<path d="M0.00479348 166.493C0.0226191 155.29 8.8898 146.223 19.8102 146.242C30.7306 146.26 39.5688 155.356 39.551 166.559C39.5332 177.762 30.666 186.829 19.7456 186.811C8.82524 186.792 -0.0130321 177.696 0.00479348 166.493Z" fill="#DBAB9E"/>
<path d="M303.567 169.761L150.864 169.506L151.133 0L303.837 0.255508L303.567 169.761Z" fill="#DBAB9E"/>
<path d="M264.026 166.682C264.043 155.48 272.911 146.413 283.831 146.431C294.751 146.449 303.59 155.546 303.572 166.749C303.554 177.951 294.687 187.018 283.766 187C272.846 186.982 264.008 177.885 264.026 166.682Z" fill="#DBAB9E"/>
<path d="M227.22 166.621C227.238 155.418 236.105 146.351 247.026 146.369C257.946 146.388 266.784 155.484 266.766 166.687C266.749 177.89 257.881 186.957 246.961 186.938C236.041 186.92 227.202 177.824 227.22 166.621Z" fill="#DBAB9E"/>
<path d="M187.674 166.555C187.692 155.352 196.559 146.285 207.479 146.303C218.4 146.322 227.238 155.418 227.22 166.621C227.202 177.824 218.335 186.89 207.415 186.872C196.494 186.854 187.656 177.757 187.674 166.555Z" fill="#DBAB9E"/>
<path d="M150.869 166.493C150.886 155.29 159.754 146.223 170.674 146.242C181.594 146.26 190.433 155.356 190.415 166.559C190.397 177.762 181.53 186.829 170.609 186.811C159.689 186.792 150.851 177.696 150.869 166.493Z" fill="#DBAB9E"/>
<path d="M912 169.761L759.297 169.506L759.567 0L912.27 0.255508L912 169.761Z" fill="#DBAB9E"/>
<path d="M872.459 166.682C872.477 155.48 881.344 146.413 892.264 146.431C903.185 146.449 912.023 155.546 912.005 166.749C911.987 177.951 903.12 187.018 892.2 187C881.279 186.982 872.441 177.885 872.459 166.682Z" fill="#DBAB9E"/>
<path d="M835.654 166.621C835.671 155.418 844.539 146.351 855.459 146.369C866.379 146.388 875.218 155.484 875.2 166.687C875.182 177.89 866.315 186.957 855.394 186.938C844.474 186.92 835.636 177.824 835.654 166.621Z" fill="#DBAB9E"/>
<path d="M796.107 166.555C796.125 155.352 804.992 146.285 815.913 146.303C826.833 146.322 835.671 155.418 835.654 166.621C835.636 177.824 826.769 186.89 815.848 186.872C804.928 186.854 796.09 177.757 796.107 166.555Z" fill="#DBAB9E"/>
<path d="M759.302 166.493C759.32 155.29 768.187 146.223 779.107 146.242C790.028 146.26 798.866 155.356 798.848 166.559C798.83 177.762 789.963 186.829 779.043 186.811C768.122 186.792 759.284 177.696 759.302 166.493Z" fill="#DBAB9E"/>
<path d="M608.433 169.761L455.73 169.506L456 0L608.703 0.255508L608.433 169.761Z" fill="#DBAB9E"/>
<path d="M568.892 166.682C568.91 155.48 577.777 146.413 588.697 146.431C599.617 146.449 608.456 155.546 608.438 166.749C608.42 177.951 599.553 187.018 588.633 187C577.712 186.982 568.874 177.885 568.892 166.682Z" fill="#DBAB9E"/>
<path d="M532.086 166.621C532.104 155.418 540.971 146.351 551.892 146.369C562.812 146.388 571.65 155.484 571.633 166.687C571.615 177.89 562.748 186.957 551.827 186.938C540.907 186.92 532.068 177.824 532.086 166.621Z" fill="#DBAB9E"/>
<path d="M492.54 166.555C492.558 155.352 501.425 146.285 512.345 146.303C523.266 146.322 532.104 155.418 532.086 166.621C532.068 177.824 523.201 186.89 512.281 186.872C501.361 186.854 492.522 177.757 492.54 166.555Z" fill="#DBAB9E"/>
<path d="M455.735 166.493C455.753 155.29 464.62 146.223 475.54 146.242C486.46 146.26 495.299 155.356 495.281 166.559C495.263 177.762 486.396 186.829 475.475 186.811C464.555 186.792 455.717 177.696 455.735 166.493Z" fill="#DBAB9E"/>
<path d="M759.297 169.761L606.594 169.506L606.863 0L759.567 0.255508L759.297 169.761Z" fill="#DBAB9E"/>
<path d="M719.755 166.682C719.773 155.48 728.64 146.413 739.561 146.431C750.481 146.449 759.32 155.546 759.302 166.749C759.284 177.951 750.417 187.018 739.496 187C728.576 186.982 719.738 177.885 719.755 166.682Z" fill="#DBAB9E"/>
<path d="M682.95 166.621C682.968 155.418 691.835 146.351 702.755 146.369C713.676 146.388 722.514 155.484 722.496 166.687C722.478 177.89 713.611 186.957 702.691 186.938C691.771 186.92 682.932 177.824 682.95 166.621Z" fill="#DBAB9E"/>
<path d="M643.404 166.555C643.422 155.352 652.289 146.285 663.209 146.303C674.13 146.322 682.968 155.418 682.95 166.621C682.932 177.824 674.065 186.89 663.145 186.872C652.224 186.854 643.386 177.757 643.404 166.555Z" fill="#DBAB9E"/>
<path d="M606.598 166.493C606.616 155.29 615.483 146.223 626.404 146.242C637.324 146.26 646.162 155.356 646.145 166.559C646.127 177.762 637.26 186.829 626.339 186.811C615.419 186.792 606.581 177.696 606.598 166.493Z" fill="#DBAB9E"/>
<path d="M1367.73 169.761L1215.03 169.506L1215.3 0L1368 0.255508L1367.73 169.761Z" fill="#DBAB9E"/>
<path d="M1328.19 166.682C1328.21 155.48 1337.07 146.413 1347.99 146.431C1358.91 146.449 1367.75 155.546 1367.74 166.749C1367.72 177.951 1358.85 187.018 1347.93 187C1337.01 186.982 1328.17 177.885 1328.19 166.682Z" fill="#DBAB9E"/>
<path d="M1291.38 166.621C1291.4 155.418 1300.27 146.351 1311.19 146.369C1322.11 146.388 1330.95 155.484 1330.93 166.687C1330.91 177.89 1322.04 186.957 1311.12 186.938C1300.2 186.92 1291.37 177.824 1291.38 166.621Z" fill="#DBAB9E"/>
<path d="M1251.84 166.555C1251.86 155.352 1260.72 146.285 1271.64 146.303C1282.56 146.322 1291.4 155.418 1291.38 166.621C1291.37 177.824 1282.5 186.89 1271.58 186.872C1260.66 186.854 1251.82 177.757 1251.84 166.555Z" fill="#DBAB9E"/>
<path d="M1215.03 166.493C1215.05 155.29 1223.92 146.223 1234.84 146.242C1245.76 146.26 1254.6 155.356 1254.58 166.559C1254.56 177.762 1245.69 186.829 1234.77 186.811C1223.85 186.792 1215.01 177.696 1215.03 166.493Z" fill="#DBAB9E"/>
<path d="M1064.16 169.761L911.46 169.506L911.729 0L1064.43 0.255508L1064.16 169.761Z" fill="#DBAB9E"/>
<path d="M1024.62 166.682C1024.64 155.48 1033.51 146.413 1044.43 146.431C1055.35 146.449 1064.19 155.546 1064.17 166.749C1064.15 177.951 1055.28 187.018 1044.36 187C1033.44 186.982 1024.6 177.885 1024.62 166.682Z" fill="#DBAB9E"/>
<path d="M987.816 166.621C987.834 155.418 996.701 146.351 1007.62 146.369C1018.54 146.388 1027.38 155.484 1027.36 166.687C1027.34 177.89 1018.48 186.957 1007.56 186.938C996.637 186.92 987.798 177.824 987.816 166.621Z" fill="#DBAB9E"/>
<path d="M948.27 166.555C948.288 155.352 957.155 146.285 968.075 146.303C978.996 146.322 987.834 155.418 987.816 166.621C987.798 177.824 978.931 186.89 968.011 186.872C957.09 186.854 948.252 177.757 948.27 166.555Z" fill="#DBAB9E"/>
<path d="M911.465 166.493C911.482 155.29 920.35 146.223 931.27 146.242C942.19 146.26 951.029 155.356 951.011 166.559C950.993 177.762 942.126 186.829 931.205 186.811C920.285 186.792 911.447 177.696 911.465 166.493Z" fill="#DBAB9E"/>
<path d="M1215.03 169.761L1062.32 169.506L1062.59 0L1215.3 0.255508L1215.03 169.761Z" fill="#DBAB9E"/>
<path d="M1175.49 166.682C1175.5 155.48 1184.37 146.413 1195.29 146.431C1206.21 146.449 1215.05 155.546 1215.03 166.749C1215.01 177.951 1206.15 187.018 1195.23 187C1184.31 186.982 1175.47 177.885 1175.49 166.682Z" fill="#DBAB9E"/>
<path d="M1138.68 166.621C1138.7 155.418 1147.56 146.351 1158.49 146.369C1169.41 146.388 1178.24 155.484 1178.23 166.687C1178.21 177.89 1169.34 186.957 1158.42 186.938C1147.5 186.92 1138.66 177.824 1138.68 166.621Z" fill="#DBAB9E"/>
<path d="M1099.13 166.555C1099.15 155.352 1108.02 146.285 1118.94 146.303C1129.86 146.322 1138.7 155.418 1138.68 166.621C1138.66 177.824 1129.79 186.89 1118.87 186.872C1107.95 186.854 1099.12 177.757 1099.13 166.555Z" fill="#DBAB9E"/>
<path d="M1062.33 166.493C1062.35 155.29 1071.21 146.223 1082.13 146.242C1093.05 146.26 1101.89 155.356 1101.87 166.559C1101.86 177.762 1092.99 186.829 1082.07 186.811C1071.15 186.792 1062.31 177.696 1062.33 166.493Z" fill="#DBAB9E"/>
</svg>
